<?xml version="1.0" encoding="utf-8"?>
<!-- Generator: Adobe Illustrator 13.0.0, SVG Export Plug-In . SVG Version: 6.00 Build 14948)  -->
<!DOCTYPE svg PUBLIC "-//W3C//DTD SVG 1.1//EN" "http://www.w3.org/Graphics/SVG/1.1/DTD/svg11.dtd">
<svg version="1.1" id="Layer_1" xmlns="http://www.w3.org/2000/svg" xmlns:xlink="http://www.w3.org/1999/xlink" x="0px" y="0px"
	 width="193.661px" height="143.547px" viewBox="0 0 193.661 143.547" enable-background="new 0 0 193.661 143.547"
	 xml:space="preserve">
<g>
	<path fill-rule="evenodd" clip-rule="evenodd" fill="none" stroke="#000000" stroke-width="1.4173" stroke-linecap="round" d="
		M63.784,35.271c0,0-0.288-20.808-10.728-28.224C42.544-0.441,25.552,0.783,25.552,0.783S25.84,35.415,63.784,35.271z"/>
	<path fill-rule="evenodd" clip-rule="evenodd" fill="none" stroke="#000000" stroke-width="1.4173" stroke-linecap="round" d="
		M43.696,53.055c0,0,9.936,6.768,19.728,5.04s14.904-6.192,19.224-5.04"/>
	<path fill-rule="evenodd" clip-rule="evenodd" fill="none" stroke="#000000" stroke-width="1.4173" stroke-linecap="round" d="
		M39.016,6.903c0.144,0.504,19.44,13.968,24.552,27.72"/>
	<path fill-rule="evenodd" clip-rule="evenodd" fill="none" stroke="#000000" stroke-width="1.4173" stroke-linecap="round" d="
		M30.232,55.071c0,0-6.984,4.824-9.72,9.864c-2.736,5.04-2.808,5.904-3.312,5.976c-0.432,0.072-2.664-7.488,2.16-12.816
		c3.24-3.672,8.064-4.608,10.8-4.824"/>
	<path fill-rule="evenodd" clip-rule="evenodd" fill="none" stroke="#000000" stroke-width="1.4173" stroke-linecap="round" d="
		M61.048,45.495h0.144c-1.296,6.984-1.512,12.888-1.512,12.888c1.656,0.072,3.168-0.072,4.752-0.576c0,0,0.504-5.256,2.88-12.384
		h0.36c1.872-0.36,4.32-0.936,6.984-1.8c5.688-1.872,33.192-3.744,41.976,21.672c9.072,25.992-5.184,60.696-28.944,73.8
		c-5.904,3.24-12.024,4.968-19.584,2.736c-5.4-1.584-11.592-5.04-14.328-4.608c-3.6,0.648-11.736,4.608-22.752,2.88
		s-30.6-30.384-30.312-54.504C1,61.623,13.456,44.415,26.92,41.751C40.024,39.159,53.632,46.719,61.048,45.495z"/>
	<path fill-rule="evenodd" clip-rule="evenodd" fill="none" stroke="#000000" stroke-width="1.4173" stroke-linecap="round" d="
		M64.432,57.807c-1.584,0.504-3.096,0.648-4.752,0.576c0,0,0.504-13.536,4.536-23.904c4.104-10.44,12.456-20.592,12.456-20.592
		s7.92,0.864,9.792,1.44c-0.36,0.144-15.84,20.952-18.648,28.728C64.936,51.831,64.432,57.807,64.432,57.807z"/>
	<path fill-rule="evenodd" clip-rule="evenodd" fill="none" stroke="#000000" stroke-width="1.4173" stroke-linecap="round" d="
		M129.016,97.767c0,0-5.256,10.008-6.624,16.992c-0.576,3.312-0.648,6.192-0.504,8.496c1.08,13.464,28.584,14.256,36.936,12.6
		c-6.264,0.432-12.456-1.44-17.064-6.48c-5.544-6.048-9.576-16.488-12.672-31.536C129.088,97.695,129.088,97.551,129.016,97.767z"/>
	<path fill-rule="evenodd" clip-rule="evenodd" fill="none" stroke="#000000" stroke-width="1.4173" stroke-linecap="round" d="
		M167.32,97.695c0.144-0.36,1.872-6.264,4.68-5.688c2.736,0.576,1.152,3.816-0.36,5.184
		C170.128,98.559,167.248,98.703,167.32,97.695L167.32,97.695z M155.512,98.559c0,0,7.128-2.16,8.208-0.792
		c1.152,1.44,0.72,3.168-3.312,3.384C156.304,101.295,154.936,98.847,155.512,98.559z"/>
	<path fill-rule="evenodd" clip-rule="evenodd" fill="none" stroke="#000000" stroke-width="1.4173" stroke-linecap="round" d="
		M129.088,97.623c0,0,24.336-3.312,38.664-7.2c14.256-3.888,25.2-10.008,25.2-10.008s0.216,25.488-10.08,41.4
		c-8.208,12.744-29.448,20.304-41.112,7.56C136.144,123.255,132.184,112.815,129.088,97.623L129.088,97.623z M167.32,97.695
		c0.144-0.36,1.872-6.264,4.68-5.688c2.736,0.576,1.152,3.816-0.36,5.184C170.128,98.559,167.248,98.703,167.32,97.695
		L167.32,97.695z M155.512,98.559c0,0,7.128-2.16,8.208-0.792c1.152,1.44,0.72,3.168-3.312,3.384
		C156.304,101.295,154.936,98.847,155.512,98.559z"/>
	<path fill-rule="evenodd" clip-rule="evenodd" fill="none" stroke="#000000" stroke-width="1.4173" stroke-linecap="round" d="
		M146.44,96.399c0,0,3.744,15.336,19.944,9.144c11.016-4.176,12.528-13.32,12.312-18.72"/>
</g>
</svg>
