<?xml version="1.0" encoding="utf-8"?>
<!-- Generator: Adobe Illustrator 13.0.0, SVG Export Plug-In . SVG Version: 6.00 Build 14948)  -->
<!DOCTYPE svg PUBLIC "-//W3C//DTD SVG 1.1//EN" "http://www.w3.org/Graphics/SVG/1.1/DTD/svg11.dtd">
<svg version="1.1" id="Layer_1" xmlns="http://www.w3.org/2000/svg" xmlns:xlink="http://www.w3.org/1999/xlink" x="0px" y="0px"
	 width="198.866px" height="102.957px" viewBox="0 0 198.866 102.957" enable-background="new 0 0 198.866 102.957"
	 xml:space="preserve">
<g>
	<path fill-rule="evenodd" clip-rule="evenodd" fill="none" stroke="#000000" stroke-width="1.4173" stroke-linecap="round" d="
		M136.733,71.269L136.733,71.269c4.896,1.512,15.624,3.672,30.024-0.72c19.872-6.048,20.952-25.344,20.952-25.344
		s0.648-0.216,1.584-1.08c0.936-0.936,8.208-9.072,8.64-9.216c0.432-0.216,0.36-0.864-1.296-2.232
		c-1.656-1.368-4.104-1.368-5.328-0.648c-1.224,0.72-10.656,7.128-10.656,7.128s-1.656-0.432-6.624-0.648
		c-4.968-0.288-9.216,3.456-21.096,5.472c-11.808,2.016-23.256-7.56-28.656-13.248c-5.472-5.688-10.224-7.632-10.224-7.632
		s-1.296-0.864-2.88-1.368c-1.512-0.576-3.024,1.08-3.672,1.512c-0.648,0.504-0.504,1.512-0.72,2.304
		c-0.216,0.864-2.88,2.52-3.24,10.08s5.688,17.064,5.688,17.064c8.064,0.864,13.608,0.792,16.992,3.024
		c4.464,3.096,4.824,4.536,5.904,4.968c1.08,0.432,4.032,2.088,4.896,4.896C137.813,68.029,137.597,70.189,136.733,71.269z"/>
	<path fill-rule="evenodd" clip-rule="evenodd" fill="none" stroke="#000000" stroke-width="1.4173" stroke-linecap="round" d="
		M38.957,32.965c-3.168-1.152-4.608-0.72-4.608-0.72s-1.872-6.624-4.464-7.632c-6.408-1.944-8.712,0.72-7.92,1.44
		c1.08,1.008,3.816,3.456,4.896,4.968c1.44,1.944,1.872,3.312,1.872,3.312s-7.2,8.352-1.512,24.48
		c4.32,12.24,14.328,25.776,27.288,33.552c11.52,6.912,38.232,14.184,49.392,6.768c2.952-1.944,4.32-3.456,5.4-4.608
		c0.792-0.936,1.296-1.584,2.088-1.944c1.728-0.864,2.736-1.296,2.952-2.448c0.216-1.08,0.288-2.592,0.432-3.24
		c0.072-0.648,0.864-4.68-0.36-5.688c-1.224-1.008-3.456-1.728-4.68-2.736s-3.96-3.384-11.16-4.176
		c-7.344-0.72-22.824,1.008-36.504-11.016c-8.784-7.704-10.224-23.688-19.44-28.656C41.189,33.901,39.965,33.325,38.957,32.965z"/>
	<path fill-rule="evenodd" clip-rule="evenodd" fill="none" stroke="#000000" stroke-width="1.4173" stroke-linecap="round" d="
		M130.541,75.805c0.144,1.512,0,3.168-0.864,4.104c-1.584,1.872-3.6,2.808-4.104,4.104c-0.576,1.368-5.76,9.792-16.272,10.512
		c0.792-0.936,1.296-1.584,2.088-1.944c1.728-0.864,2.736-1.296,2.952-2.448c0.216-1.08,0.288-2.592,0.432-3.24
		c0.072-0.648,0.864-4.68-0.36-5.688c-1.224-1.008-3.456-1.728-4.68-2.736s-3.96-3.384-11.16-4.176
		c-7.344-0.72-22.824,1.008-36.504-11.016c-8.784-7.704-10.224-23.688-19.44-28.656c-1.44-0.72-2.664-1.296-3.672-1.656
		c0,0,0.072-1.656-0.936-4.536s-2.808-4.032-2.808-4.032s-1.296-1.512-0.864-2.448c0.36-0.864,5.976-3.024,7.632-1.656
		c0.288,0.216,0.216,1.656,0.288,2.016c0.216,0.792,3.312,6.264,5.256,7.632c0,0,9.72,1.008,16.92,10.584
		c7.2,9.648,16.92,21.24,30.6,23.184c13.608,2.016,18.576,0.144,23.4,2.088c4.824,1.944,7.992,5.04,7.992,5.04s2.736,0,3.24,1.296
		C129.965,72.781,130.397,74.293,130.541,75.805z"/>
	<path fill-rule="evenodd" clip-rule="evenodd" fill="none" stroke="#000000" stroke-width="1.4173" stroke-linecap="round" d="
		M12.317,10.789c0,0.864,4.392,6.264,4.392,12.888c0,5.256-0.144,7.344-2.736,7.416"/>
	<path fill-rule="evenodd" clip-rule="evenodd" fill="none" stroke="#000000" stroke-width="1.4173" stroke-linecap="round" d="
		M113.117,81.637c0,0-2.592,1.368-2.088,5.472c0.432,4.104,2.448,2.952,2.52,1.8"/>
	<path fill-rule="evenodd" clip-rule="evenodd" fill="none" stroke="#000000" stroke-width="1.4173" stroke-linecap="round" d="
		M113.117,84.877c0.072,0.864,0.648,2.376,0.072,2.304c-0.648-0.072-0.648-1.512-0.648-1.512"/>
	<path fill-rule="evenodd" clip-rule="evenodd" fill="none" stroke="#000000" stroke-width="1.4173" stroke-linecap="round" d="
		M126.653,71.197c0,0.36-2.16,3.96-1.152,6.336c1.008,2.448,3.816,2.16,4.104,0.648c0.288-1.44-0.648-6.12-1.584-5.472
		c-0.864,0.648-0.72,2.088,0,3.168"/>
	<path fill-rule="evenodd" clip-rule="evenodd" fill="none" stroke="#000000" stroke-width="1.4173" stroke-linecap="round" d="
		M32.045,46.213c0,0,11.448,34.992,40.608,42.84"/>
	<path fill-rule="evenodd" clip-rule="evenodd" fill="none" stroke="#000000" stroke-width="1.4173" stroke-linecap="round" d="
		M53.429,40.525c0.144,1.08,13.752,21.096,28.728,25.2c14.976,4.032,32.832,4.104,34.632,6.768"/>
	<path fill-rule="evenodd" clip-rule="evenodd" fill="none" stroke="#000000" stroke-width="1.4173" stroke-linecap="round" d="
		M134.429,64.789c0,0.36-0.288,4.824,0.504,5.328s1.368-3.096,1.08-3.528c-0.288-0.36-0.576,0.648-0.576,1.08"/>
	<path fill-rule="evenodd" clip-rule="evenodd" fill="none" stroke="#000000" stroke-width="1.4173" stroke-linecap="round" d="
		M22.397,19.573c0,0,18.792-6.336,23.184-6.336"/>
	<path fill-rule="evenodd" clip-rule="evenodd" fill="none" stroke="#000000" stroke-width="1.4173" stroke-linecap="round" d="
		M33.773,11.005c0,0,17.352-2.808,19.296-2.376"/>
	<path fill-rule="evenodd" clip-rule="evenodd" fill="none" stroke="#000000" stroke-width="1.4173" stroke-linecap="round" d="
		M6.413,16.693c0,0.36,1.296,7.272,3.6,7.488c2.304,0.144,2.088-3.528,2.088-3.528"/>
	<path fill-rule="evenodd" clip-rule="evenodd" fill="none" stroke="#000000" stroke-width="1.4173" stroke-linecap="round" d="
		M5.693,23.605c0.072,0.216,4.608,5.256,7.2,3.744"/>
	<path fill-rule="evenodd" clip-rule="evenodd" fill="none" stroke="#000000" stroke-width="1.4173" stroke-linecap="round" d="
		M9.725,20.005c-0.288-0.144-2.304-2.304-1.296-2.808c1.008-0.432,1.872,1.512,1.44,1.512"/>
	<path fill-rule="evenodd" clip-rule="evenodd" fill="none" stroke="#000000" stroke-width="1.4173" stroke-linecap="round" d="
		M72.653,43.477c0.504,1.44,13.32,12.168,26.28,14.184c12.888,2.016,23.472,3.096,24.192,4.32"/>
	<path fill-rule="evenodd" clip-rule="evenodd" fill="none" stroke="#000000" stroke-width="1.4173" stroke-linecap="round" d="
		M193.829,32.101c0,0-2.16-0.36-1.8,0.648c0.288,0.936,4.32,2.52,5.904,1.872"/>
	<path fill-rule="evenodd" clip-rule="evenodd" fill="none" stroke="#000000" stroke-width="1.4173" stroke-linecap="round" d="
		M112.397,34.045c0,0.576,17.352,20.304,34.2,19.656c16.848-0.648,25.2-10.584,31.392-9.072"/>
	<path fill-rule="evenodd" clip-rule="evenodd" fill="none" stroke="#000000" stroke-width="1.4173" stroke-linecap="round" d="
		M179.357,54.493c-0.432,0.432-9.648,11.232-27.72,13.032"/>
	<path fill-rule="evenodd" clip-rule="evenodd" fill="none" stroke="#000000" stroke-width="1.4173" stroke-linecap="round" d="
		M112.109,27.493c0,0-0.648,2.592-0.216,3.096"/>
	<path fill-rule="evenodd" clip-rule="evenodd" fill="none" stroke="#000000" stroke-width="1.4173" stroke-linecap="round" d="
		M130.541,75.805h0.072c1.08-0.288,2.52-2.376,2.52-2.376s1.8-0.936,3.096-1.728c1.368-0.792,1.656-3.312,0.792-6.12
		c-0.864-2.808-3.816-4.464-4.896-4.896c-1.08-0.432-1.44-1.872-5.904-4.968c-4.464-3.024-13.032-1.8-25.92-4.392
		c-12.816-2.592-18.144-8.496-26.784-17.136c-8.64-8.64-16.344-7.344-17.712-7.776c-1.296-0.432-4.464-7.704-4.464-8.28
		c-1.44-2.232-7.416,0.504-6.12,1.728c2.52,2.376,2.304,10.08,2.304,10.08s9.72,1.008,16.92,10.584
		c7.2,9.648,16.92,21.24,30.6,23.184c13.608,2.016,18.576,0.144,23.4,2.088c4.824,1.944,7.992,5.04,7.992,5.04s2.736,0,3.24,1.296
		C129.965,72.781,130.397,74.293,130.541,75.805z"/>
	<path fill-rule="evenodd" clip-rule="evenodd" fill="none" stroke="#000000" stroke-width="1.4173" stroke-linecap="round" d="
		M23.981,27.997h0.072c-0.864-0.792-1.656-1.512-2.088-1.944c-0.792-0.72,1.512-3.384,7.92-1.44c0.504,0.216,1.08,0.72,1.584,1.296
		c1.152-0.576,2.448-1.08,3.672-1.584c-0.216-0.36-1.152-1.584-0.792-2.376c0.36-0.864,5.976-3.024,7.632-1.656
		c0.216,0.144,0.216,1.296,0.288,1.8c1.296-0.36,2.592-0.648,3.888-0.864c-0.216-0.576-0.576-1.008-0.936-1.368
		c-1.296-1.224,4.68-3.96,6.12-1.728c0,0.144,0.36,1.008,0.792,2.088c0.072,0,0.144,0,0.216,0c0.72-0.072,6.696-0.648,8.568-1.08
		c1.872-0.432,6.408-3.384,6.84-9.648c0.432-6.264-6.984-8.712-7.776-8.784c-0.792-0.072-17.784,3.96-18.144,3.96
		c-0.288,0-0.648-0.864-1.44-1.296c-0.72-0.432-4.104,1.44-9.72,2.448C24.989,6.829,11.813,7.045,9.509,6.757
		C7.205,6.469,3.173,2.581,2.741,2.221c-0.36-0.432,0.432,4.824,0.432,4.824s-2.16,2.952-2.448,8.352
		c-0.36,5.472,5.184,14.184,10.512,15.336c1.152,0.288,2.016,0.432,2.736,0.36c1.728,0.432,4.392-0.936,6.408-1.8
		C22.325,28.429,22.253,28.573,23.981,27.997z"/>
</g>
</svg>
