<?xml version="1.0" encoding="utf-8"?>
<!-- Generator: Adobe Illustrator 13.0.0, SVG Export Plug-In . SVG Version: 6.00 Build 14948)  -->
<!DOCTYPE svg PUBLIC "-//W3C//DTD SVG 1.1//EN" "http://www.w3.org/Graphics/SVG/1.1/DTD/svg11.dtd">
<svg version="1.1" id="Layer_1" xmlns="http://www.w3.org/2000/svg" xmlns:xlink="http://www.w3.org/1999/xlink" x="0px" y="0px"
	 width="70.741px" height="198.956px" viewBox="0 0 70.741 198.956" enable-background="new 0 0 70.741 198.956"
	 xml:space="preserve">
<g>
	
		<path id="Bat_13" fill-rule="evenodd" clip-rule="evenodd" fill="none" stroke="#000000" stroke-width="1.4173" stroke-linecap="round" d="
		M58.908,160.389c8.136,2.448,12.888,11.16,10.512,19.44c-2.376,8.352-11.016,13.104-19.152,10.656
		c-8.136-2.448-12.888-11.232-10.512-19.512C42.132,162.692,50.7,157.94,58.908,160.389z"/>
	
		<path id="Bat_12" fill-rule="evenodd" clip-rule="evenodd" fill="none" stroke="#000000" stroke-width="1.4173" stroke-linecap="round" stroke-dasharray="2.8346,2.8346" d="
		M51.708,160.172c11.304,3.888,11.376,27.072-0.216,30.6"/>
	
		<path id="Bat_11" fill-rule="evenodd" clip-rule="evenodd" fill="none" stroke="#000000" stroke-width="1.4173" stroke-linecap="round" stroke-dasharray="2.8346,2.8346" d="
		M53.292,159.741c13.464,1.296,13.68,29.376,0.288,31.32"/>
	
		<path id="Bat_10" fill-rule="evenodd" clip-rule="evenodd" fill="none" stroke="#000000" stroke-width="1.4173" stroke-linecap="round" d="
		M61.284,1.628c2.952,1.44,4.536,4.104,3.528,5.976c-0.936,1.872-4.176,2.232-7.128,0.792c-2.952-1.44-4.536-4.104-3.6-5.976
		C55.092,0.548,58.332,0.188,61.284,1.628z"/>
	
		<path id="Bat_9" fill-rule="evenodd" clip-rule="evenodd" fill="none" stroke="#000000" stroke-width="1.4173" stroke-linecap="round" d="
		M64.884,7.46c1.368-4.68-8.496-10.152-11.592-4.032c-1.008,1.944,0.648,4.752,3.672,6.264c2.664,1.296,5.616,1.152,6.912-0.288
		C64.308,8.9,64.812,8.108,64.884,7.46z"/>
	
		<path id="Bat_8" fill-rule="evenodd" clip-rule="evenodd" fill="none" stroke="#000000" stroke-width="1.4173" stroke-linecap="round" d="
		M43.932,53.685c0,0,0.72,4.968,1.872,7.92s2.16,4.896,2.16,4.896l8.28,0.648"/>
	
		<path id="Bat_7" fill-rule="evenodd" clip-rule="evenodd" fill="none" stroke="#000000" stroke-width="1.4173" stroke-linecap="round" d="
		M47.964,66.645c-11.88,35.496-31.032,87.408-32.4,129.168"/>
	
		<polyline id="Bat_6" fill-rule="evenodd" clip-rule="evenodd" fill="none" stroke="#000000" stroke-width="1.4173" stroke-linecap="round" points="
		35.58,47.564 32.988,72.765 47.964,66.645 	"/>
	
		<path id="Bat_5" fill-rule="evenodd" clip-rule="evenodd" fill="none" stroke="#000000" stroke-width="1.4173" stroke-linecap="round" d="
		M35.724,46.917c-0.216,0.072-0.144,0-0.072,0.216c0.288,0.576,1.44,2.376,4.392,2.52"/>
	
		<path id="Bat_4" fill-rule="evenodd" clip-rule="evenodd" fill="none" stroke="#000000" stroke-width="1.4173" stroke-linecap="round" d="
		M32.988,72.765c0,0-26.928,63.792-27.504,98.784c-0.144,8.928,4.608,19.296,8.64,22.896"/>
	
		<path id="Bat_3" fill-rule="evenodd" clip-rule="evenodd" fill="none" stroke="#000000" stroke-width="1.4173" stroke-linecap="round" d="
		M3.396,180.261c0,0,1.008-1.44,1.584-4.032"/>
	
		<path id="Bat_2" fill-rule="evenodd" clip-rule="evenodd" fill="none" stroke="#000000" stroke-width="1.4173" stroke-linecap="round" d="
		M39.684,46.34l0.144,0.072c-1.584,5.544,8.136,11.088,11.088,5.616h0.072c0,0,0.36,4.464,1.872,8.208
		c1.512,3.744,3.528,6.84,3.528,6.84s-29.88,96.408-35.784,126.072c-1.584,7.992-10.296,5.328-14.184,0.576
		c-5.472-6.768-5.832-15.48-5.688-23.616c0.072-3.6,0.576-16.2,4.032-32.832c4.176-19.872,30.744-90.288,30.744-90.288L39.684,46.34
		z"/>
	
		<path id="Bat_1" fill-rule="evenodd" clip-rule="evenodd" fill="none" stroke="#000000" stroke-width="1.4173" stroke-linecap="round" d="
		M53.148,6.093l0.144,0.072c0.576,1.296,1.872,2.664,3.672,3.528c2.088,1.008,4.248,1.152,5.76,0.504l0.216,0.072
		c-1.44,4.68-11.592,37.224-11.52,38.592c0.072,1.584-0.072,2.088-0.288,2.736c-2.808,6.408-13.752,0-11.088-5.904
		c0.432-1.008,1.512-1.08,1.944-2.088C42.492,42.38,53.004,6.957,53.148,6.093z"/>
</g>
</svg>
