<?xml version="1.0" encoding="utf-8"?>
<!-- Generator: Adobe Illustrator 13.0.0, SVG Export Plug-In . SVG Version: 6.00 Build 14948)  -->
<!DOCTYPE svg PUBLIC "-//W3C//DTD SVG 1.1//EN" "http://www.w3.org/Graphics/SVG/1.1/DTD/svg11.dtd">
<svg version="1.1" id="Layer_1" xmlns="http://www.w3.org/2000/svg" xmlns:xlink="http://www.w3.org/1999/xlink" x="0px" y="0px"
	 width="197.651px" height="102.775px" viewBox="0 0 197.651 102.775" enable-background="new 0 0 197.651 102.775"
	 xml:space="preserve">
<g>
	<path fill-rule="evenodd" clip-rule="evenodd" fill="none" stroke="#000000" stroke-width="1.4173" stroke-linecap="round" d="
		M80.309,92.715l-6.336,1.656c-0.072-1.8-0.36-4.896-1.296-4.896c-1.152,0-4.968,2.16-6.264,2.16c-1.224,0-60.552-3.6-61.344-3.816
		l-0.36-3.6c0,0-1.44-54.936,0.288-64.224c1.728-9.36,7.848-11.952,12.816-12.816c0,0,73.584-8.424,114.048-6.048
		c40.464,2.376,64.08,10.152,64.944,15.984c0.864,5.904-2.592,49.536-3.24,55.368c-5.544-0.072-11.952,0.072-18.792,0.936h-0.216
		c0.36-5.904-2.952-10.944-7.704-11.52c-4.968-0.576-9.72,4.176-10.512,10.512c-0.144,1.224-0.144,2.376,0,3.456l-0.144,0.072
		c-19.368,3.096-38.88,7.272-57.816,12.168c-0.144-6.12-3.528-11.16-8.136-11.52c-4.968-0.432-9.576,4.896-10.152,11.88
		C80.021,89.979,80.092,91.347,80.309,92.715L80.309,92.715z M4.349,52.971c0-10.8-0.216-21.888,0.72-32.832
		c0,0,46.224-0.36,63.72,3.528c0.216,1.512-1.008,33.768-1.008,33.768C66.845,57.579,4.349,52.971,4.349,52.971L4.349,52.971z
		 M68.86,21.867l0.072,1.296l-1.08,39.672c0,0,64.944-25.704,126.144-21.384c0.072-1.152,1.224-24.048,1.224-24.048
		C142.661,7.395,74.044,20.859,68.86,21.867L68.86,21.867z M20.261,66.579c0,0,0.864,17.568,1.224,17.856
		c0.36,0.36,22.464,2.448,22.752,2.016c0.36-0.36,0.792-17.712,0.648-18.072C44.741,68.091,20.404,66.291,20.261,66.579
		L20.261,66.579z M58.637,69.027c3.528,1.08,5.328,5.688,3.96,10.296c-1.368,4.68-5.328,7.56-8.856,6.552
		c-3.6-1.08-5.328-5.688-3.96-10.296C51.148,70.971,55.108,68.019,58.637,69.027L58.637,69.027z M12.125,65.427
		c3.528-0.072,6.408,3.528,6.48,8.136c0.144,4.536-2.592,8.28-6.12,8.352c-3.456,0.072-6.336-3.6-6.408-8.136
		C5.933,69.243,8.668,65.499,12.125,65.427L12.125,65.427z M24.437,9.195c0,0,24.984,0.792,26.352,1.008
		c5.184,0.72,3.672,8.496-1.368,8.928c0,0-25.56-1.368-26.208-1.368C19.108,17.763,20.333,9.195,24.437,9.195z"/>
	<path fill-rule="evenodd" clip-rule="evenodd" fill="none" stroke="#000000" stroke-width="1.4173" stroke-linecap="round" d="
		M166.853,61.899c5.04,0.576,8.424,6.264,7.632,12.6c-0.792,6.336-5.544,11.088-10.584,10.512c-4.968-0.576-8.352-6.264-7.56-12.6
		S161.884,61.323,166.853,61.899L166.853,61.899z M166.061,68.091c2.376,0.288,3.96,2.88,3.528,5.832
		c-0.36,2.952-2.52,5.184-4.896,4.896c-2.304-0.288-3.888-2.88-3.528-5.832C161.597,70.035,163.756,67.803,166.061,68.091z"/>
	<path fill-rule="evenodd" clip-rule="evenodd" fill="none" stroke="#000000" stroke-width="1.4173" stroke-linecap="round" d="
		M89.813,84.146c2.304,0,4.176,2.232,4.176,4.968s-1.872,4.968-4.176,4.968c-2.232,0-4.104-2.232-4.104-4.968
		S87.581,84.146,89.813,84.146z"/>
	<path fill-rule="evenodd" clip-rule="evenodd" fill="none" stroke="#000000" stroke-width="1.4173" stroke-linecap="round" d="
		M166.061,68.091c2.376,0.288,3.96,2.88,3.528,5.832c-0.36,2.952-2.52,5.184-4.896,4.896c-2.304-0.288-3.888-2.88-3.528-5.832
		C161.597,70.035,163.756,67.803,166.061,68.091z"/>
	<path fill-rule="evenodd" clip-rule="evenodd" fill="none" stroke="#000000" stroke-width="1.4173" stroke-linecap="round" d="
		M5.068,87.819l-0.36-3.6c0,0-3.744,1.656-3.888,2.664c-0.144,0.936-0.216,5.256,0.216,5.76c0.504,0.576,64.584,6.984,67.32,6.192
		c2.664-0.792,5.688-2.448,5.688-3.456c0-1.008-0.144-5.904-1.368-5.904c-1.152,0-4.968,2.16-6.264,2.16
		C65.188,91.635,5.86,88.035,5.068,87.819z"/>
	<path fill-rule="evenodd" clip-rule="evenodd" fill="none" stroke="#000000" stroke-width="1.4173" stroke-linecap="round" d="
		M20.261,66.579c0,0,0.864,17.568,1.224,17.856c0.36,0.36,22.464,2.448,22.752,2.016c0.36-0.36,0.792-17.712,0.648-18.072
		C44.741,68.091,20.404,66.291,20.261,66.579z"/>
	<path fill-rule="evenodd" clip-rule="evenodd" fill="none" stroke="#000000" stroke-width="1.4173" stroke-linecap="round" d="
		M4.42,58.443c0,0,62.208,4.824,63.072,4.608"/>
	<path fill-rule="evenodd" clip-rule="evenodd" fill="none" stroke="#000000" stroke-width="1.4173" stroke-linecap="round" d="
		M24.437,9.195c0,0,24.984,0.792,26.352,1.008c5.184,0.72,3.672,8.496-1.368,8.928c0,0-25.56-1.368-26.208-1.368
		C19.108,17.763,20.333,9.195,24.437,9.195z"/>
	<path fill-rule="evenodd" clip-rule="evenodd" fill="none" stroke="#000000" stroke-width="1.4173" stroke-linecap="round" d="
		M34.805,20.715c0,0-0.792,33.336-0.72,34.272"/>
	<path fill-rule="evenodd" clip-rule="evenodd" fill="none" stroke="#000000" stroke-width="1.4173" stroke-linecap="round" d="
		M16.588,53.835l21.24,1.512c0,0-1.08-8.856,0.36-12.96c1.368-4.104,2.88-5.544,2.88-6.552c-0.072-1.008-1.08-4.248-2.088-4.536
		c-0.936-0.36-18.576-1.08-19.872-0.504c-0.864,0.432-3.528,5.472-3.888,12.24C15.004,46.491,15.508,50.667,16.588,53.835z"/>
	<path fill-rule="evenodd" clip-rule="evenodd" fill="none" stroke="#000000" stroke-width="1.4173" stroke-linecap="round" d="
		M37.541,32.883c0,0-5.616,10.944-5.04,19.8"/>
	<path fill-rule="evenodd" clip-rule="evenodd" fill="none" stroke="#000000" stroke-width="1.4173" stroke-linecap="round" d="
		M88.084,101.931c-4.104-0.72-6.624-3.96-7.92-9.072l-5.976,1.512c0,0,1.728,6.12,4.752,7.128
		C81.964,102.435,88.084,101.931,88.084,101.931z"/>
	<path fill-rule="evenodd" clip-rule="evenodd" fill="none" stroke="#000000" stroke-width="1.4173" stroke-linecap="round" d="
		M164.261,85.083c-4.32-0.576-6.84-3.816-8.208-9.072l-7.056,1.296c0,0,2.16,4.968,6.264,6.84
		C159.437,86.019,164.261,85.083,164.261,85.083z"/>
	<path fill-rule="evenodd" clip-rule="evenodd" fill="none" stroke="#000000" stroke-width="1.4173" stroke-linecap="round" d="
		M193.997,41.451c0.576,0.072,1.152,0.144,1.728,0.144"/>
	<path fill-rule="evenodd" clip-rule="evenodd" fill="none" stroke="#000000" stroke-width="1.4173" stroke-linecap="round" d="
		M65.909,12.507c0,0,46.224-12.672,94.752-5.112"/>
	<path fill-rule="evenodd" clip-rule="evenodd" fill="none" stroke="#000000" stroke-width="1.4173" stroke-linecap="round" d="
		M105.364,86.235c0,0,24.696-35.352,52.272-44.208"/>
	<path fill-rule="evenodd" clip-rule="evenodd" fill="none" stroke="#000000" stroke-width="1.4173" stroke-linecap="round" d="
		M135.245,79.539c2.88-3.024,24.264-24.624,60.048-30.6"/>
	<path fill-rule="evenodd" clip-rule="evenodd" fill="none" stroke="#000000" stroke-width="1.4173" stroke-linecap="round" d="
		M89.597,18.411c0,0-0.36,35.856-0.144,37.008"/>
	<path fill-rule="evenodd" clip-rule="evenodd" fill="none" stroke="#000000" stroke-width="1.4173" stroke-linecap="round" d="
		M109.612,15.963c0,0-0.864,33.624-0.648,34.2"/>
	<path fill-rule="evenodd" clip-rule="evenodd" fill="none" stroke="#000000" stroke-width="1.4173" stroke-linecap="round" d="
		M127.325,14.595c0,0-1.728,31.176-1.728,31.896"/>
	<path fill-rule="evenodd" clip-rule="evenodd" fill="none" stroke="#000000" stroke-width="1.4173" stroke-linecap="round" d="
		M144.389,13.731c0,0-1.872,29.016-1.872,29.736"/>
	<path fill-rule="evenodd" clip-rule="evenodd" fill="none" stroke="#000000" stroke-width="1.4173" stroke-linecap="round" d="
		M159.437,13.947c0,0-2.304,27.144-2.304,27.864"/>
	<path fill-rule="evenodd" clip-rule="evenodd" fill="none" stroke="#000000" stroke-width="1.4173" stroke-linecap="round" d="
		M172.541,14.595c0,0-2.448,25.776-2.448,26.352"/>
	<path fill-rule="evenodd" clip-rule="evenodd" fill="none" stroke="#000000" stroke-width="1.4173" stroke-linecap="round" d="
		M185.86,15.963c0,0.288-2.52,24.552-2.52,24.552"/>
	<path fill-rule="evenodd" clip-rule="evenodd" fill="none" stroke="#000000" stroke-width="1.4173" stroke-linecap="round" d="
		M41.933,97.035l-12.312-1.08C30.988,101.211,39.628,101.859,41.933,97.035z"/>
	<path fill-rule="evenodd" clip-rule="evenodd" fill="none" stroke="#000000" stroke-width="1.4173" stroke-linecap="round" d="
		M35.813,100.347c-3.528-0.144-5.328-1.944-6.336-4.464l-9.216-0.936C20.261,94.947,22.924,102.363,35.813,100.347z"/>
	<path fill-rule="evenodd" clip-rule="evenodd" fill="none" stroke="#000000" stroke-width="1.4173" stroke-linecap="round" d="
		M90.245,76.587c5.04,0.36,8.568,6.408,8.064,13.392c-0.576,6.984-5.112,12.384-10.152,11.952c-5.04-0.432-8.64-6.48-8.064-13.464
		C80.668,81.483,85.276,76.155,90.245,76.587L90.245,76.587z M89.813,84.146c2.304,0,4.176,2.232,4.176,4.968
		s-1.872,4.968-4.176,4.968c-2.232,0-4.104-2.232-4.104-4.968S87.581,84.146,89.813,84.146z"/>
	<path fill-rule="evenodd" clip-rule="evenodd" fill="none" stroke="#000000" stroke-width="1.4173" stroke-linecap="round" d="
		M17.813,7.179c4.968-0.864,41.976-0.576,46.944,4.176c4.176,3.96,4.248,10.08,4.104,15.264l-2.16,64.656"/>
	<g>
		<path fill-rule="evenodd" clip-rule="evenodd" fill="#939598" d="M26.38,54.267l-2.952-0.072v0.216l4.536,0.36
			c0.072-0.144,0.216-0.936,0.288-2.016v-1.296c-0.144-2.376-1.08-5.472-4.824-6.696v2.376c0.504,0.216,1.008,0.576,1.368,0.936
			l-1.368,1.8v2.664l2.448-3.024C26.813,51.458,26.524,53.691,26.38,54.267z M23.429,54.195h-1.296l1.296-1.656v-2.664l-3.024,4.032
			l-0.72,0.144l-2.16-6.768v5.688l0.288,0.792h-0.288v0.144l5.904,0.504V54.195L23.429,54.195z M23.429,44.763v2.376
			c-1.728-0.936-4.032-1.152-5.904-0.792v-1.944c0.792-0.144,1.728-0.216,2.664-0.216C21.484,44.259,22.564,44.475,23.429,44.763z
			 M17.524,44.403v1.944c-0.072,0-0.144,0-0.288,0.072l0.288,0.864v5.688c-0.576-1.584-2.088-5.544-2.088-5.832
			c-2.88,2.088-2.88,6.336-2.88,6.336l4.968,0.288v0.144l-6.408-0.504C11.117,53.403,10.325,45.627,17.524,44.403z"/>
		<path fill-rule="evenodd" clip-rule="evenodd" fill="none" stroke="#000000" stroke-width="1.4173" stroke-linecap="round" d="
			M26.38,54.267l-4.248-0.072l3.744-4.68C26.813,51.458,26.524,53.691,26.38,54.267L26.38,54.267z M19.685,54.051l0.72-0.144
			l4.392-5.832c-1.8-1.728-5.112-2.232-7.56-1.656L19.685,54.051L19.685,54.051z M27.964,54.771l-16.848-1.368
			c0,0-1.008-9.576,9.072-9.216C30.34,44.547,28.108,54.411,27.964,54.771L27.964,54.771z M12.557,53.475l5.256,0.288
			c0,0-2.376-6.264-2.376-6.624C12.557,49.227,12.557,53.475,12.557,53.475z"/>
	</g>
	<path fill-rule="evenodd" clip-rule="evenodd" fill="none" stroke="#000000" stroke-width="1.4173" stroke-linecap="round" d="
		M58.637,69.027c3.528,1.08,5.328,5.688,3.96,10.296c-1.368,4.68-5.328,7.56-8.856,6.552c-3.6-1.08-5.328-5.688-3.96-10.296
		C51.148,70.971,55.108,68.019,58.637,69.027L58.637,69.027z M12.125,65.427c3.528-0.072,6.408,3.528,6.48,8.136
		c0.144,4.536-2.592,8.28-6.12,8.352c-3.456,0.072-6.336-3.6-6.408-8.136C5.933,69.243,8.668,65.499,12.125,65.427z"/>
	<path fill-rule="evenodd" clip-rule="evenodd" fill="none" stroke="#000000" stroke-width="1.4173" stroke-linecap="round" d="
		M68.86,21.867l0.072,1.296l-1.08,39.672c0,0,64.944-25.704,126.144-21.384c0.072-1.152,1.224-24.048,1.224-24.048
		C142.661,7.395,74.044,20.859,68.86,21.867z"/>
	<path fill-rule="evenodd" clip-rule="evenodd" fill="none" stroke="#000000" stroke-width="1.4173" stroke-linecap="round" d="
		M4.349,52.971c0-10.8-0.216-21.888,0.72-32.832c0,0,46.224-0.36,63.72,3.528c0.216,1.512-1.008,33.768-1.008,33.768
		C66.845,57.579,4.349,52.971,4.349,52.971z"/>
	<path fill-rule="evenodd" clip-rule="evenodd" fill="none" stroke="#000000" stroke-width="1.4173" stroke-linecap="round" d="
		M48.413,76.155c0,0,11.376,0.432,14.328,2.376 M5.716,72.843c0,0,11.448-0.72,12.456-1.296"/>
</g>
</svg>
