<?xml version="1.0" encoding="utf-8"?>
<!-- Generator: Adobe Illustrator 13.0.0, SVG Export Plug-In . SVG Version: 6.00 Build 14948)  -->
<!DOCTYPE svg PUBLIC "-//W3C//DTD SVG 1.1//EN" "http://www.w3.org/Graphics/SVG/1.1/DTD/svg11.dtd">
<svg version="1.1" id="Layer_1" xmlns="http://www.w3.org/2000/svg" xmlns:xlink="http://www.w3.org/1999/xlink" x="0px" y="0px"
	 width="206.065px" height="199.76px" viewBox="0 0 206.065 199.76" enable-background="new 0 0 206.065 199.76"
	 xml:space="preserve">
<g>
	<path fill-rule="evenodd" clip-rule="evenodd" fill="none" stroke="#000000" stroke-width="1.4173" stroke-linecap="round" d="
		M88.031,67.451l-3.744,5.976c-0.216,0.36-0.432,0.72-0.576,1.08c-5.904,10.8-7.704,22.248-7.704,22.248
		c2.448-1.728,5.256-3.096,8.352-4.176c0.072,8.064,1.296,23.832,10.368,30.6c12.312,9.216,24.408,12.96,27.072,17.064
		c0-0.288-0.072-3.528,0.072-5.112c0.072-0.936,0.072-0.576,0.432-0.072c1.656,2.304,7.704,7.2,7.488,6.624
		c-0.216-0.504,0.216-5.04,0.36-6.624c0.072-0.576,0.072-0.504,0.216,0.072c0.36,1.224,1.584,4.464,2.088,4.536
		c0.576,0.072,6.624-6.84,7.128-6.264c0.432,0.432-0.648,3.096-1.224,4.392c-0.792,1.728,7.488-4.176,10.152-3.528
		c5.472-5.4,15.48-8.208,20.736-13.752c3.672-3.816,6.84-9,9.144-13.248c0,0,2.016,2.304,4.392,5.976
		c4.176-8.568,4.392-18.288,2.736-27c15.624-7.272,19.8-28.728,19.8-28.728s-2.52-4.32-8.28-6.192
		c-5.76-1.872-13.608-1.872-13.608-1.872c0.648-2.736-0.072-5.184-0.072-5.184s-0.36,0.36-1.08,1.584
		c-0.792,1.224-3.096,2.088-7.416,3.888c-4.392,1.8-5.544,5.04-5.544,5.04c-14.904-9.432-35.28-13.32-52.056-7.632
		c0,0,0.792-3.528-1.872-6.912c-2.736-3.384-3.96-7.344-3.96-7.344s-2.088,2.16-2.376,3.456c-0.288,1.224-0.504,2.52-0.504,2.52
		s-10.008-4.968-13.32-5.328c-3.24-0.36-4.824-0.36-4.824-0.36S77.23,44.987,88.031,67.451L88.031,67.451z M88.463,67.307
		l-4.176,6.12C85.511,71.339,86.878,69.25,88.463,67.307z"/>
	<path fill-rule="evenodd" clip-rule="evenodd" fill="none" stroke="#000000" stroke-width="1.4173" stroke-linecap="round" d="
		M130.943,44.411c-4.68,0.36-9.216,1.296-13.752,2.736c0,0,0.864-3.528-1.8-6.912c-2.736-3.384-3.96-7.344-3.96-7.344
		s-2.088,2.16-2.376,3.456c-0.288,1.224-0.504,2.52-0.504,2.52s-6.84-3.384-11.088-4.752c1.224-1.44,2.376-3.168,2.736-4.824
		c3.096-13.104-13.176-16.128-13.176-16.128c10.8-16.704,31.032-5.04,31.032-5.04c-0.072-0.216-1.368-5.112-0.432-7.128
		c0,0,20.88,11.808,20.088,24.48C136.991,38.146,133.75,40.811,130.943,44.411L130.943,44.411z M84.215,73.354
		c1.224-1.944,2.52-3.888,3.888-5.832c-4.176-7.848-5.256-16.632-3.24-25.344c-6.336,2.52-13.536,4.248-19.44,5.112
		c-15.84,2.376-51.12,2.88-54.72,25.56c-0.936-8.352-9.576-10.368-9.576-10.368c6.048,16.2-1.512,21.672,1.296,38.16
		c2.88,16.632,22.104,28.512,22.32,25.704c-0.072-19.944,23.256-36.288,23.256-36.288c-4.032-1.368-8.064-3.6-8.064-8.496
		c0,0,12.24,2.16,19.944-2.592C67.583,74.219,80.398,71.626,84.215,73.354z"/>
	<path fill-rule="evenodd" clip-rule="evenodd" fill="none" stroke="#000000" stroke-width="1.4173" stroke-linecap="round" d="
		M84.431,185.099c-3.384-10.296-5.184-21.672-5.328-34.128c-4.176-6.192-6.12-12.168-6.12-12.168
		c-1.152,2.592-1.224,12.456-1.224,12.456l-0.072-0.144c-10.584-10.44-5.976-30.384-5.976-30.384l-6.768,4.104
		c1.152-8.856,6.336-20.952,16.992-28.08c0,0,0,0,0-0.072c0.216-1.008,2.304-12.744,8.352-23.256c-0.288-0.144-0.72-0.288-1.08-0.36
		c-4.608-1.08-16.2,1.512-23.328,5.904c-7.704,4.752-19.944,2.592-19.944,2.592s0,2.304,1.584,4.68
		c1.152,1.8,4.608,3.168,6.408,3.816c0,0-0.072,0.216-0.144,0.216c-1.368,1.08-24.192,18.144-23.04,36.072
		c1.152,18.504,6.192,33.264,0.936,40.68c3.888-0.072,6.84-5.04,7.344-5.4c0.36,2.016,1.512,6.336,5.688,14.112
		c6.192,11.52,16.416,15.12,17.568,15.12c0.504,0,1.152-0.36,1.728-1.152c2.736,1.872,7.776,0.648,10.368-1.872
		c0.648,0.072,5.184,0.216,6.84-3.888C78.383,187.69,84.791,186.179,84.431,185.099z"/>
	<path fill-rule="evenodd" clip-rule="evenodd" fill="none" stroke="#000000" stroke-width="1.4173" stroke-linecap="round" d="
		M162.119,158.243v0.072c0,0-0.936,3.6-3.456,7.416c-2.592,3.816-6.264,10.512-6.336,15.912c1.728,0.792,4.104,2.592,3.672,6.48
		c-0.72,6.192-7.056,8.712-9.144,8.064c-2.808,4.824-11.52,2.304-11.88,1.368c-0.72,0.72-1.728,1.224-3.024,1.296
		c-6.984,0.504-9.648-3.528-9.36-15.408c0.288-11.88,14.616-17.424,29.304-21.456C156.143,160.834,159.527,159.539,162.119,158.243z
		"/>
	<path fill-rule="evenodd" clip-rule="evenodd" fill="none" stroke="#000000" stroke-width="1.4173" stroke-linecap="round" d="
		M71.759,151.259l-0.072-0.144c-10.584-10.44-5.976-30.384-5.976-30.384l-6.768,4.104c1.44-10.944,8.928-26.712,25.416-32.256
		c0.072,8.064,1.296,23.832,10.368,30.6c12.312,9.216,24.408,12.96,27.072,17.064c0-0.288-0.072-3.528,0.072-5.112
		c0.072-0.936,0.072-0.576,0.432-0.072c1.656,2.304,7.704,7.2,7.488,6.624c-0.216-0.504,0.216-5.04,0.36-6.624
		c0.072-0.576,0.072-0.504,0.216,0.072c0.36,1.224,1.584,4.464,2.088,4.536c0.576,0.072,6.624-6.84,7.128-6.264
		c0.432,0.432-0.648,3.096-1.224,4.392c-0.792,1.728,7.488-4.176,10.152-3.528c5.472-5.4,15.48-8.208,20.736-13.752
		c3.672-3.816,6.84-9,9.144-13.248c0,0,13.176,15.12,13.104,31.104c0,0-5.328-1.656-6.048-3.456
		c-0.504,1.368-5.688,23.184-19.368,29.232c-0.432-2.88,1.728-9.432,1.728-9.432c-2.52,2.016-7.344,4.968-15.912,7.272
		c-14.688,4.032-29.016,9.576-29.304,21.456c-0.576,0.648-3.672,0-3.816-0.072c-0.576-5.688-6.336-7.776-6.336-7.776
		c-2.808-5.112-9.936-7.2-21.96-13.68s-17.496-23.112-17.496-23.112C71.831,141.395,71.759,151.259,71.759,151.259z"/>
	<path fill-rule="evenodd" clip-rule="evenodd" fill="none" stroke="#000000" stroke-width="1.4173" stroke-linecap="round" d="
		M79.247,151.187l-0.144-0.216c2.736,4.104,6.552,8.352,11.376,10.944c12.024,6.48,19.152,8.568,21.96,13.68
		c0,0,5.76,2.088,6.336,7.776c0.072,0.576,0.072,1.224,0,1.944c-0.648,7.128-7.632,7.344-7.632,7.344
		c-0.072,0.072-0.72,0.864-0.864,0.936c-2.52,3.312-7.56,1.656-8.712,1.152c-0.144,0-0.504-0.288-0.504-0.288
		c-3.6,3.096-11.16,3.672-16.2-8.64C79.175,171.851,79.247,151.187,79.247,151.187z"/>
	<path fill-rule="evenodd" clip-rule="evenodd" fill="none" stroke="#000000" stroke-width="1.4173" stroke-linecap="round" d="
		M147.863,101.651c3.888,0,7.056-3.024,7.056-6.768c0-3.816-3.168-6.84-7.056-6.84c-3.816,0-6.984,3.024-6.984,6.84
		C140.878,98.626,144.047,101.651,147.863,101.651z"/>
	<path fill-rule="evenodd" clip-rule="evenodd" fill="none" stroke="#000000" stroke-width="1.4173" stroke-linecap="round" d="
		M146.927,98.626c2.664,0,4.896-2.304,4.896-5.112c0-2.88-2.232-5.184-4.896-5.184s-4.896,2.304-4.896,5.184
		C142.031,96.323,144.263,98.626,146.927,98.626z"/>
	<path fill-rule="evenodd" clip-rule="evenodd" fill="none" stroke="#000000" stroke-width="1.4173" stroke-linecap="round" d="
		M146.279,94.595c0.864,0,1.584-0.792,1.584-1.728c0-1.008-0.72-1.728-1.584-1.728c-0.936,0-1.656,0.72-1.656,1.728
		C144.623,93.803,145.343,94.595,146.279,94.595z"/>
	<path fill-rule="evenodd" clip-rule="evenodd" fill="none" stroke="#000000" stroke-width="1.4173" stroke-linecap="round" d="
		M122.591,87.611c1.944,3.384,0.792,7.632-2.448,9.504c-3.312,1.872-7.488,0.648-9.432-2.664c-1.944-3.384-0.792-7.632,2.448-9.504
		C116.471,83.075,120.646,84.299,122.591,87.611z"/>
	<path fill-rule="evenodd" clip-rule="evenodd" fill="none" stroke="#000000" stroke-width="1.4173" stroke-linecap="round" d="
		M121.799,86.962c1.368,2.304,0.432,5.4-2.016,6.768c-2.52,1.44-5.544,0.72-6.912-1.656c-1.296-2.304-0.432-5.4,2.088-6.768
		C117.407,83.867,120.502,84.659,121.799,86.962z"/>
	<path fill-rule="evenodd" clip-rule="evenodd" fill="none" stroke="#000000" stroke-width="1.4173" stroke-linecap="round" d="
		M117.119,90.707c0.936,0,1.656-0.72,1.656-1.728c0-0.936-0.72-1.728-1.656-1.728c-0.864,0-1.584,0.792-1.584,1.728
		C115.535,89.987,116.255,90.707,117.119,90.707z"/>
	<path fill-rule="evenodd" clip-rule="evenodd" fill="none" stroke="#000000" stroke-width="1.4173" stroke-linecap="round" d="
		M129.719,106.403c0,0-4.248-2.88-3.6-4.608c0.648-1.8,4.104-2.376,6.408-1.8c2.376,0.648,3.24,2.448,2.592,3.672
		C134.398,104.891,130.583,107.123,129.719,106.403z"/>
	<path fill-rule="evenodd" clip-rule="evenodd" fill="none" stroke="#000000" stroke-width="1.4173" stroke-linecap="round" d="
		M116.687,106.331c0.144,0.864,1.08,4.32,6.264,4.464c4.32,0.144,6.48-2.808,7.056-3.744c0.288-0.432,0.144-0.36,0.36,0.072
		c0.504,1.08,2.304,3.888,6.264,4.464c4.824,0.72,5.688-1.368,5.688-1.368"/>
	<path fill-rule="evenodd" clip-rule="evenodd" fill="none" stroke="#000000" stroke-width="1.4173" stroke-linecap="round" d="
		M100.703,57.586c0-0.432,0.216-4.104-0.648-6.264c-0.864-2.088-2.304-4.176-2.304-4.176s4.464,0.144,5.184,0.144
		c0.72,0,2.088,0,2.088,0s-8.064-7.992-11.016-8.064c-3.024-0.072-7.992,13.824-2.592,24.624"/>
	<path fill-rule="evenodd" clip-rule="evenodd" fill="none" stroke="#000000" stroke-width="1.4173" stroke-linecap="round" d="
		M113.951,48.371c1.08-0.432,2.16-0.864,3.312-1.224"/>
	<path fill-rule="evenodd" clip-rule="evenodd" fill="none" stroke="#000000" stroke-width="1.4173" stroke-linecap="round" d="
		M183.431,49.451c-0.216,0.792-0.504,1.584-1.008,2.304"/>
	<path fill-rule="evenodd" clip-rule="evenodd" fill="none" stroke="#000000" stroke-width="1.4173" stroke-linecap="round" d="
		M180.407,68.891c0,0,3.6-4.608,5.4-5.832c1.728-1.224,3.312-1.728,3.312-1.728s-3.96-3.6-9.864-2.304"/>
	<path fill-rule="evenodd" clip-rule="evenodd" fill="none" stroke="#000000" stroke-width="1.4173" stroke-linecap="round" d="
		M184.583,79.546c0,0,8.352-5.616,11.664-11.88c3.312-6.264,2.88-9.288,2.592-9.504c-0.36-0.144-10.296-6.12-19.512,0.864"/>
	<path fill-rule="evenodd" clip-rule="evenodd" fill="none" stroke="#000000" stroke-width="1.4173" stroke-linecap="round" d="
		M176.015,60.898c0,0,6.768,11.376,9.432,25.272"/>
	<path fill-rule="evenodd" clip-rule="evenodd" fill="none" stroke="#000000" stroke-width="1.4173" stroke-linecap="round" d="
		M148.511,134.267c-1.152,1.08-2.088,2.304-2.736,3.744"/>
	<path fill-rule="evenodd" clip-rule="evenodd" fill="none" stroke="#000000" stroke-width="1.4173" stroke-linecap="round" d="
		M84.575,87.611c0,0-0.216,1.944-0.216,4.968"/>
	<path fill-rule="evenodd" clip-rule="evenodd" fill="none" stroke="#000000" stroke-width="1.4173" stroke-linecap="round" d="
		M99.119,181.931c0.072,1.368,5.688,7.344,3.096,11.232c-0.288,0.504-0.72,0.936-1.152,1.296"/>
	<path fill-rule="evenodd" clip-rule="evenodd" fill="none" stroke="#000000" stroke-width="1.4173" stroke-linecap="round" d="
		M111.215,181.643c0,0.72,2.16,7.344-0.648,11.592"/>
	<path fill-rule="evenodd" clip-rule="evenodd" fill="none" stroke="#000000" stroke-width="1.4173" stroke-linecap="round" d="
		M44.975,155.075c0,0,12.024,18.144,36.504,18.864"/>
	<path fill-rule="evenodd" clip-rule="evenodd" fill="none" stroke="#000000" stroke-width="1.4173" stroke-linecap="round" d="
		M33.022,161.626c-0.144-0.936-0.144-1.368-0.144-1.368"/>
	<path fill-rule="evenodd" clip-rule="evenodd" fill="none" stroke="#000000" stroke-width="1.4173" stroke-linecap="round" d="
		M64.415,177.25c0,0,5.976,3.816,5.544,7.848c-0.144,1.008-0.72,1.944-1.584,2.736"/>
	<path fill-rule="evenodd" clip-rule="evenodd" fill="none" stroke="#000000" stroke-width="1.4173" stroke-linecap="round" d="
		M72.407,172.858c0,0,4.464,4.608,3.168,9.936c-0.072,0.432-0.216,0.792-0.36,1.152"/>
	<path fill-rule="evenodd" clip-rule="evenodd" fill="none" stroke="#000000" stroke-width="1.4173" stroke-linecap="round" d="
		M170.255,152.267c0,0-0.648,1.008-2.448,2.448"/>
	<path fill-rule="evenodd" clip-rule="evenodd" fill="none" stroke="#000000" stroke-width="1.4173" stroke-linecap="round" d="
		M143.542,184.451c0,0,5.832,3.672,3.888,10.296c-0.144,0.504-0.288,1.008-0.576,1.44"/>
	<path fill-rule="evenodd" clip-rule="evenodd" fill="none" stroke="#000000" stroke-width="1.4173" stroke-linecap="round" d="
		M150.455,181.066c0,0,0.792,0.072,1.872,0.576"/>
	<path fill-rule="evenodd" clip-rule="evenodd" fill="none" stroke="#000000" stroke-width="1.4173" stroke-linecap="round" d="
		M158.951,133.834c0,0-8.928,9.936-17.352,14.472s-21.312,11.016-22.68,14.976"/>
	<path fill-rule="evenodd" clip-rule="evenodd" fill="none" stroke="#000000" stroke-width="1.4173" stroke-linecap="round" d="
		M81.263,137.146c0.144,1.224,14.184,17.208,19.656,19.152"/>
	<path fill-rule="evenodd" clip-rule="evenodd" fill="none" stroke="#000000" stroke-width="1.4173" stroke-linecap="round" d="
		M48.791,150.467c0,0,11.952,8.136,27.216,5.832"/>
	<path fill-rule="evenodd" clip-rule="evenodd" fill="none" stroke="#000000" stroke-width="1.4173" stroke-linecap="round" d="
		M182.423,99.707c-0.216,0.144-1.728,3.384-4.032,7.56"/>
	<path fill-rule="evenodd" clip-rule="evenodd" fill="none" stroke="#000000" stroke-width="1.4173" stroke-linecap="round" d="
		M133.606,185.099c2.664,1.296,4.464,9.288,1.368,12.456"/>
	<path fill-rule="evenodd" clip-rule="evenodd" fill="none" stroke="#000000" stroke-width="1.4173" stroke-linecap="round" d="
		M58.007,189.707c0.72-0.936,1.44-2.448,1.656-4.68c0.432-4.032-4.464-8.136-4.464-8.424"/>
	<path fill-rule="evenodd" clip-rule="evenodd" fill="none" stroke="#000000" stroke-width="1.4173" stroke-linecap="round" d="
		M88.463,67.307c3.672-4.608,8.28-8.352,14.112-10.08"/>
	<path fill-rule="evenodd" clip-rule="evenodd" fill="none" stroke="#000000" stroke-width="1.4173" stroke-linecap="round" d="
		M169.319,54.779c0.936,0.576,1.872,1.224,2.808,1.872"/>
</g>
</svg>
