<?xml version="1.0" encoding="utf-8"?>
<!-- Generator: Adobe Illustrator 13.0.0, SVG Export Plug-In . SVG Version: 6.00 Build 14948)  -->
<!DOCTYPE svg PUBLIC "-//W3C//DTD SVG 1.1//EN" "http://www.w3.org/Graphics/SVG/1.1/DTD/svg11.dtd">
<svg version="1.1" id="Layer_1" xmlns="http://www.w3.org/2000/svg" xmlns:xlink="http://www.w3.org/1999/xlink" x="0px" y="0px"
	 width="164.589px" height="203.797px" viewBox="0 0 164.589 203.797" enable-background="new 0 0 164.589 203.797"
	 xml:space="preserve">
<g>
	<path fill-rule="evenodd" clip-rule="evenodd" fill="none" stroke="#000000" stroke-width="1.4173" stroke-linecap="round" d="
		M103.307,42.934c13.536-6.336,19.656,6.984,4.176,10.944C94.523,57.19,90.779,48.91,103.307,42.934z"/>
	<path fill-rule="evenodd" clip-rule="evenodd" fill="none" stroke="#000000" stroke-width="1.4173" stroke-linecap="round" d="
		M94.955,65.83c8.568,4.608,31.896-4.32,31.608-15.12"/>
	<path fill-rule="evenodd" clip-rule="evenodd" fill="none" stroke="#000000" stroke-width="1.4173" stroke-linecap="round" d="
		M97.331,62.59c-0.36,0.72-3.744,2.808-2.304,6.48"/>
	<path fill-rule="evenodd" clip-rule="evenodd" fill="none" stroke="#000000" stroke-width="1.4173" stroke-linecap="round" d="
		M82.283,45.166c0,0-8.136,7.704-6.768,17.568c1.368,9.936,18.792,25.56,42.048,17.208c23.256-8.424,22.104-31.248,16.488-39.6
		c-5.616-8.352-15.624-7.128-15.624-7.128"/>
	<path fill-rule="evenodd" clip-rule="evenodd" fill="none" stroke="#000000" stroke-width="1.4173" stroke-linecap="round" d="
		M89.195,23.566c4.68,0.504,8.064,5.4,7.488,10.944c-0.576,5.616-4.824,9.72-9.576,9.288c-4.68-0.504-7.992-5.4-7.488-11.016
		C80.195,27.238,84.443,23.062,89.195,23.566z"/>
	<path fill-rule="evenodd" clip-rule="evenodd" fill="none" stroke="#000000" stroke-width="1.4173" stroke-linecap="round" d="
		M91.499,29.326c2.592,1.08,3.6,4.392,2.304,7.416c-1.296,2.952-4.392,4.536-6.912,3.384c-2.592-1.08-3.6-4.392-2.304-7.344
		C85.883,29.758,88.979,28.246,91.499,29.326z"/>
	<path fill-rule="evenodd" clip-rule="evenodd" fill="none" stroke="#000000" stroke-width="1.4173" stroke-linecap="round" d="
		M89.771,33.358c0.72,0.288,0.936,1.152,0.648,1.872c-0.36,0.792-1.152,1.224-1.8,0.936c-0.72-0.288-0.936-1.152-0.648-1.944
		C88.331,33.43,89.123,33.07,89.771,33.358z"/>
	<path fill-rule="evenodd" clip-rule="evenodd" fill="none" stroke="#000000" stroke-width="1.4173" stroke-linecap="round" d="
		M109.283,23.422c2.808,0.216,4.752,2.664,4.464,5.472c-0.288,2.808-2.736,4.968-5.472,4.752c-2.736-0.216-4.752-2.664-4.464-5.472
		C104.099,25.366,106.547,23.206,109.283,23.422z"/>
	<path fill-rule="evenodd" clip-rule="evenodd" fill="none" stroke="#000000" stroke-width="1.4173" stroke-linecap="round" d="
		M108.923,27.238c0.72,0,1.224,0.648,1.152,1.368c-0.072,0.72-0.72,1.296-1.44,1.224c-0.72-0.072-1.224-0.648-1.152-1.368
		C107.555,27.67,108.203,27.166,108.923,27.238z"/>
	<path fill-rule="evenodd" clip-rule="evenodd" fill="none" stroke="#000000" stroke-width="1.4173" stroke-linecap="round" d="
		M105.179,17.086c4.464-1.656,9.72,1.152,11.736,6.408c1.944,5.256,0,10.872-4.392,12.6c-4.464,1.656-9.72-1.224-11.736-6.408
		C98.771,24.43,100.787,18.814,105.179,17.086z"/>
	<path fill-rule="evenodd" clip-rule="evenodd" fill="none" stroke="#000000" stroke-width="1.4173" stroke-linecap="round" d="
		M95.387,8.014c0,0,0.36-6.264,6.48-7.2s7.56,4.68,7.56,4.68"/>
	<path fill-rule="evenodd" clip-rule="evenodd" fill="none" stroke="#000000" stroke-width="1.4173" stroke-linecap="round" d="
		M76.595,18.022c0,0,0.648-7.56,4.752-8.424c3.96-0.864,6.12,0.288,6.12,0.288"/>
	<path fill-rule="evenodd" clip-rule="evenodd" fill="none" stroke="#000000" stroke-width="1.4173" stroke-linecap="round" d="
		M95.603,5.998c-0.216,0.144-6.48,0.072-8.856,3.6"/>
	<path fill-rule="evenodd" clip-rule="evenodd" fill="none" stroke="#000000" stroke-width="1.4173" stroke-linecap="round" d="
		M111.587,7.582c9,5.832,11.376,18.72,16.56,27.432"/>
	<path fill-rule="evenodd" clip-rule="evenodd" fill="none" stroke="#000000" stroke-width="1.4173" stroke-linecap="round" d="
		M75.587,27.094c0,0.432,2.232,12.456,2.232,24.12"/>
	<path fill-rule="evenodd" clip-rule="evenodd" fill="none" stroke="#000000" stroke-width="1.4173" stroke-linecap="round" d="
		M108.275,2.974c0,0,7.776,1.512,14.544,9.36c6.696,7.776,16.056,15.624,25.92,23.544c9.864,7.92,19.512,15.48,12.888,25.488
		c-6.192,9.36-17.28,6.48-24.264-5.256"/>
	<path fill-rule="evenodd" clip-rule="evenodd" fill="none" stroke="#000000" stroke-width="1.4173" stroke-linecap="round" d="
		M76.811,16.438c-1.44,3.024-4.248,9.144-5.04,11.304c-1.08,2.808-3.888,10.08-6.84,14.4c-2.952,4.32-17.568,22.464-14.616,35.496
		c2.88,13.032,13.968,11.52,21.096,0.504c2.664-3.96,4.176-8.352,5.04-12.24"/>
	<path fill-rule="evenodd" clip-rule="evenodd" fill="none" stroke="#000000" stroke-width="1.4173" stroke-linecap="round" d="
		M98.987,82.03c-1.152,6.264-4.248,16.92-11.736,21.816c-9.144,6.12-40.464,18.792-55.08,36
		c-12.384,14.544-15.12,42.048,6.696,49.464"/>
	<path fill-rule="evenodd" clip-rule="evenodd" fill="none" stroke="#000000" stroke-width="1.4173" stroke-linecap="round" d="
		M113.531,81.31c-0.144,6.048,0.144,16.2,1.872,22.536c2.376,9.072,12.024,34.2-6.264,54.288"/>
	<path fill-rule="evenodd" clip-rule="evenodd" fill="none" stroke="#000000" stroke-width="1.4173" stroke-linecap="round" d="
		M34.331,159.718c0,0,20.16-23.328,35.496-18.72c11.736,3.456,13.248,12.24,11.088,20.88c-3.312,13.032-14.688,21.456-26.28,27.288"
		/>
	<path fill-rule="evenodd" clip-rule="evenodd" fill="none" stroke="#000000" stroke-width="1.4173" stroke-linecap="round" d="
		M53.339,165.406c0,0-14.328,21.312-15.12,28.008c-0.792,6.696,2.664,7.992,10.728,9.216c8.136,1.152,18.288,0,20.952-1.944
		c2.736-1.872,0.36-8.928-4.536-9.432"/>
	<path fill-rule="evenodd" clip-rule="evenodd" fill="none" stroke="#000000" stroke-width="1.4173" stroke-linecap="round" d="
		M71.987,188.374c0,0,7.848,0.288,7.56,6.48c-0.36,6.12-9.36,5.832-9.36,5.832"/>
	<path fill-rule="evenodd" clip-rule="evenodd" fill="none" stroke="#000000" stroke-width="1.4173" stroke-linecap="round" d="
		M64.355,183.55c0,0,15.696-1.584,14.328,7.776"/>
	<path fill-rule="evenodd" clip-rule="evenodd" fill="none" stroke="#000000" stroke-width="1.4173" stroke-linecap="round" d="
		M95.675,193.414c0,0,5.184,0.216,4.896,4.32c-0.432,6.336-12.672,4.824-15.048,0.72c-1.512-2.592,0.432-11.304,1.008-19.008
		c0.576-7.632,2.16-35.784,2.16-35.784"/>
	<path fill-rule="evenodd" clip-rule="evenodd" fill="none" stroke="#000000" stroke-width="1.4173" stroke-linecap="round" d="
		M106.619,190.822c0,0,5.544,0.648,5.328,4.176c-0.144,3.528-3.312,9.144-13.968,6.408"/>
	<path fill-rule="evenodd" clip-rule="evenodd" fill="none" stroke="#000000" stroke-width="1.4173" stroke-linecap="round" d="
		M113.891,123.142c0,0,0.432,12.168-2.304,23.184c-2.736,11.088-6.696,31.464-5.616,38.16"/>
	<path fill-rule="evenodd" clip-rule="evenodd" fill="none" stroke="#000000" stroke-width="1.4173" stroke-linecap="round" d="
		M105.971,184.486c0,0,3.312,1.584,5.4,2.376c2.16,0.72,4.824,3.6,4.392,6.84c-0.504,3.312-2.376,4.968-4.752,4.752"/>
	<path fill-rule="evenodd" clip-rule="evenodd" fill="none" stroke="#000000" stroke-width="1.4173" stroke-linecap="round" d="
		M117.779,181.822c0.36,0,5.4,0.648,5.328,4.896c-0.072,4.176-1.152,6.696-7.272,6.696"/>
	<path fill-rule="evenodd" clip-rule="evenodd" fill="none" stroke="#000000" stroke-width="1.4173" stroke-linecap="round" d="
		M115.835,148.414c0,0-3.744,21.888-2.664,28.656"/>
	<path fill-rule="evenodd" clip-rule="evenodd" fill="none" stroke="#000000" stroke-width="1.4173" stroke-linecap="round" d="
		M113.243,176.71c0,0,6.552,0.072,8.928,3.096c2.376,2.952,1.296,5.544,0.864,6.048"/>
	<path fill-rule="evenodd" clip-rule="evenodd" fill="none" stroke="#000000" stroke-width="1.4173" stroke-linecap="round" d="
		M86.891,172.966c0,0-12.96,9.288-18.936,10.44"/>
	<path fill-rule="evenodd" clip-rule="evenodd" fill="none" stroke="#000000" stroke-width="1.4173" stroke-linecap="round" d="
		M78.683,189.022c0,0,4.536,0.864,6.696-0.648"/>
	<path fill-rule="evenodd" clip-rule="evenodd" fill="none" stroke="#000000" stroke-width="1.4173" stroke-linecap="round" d="
		M23.099,169.798c2.088,8.568,5.688,15.12,11.952,18.072c0,0-21.024-5.976-30.312-21.6c-8.352-13.968-1.512-32.4,0.864-35.928
		c0.792-1.224,2.016-0.936,1.8,0.432C6.683,135.238,3.947,158.206,23.099,169.798z"/>
	<path fill-rule="evenodd" clip-rule="evenodd" fill="none" stroke="#000000" stroke-width="1.4173" stroke-linecap="round" d="
		M0.779,153.022c0,0,4.392,1.944,7.92-1.008"/>
	<path fill-rule="evenodd" clip-rule="evenodd" fill="none" stroke="#000000" stroke-width="1.4173" stroke-linecap="round" d="
		M25.403,151.582c3.024-7.416,8.424-14.4,16.704-21.024c0,0,7.848-1.152,5.904,6.048C46.139,143.806,33.539,155.038,25.403,151.582z
		"/>
	<path fill-rule="evenodd" clip-rule="evenodd" fill="none" stroke="#000000" stroke-width="1.4173" stroke-linecap="round" d="
		M67.811,114.43l-6.192,3.384c0,0-8.352,9.144-5.328,15.192c3.096,5.976,17.28-3.816,19.512-5.4
		C89.051,118.462,82.067,106.294,67.811,114.43z"/>
	<path fill-rule="evenodd" clip-rule="evenodd" fill="none" stroke="#000000" stroke-width="1.4173" stroke-linecap="round" d="
		M81.491,137.11c4.464,3.6,10.944-8.568,6.336-9.144C83.795,127.534,77.027,133.654,81.491,137.11z"/>
	<path fill-rule="evenodd" clip-rule="evenodd" fill="none" stroke="#000000" stroke-width="1.4173" stroke-linecap="round" d="
		M76.739,16.222c0.144-0.216,1.512-6.048,3.96-6.552c2.376-0.576,5.832-0.072,5.832-0.072s2.52-2.52,5.04-3.096
		c2.592-0.576,4.104-0.504,4.104-0.504s1.08-4.32,5.688-4.896c4.536-0.648,6.768,1.944,6.768,1.944s8.064,2.016,16.776,11.664
		s22.392,20.232,23.76,21.096c1.368,0.864,15.84,11.808,15.192,19.728s-7.416,11.376-12.456,11.304
		c-5.04-0.072-10.584-6.408-11.736-7.56c-1.152-1.152-2.016-3.024-2.016-3.024s-3.168,21.384-26.856,25.416
		c-23.688,4.104-33.984-15.264-33.984-15.264s-6.84,20.952-17.712,20.16c-10.8-0.792-10.44-15.264-6.408-23.544
		c4.104-8.28,12.816-20.592,14.472-24.12C68.819,35.374,76.595,16.15,76.739,16.222z"/>
	<path fill-rule="evenodd" clip-rule="evenodd" fill="none" stroke="#000000" stroke-width="1.4173" stroke-linecap="round" d="
		M99.059,81.886c0,0-2.736,14.112-10.008,19.944c-7.2,5.832-37.08,20.52-46.728,28.584c-3.456,2.88-7.56,6.48-11.016,11.16
		c-6.336,8.496-10.872,19.8-7.56,30.6c5.04,16.776,15.552,16.992,15.552,16.992s-3.528,8.352,1.728,11.376
		c4.104,2.376,25.632,3.888,29.376-0.504c0.288,1.08,5.688,1.008,8.064-2.232c2.592-3.672,0.216-6.408,0.216-6.408l0.144-2.016
		h4.968l1.584-0.648c0,0-0.648,4.968-0.216,8.136c0.792,4.968,9.288,5.904,13.104,4.464c5.544,1.8,8.928,1.296,12.888-3.024
		c2.592-0.072,3.528,0,4.752-5.256c3.384,1.152,7.848-0.792,7.2-7.344c0,0,1.368-4.392-1.44-6.408
		c-2.88-2.016-8.424-2.808-8.424-2.808s0.432-12.96,0.792-16.56c0.432-3.672,1.872-10.512,1.872-10.512s6.192-18,3.816-28.44
		c-2.448-10.512-6.048-20.16-5.832-26.784c0.144-6.696-0.648-12.888-0.648-12.888S105.251,82.894,99.059,81.886z"/>
</g>
</svg>
