<?xml version="1.0" encoding="utf-8"?>
<!-- Generator: Adobe Illustrator 13.0.0, SVG Export Plug-In . SVG Version: 6.00 Build 14948)  -->
<!DOCTYPE svg PUBLIC "-//W3C//DTD SVG 1.1//EN" "http://www.w3.org/Graphics/SVG/1.1/DTD/svg11.dtd">
<svg version="1.1" id="Layer_1" xmlns="http://www.w3.org/2000/svg" xmlns:xlink="http://www.w3.org/1999/xlink" x="0px" y="0px"
	 width="167.253px" height="204.616px" viewBox="0 0 167.253 204.616" enable-background="new 0 0 167.253 204.616"
	 xml:space="preserve">
<g>
	<path fill-rule="evenodd" clip-rule="evenodd" fill="none" stroke="#000000" stroke-width="1.4173" stroke-linecap="round" d="
		M96.509,73.585c0,0-3.384,5.112-12.672,9.144c-9.36,4.104-43.344,14.472-45.288,15.192c-2.016,0.72,0.648,2.808,0.648,2.808
		s-9.936,4.392-10.368,6.696c-0.504,2.376,4.464,1.656,4.464,1.656s-2.376,1.512-1.8,4.176s9.216,2.88,9.216,2.88
		s-1.224,2.304,0.216,3.816c1.512,1.512,10.8,2.448,10.8,2.448s-1.656,5.328,11.664,8.208s27.432,3.816,40.032-3.024
		c12.6-6.84,12.744-16.416,9.144-28.944C108.965,85.97,96.509,73.585,96.509,73.585z"/>
	<path fill-rule="evenodd" clip-rule="evenodd" fill="none" stroke="#000000" stroke-width="1.4173" stroke-linecap="round" d="
		M67.925,106.994c0,0-2.808,3.096-1.728,5.904c1.152,2.808,3.96,1.872,3.96,1.872s-1.872,3.24-0.72,5.112
		c1.152,1.872,6.048,1.008,6.048,1.008"/>
	<path fill-rule="evenodd" clip-rule="evenodd" fill="none" stroke="#000000" stroke-width="1.4173" stroke-linecap="round" d="
		M52.661,166.25l-0.432-0.216c0,0-4.608,5.184-3.744,6.984c0.792,1.872,16.344,8.496,18.216,10.584
		c1.944,2.16,1.008,20.16,3.96,20.304c2.952,0.144,8.784-7.416,13.392-5.688s7.344,5.04,9.288,4.248
		c2.016-0.792,1.08-5.688,3.312-7.056c2.232-1.44,5.256-2.952,5.112-5.04c-0.216-2.088-23.904-5.904-30.816-10.08
		c-6.84-4.248-7.848-11.808-7.848-11.808C59.717,168.266,53.741,167.113,52.661,166.25z"/>
	<path fill-rule="evenodd" clip-rule="evenodd" fill="none" stroke="#000000" stroke-width="1.4173" stroke-linecap="round" d="
		M82.541,172.37c0,0,0.072,0,0.144,0.072c1.728,0.936,18.216,9.36,21.096,13.392c3.024,4.248,6.84,10.584,9.216,10.368
		c2.376-0.216,1.8-5.04,4.824-4.824c3.096,0.288,13.608,1.512,14.328-0.144c0.72-1.584-2.232-5.04-0.576-5.688
		c1.584-0.72,7.344-1.008,7.2-2.304c-0.144-1.296-12.456-4.608-19.8-5.256c-7.344-0.72-10.152,1.008-14.904-0.072
		c-4.68-1.08-10.368-6.768-10.512-8.568C89.669,168.481,85.205,169.273,82.541,172.37z"/>
	<path fill-rule="evenodd" clip-rule="evenodd" fill="none" stroke="#000000" stroke-width="1.4173" stroke-linecap="round" d="
		M82.541,172.37c0,0-1.08-0.576-0.864-2.808c0.216-2.16,6.696-8.064,6.696-8.064c5.76-0.504,12.456-1.152,18.648-2.16
		c0,0-3.528,2.952-5.4,4.104c-1.8,1.08-8.064,5.904-8.064,5.904C89.669,168.481,85.205,169.273,82.541,172.37z"/>
	<path fill-rule="evenodd" clip-rule="evenodd" fill="none" stroke="#000000" stroke-width="1.4173" stroke-linecap="round" d="
		M128.405,16.202c2.376,0,4.392,2.016,4.392,4.392c0,2.448-2.016,4.392-4.392,4.392c-2.448,0-4.392-1.944-4.392-4.392
		C124.013,18.217,125.957,16.202,128.405,16.202z"/>
	<path fill-rule="evenodd" clip-rule="evenodd" fill="none" stroke="#000000" stroke-width="1.4173" stroke-linecap="round" d="
		M128.405,24.985c2.376,0,4.392-1.944,4.392-4.392c0-2.376-2.016-4.392-4.392-4.392c-2.448,0-4.392,2.016-4.392,4.392
		C124.013,23.042,125.957,24.985,128.405,24.985z"/>
	<path fill-rule="evenodd" clip-rule="evenodd" fill="none" stroke="#000000" stroke-width="1.4173" stroke-linecap="round" d="
		M136.181,38.45l0.072,0.288c3.528,3.744,18.072,8.712,19.368,6.624c1.296-2.16-1.656-3.312-4.392-4.968
		c-2.088-1.296-6.408-6.552-8.136-8.784c-0.864-1.08-0.936-1.008,0.288-0.288c1.656,1.008,5.184,2.808,9.216,3.312
		c5.616,0.648,13.32,1.368,13.896-2.088s-3.744-4.248-9.936-7.632c-6.264-3.312-12.888-10.8-12.888-10.8s-2.448,1.8-2.448,6.336
		c0,4.608,0.864,10.08,0.864,10.08s-0.648,1.368-2.232,2.736C138.197,34.633,136.181,38.45,136.181,38.45z"/>
	<path fill-rule="evenodd" clip-rule="evenodd" fill="none" stroke="#000000" stroke-width="1.4173" stroke-linecap="round" d="
		M143.669,14.113c0,0,0.288-2.952-3.6-5.904c-3.888-3.024-8.64-8.496-22.104-7.344c-13.464,1.152-24.408,11.448-28.512,30.096
		c-4.104,18.72,7.128,42.696,7.128,42.696s12.384,12.312,15.984,24.984c3.6,12.528,3.456,22.104-9.144,28.944
		c-12.6,6.84-26.712,5.904-40.032,3.024s-11.664-8.208-11.664-8.208s-9.288-0.936-10.8-2.448c-1.44-1.512-0.216-3.816-0.216-3.816
		s-8.64-0.216-9.216-2.88s1.8-4.176,1.8-4.176s-4.968,0.72-4.464-1.656c0.432-2.304,10.368-6.696,10.368-6.696
		s-2.664-2.088-0.648-2.808l-0.72,0.288c-12.528,3.168-25.272-3.24-25.272-3.24l-0.288,4.608l-10.44-3.456l7.056,9.936
		c0,0-4.752,0.936-6.84,1.152c-2.016,0.216,2.736,2.736,5.688,5.472c2.952,2.736,12.096,17.568,19.152,27.144
		c7.056,9.576,28.224,22.32,28.224,22.32s-3.6,3.168-2.448,4.104c1.08,0.864,7.056,2.016,10.44,2.232
		c3.456,0.288,8.208-5.184,11.88-5.904c1.656-0.288,6.912-0.576,13.392-1.08c5.76-0.504,12.456-1.152,18.648-2.16
		c1.872-0.288,3.744-0.648,5.472-1.08c13.896-3.168,33.264-17.568,37.584-31.464s-2.304-35.712-15.48-46.584
		c-13.248-10.944-15.768-25.56-13.68-33.768c2.016-8.208,15.264-7.992,15.264-7.992s2.016-3.816,3.672-5.184
		c1.584-1.368,2.232-2.736,2.232-2.736s-0.864-5.472-0.864-10.08C141.221,15.914,143.669,14.113,143.669,14.113z"/>
</g>
</svg>
