<?xml version="1.0" encoding="utf-8"?>
<!-- Generator: Adobe Illustrator 13.0.0, SVG Export Plug-In . SVG Version: 6.00 Build 14948)  -->
<!DOCTYPE svg PUBLIC "-//W3C//DTD SVG 1.1//EN" "http://www.w3.org/Graphics/SVG/1.1/DTD/svg11.dtd">
<svg version="1.1" id="Layer_1" xmlns="http://www.w3.org/2000/svg" xmlns:xlink="http://www.w3.org/1999/xlink" x="0px" y="0px"
	 width="85.703px" height="192.67px" viewBox="0 0 85.703 192.67" enable-background="new 0 0 85.703 192.67" xml:space="preserve">
<g>
	<path fill-rule="evenodd" clip-rule="evenodd" fill="none" stroke="#000000" stroke-width="1.4173" stroke-linecap="round" d="
		M46.01,32.842c0,0,16.128-12.528,27.576-9.504c11.448,3.024,14.328,12.6,8.424,20.736c-5.4,7.56-29.016,1.368-32.472,0.432
		c-0.432-0.144-0.648-0.216-0.144,0.072c2.664,1.512,20.664,12.096,21.6,24.624c1.008,13.536-12.168,18.288-21.024,9.72
		c-7.344-7.2-10.08-22.248-10.8-26.928c-0.216-1.728-0.072-1.872-0.36-0.072c-1.008,6.408-5.904,32.256-19.728,28.08
		C3.314,75.25,10.01,58.474,15.77,52.786c4.104-4.032,9.144-6.912,11.664-8.28c2.376-1.224,1.728-0.792-0.36-0.504
		c-5.544,0.792-20.736,2.232-24.552-4.896c-4.752-8.712,0.144-19.512,11.088-19.8c8.928-0.216,16.416,7.272,18.936,10.08
		c1.224,1.44,0.864,1.224,0.36-0.36c-1.8-5.688-7.056-25.704,9-28.08C60.482-1.862,59.042,20.962,46.01,32.842z"/>
	<path fill-rule="evenodd" clip-rule="evenodd" fill="none" stroke="#000000" stroke-width="1.4173" stroke-linecap="round" d="
		M39.386,49.186c4.824,0,8.784-4.032,8.784-8.856c0-4.896-3.96-8.856-8.784-8.856c-4.896,0-8.856,3.96-8.856,8.856
		C30.53,45.154,34.49,49.186,39.386,49.186z"/>
	
		<rect x="6.986" y="134.146" fill-rule="evenodd" clip-rule="evenodd" fill="none" stroke="#000000" stroke-width="1.4173" stroke-linecap="round" width="64.512" height="18"/>
	
		<polygon fill-rule="evenodd" clip-rule="evenodd" fill="none" stroke="#000000" stroke-width="1.4173" stroke-linecap="round" points="
		10.802,152.146 67.97,152.146 74.45,191.962 1.874,191.962 	"/>
	<path fill-rule="evenodd" clip-rule="evenodd" fill="none" stroke="#000000" stroke-width="1.4173" stroke-linecap="round" d="
		M37.226,59.554l1.728-7.776l2.448,9.792v50.256c1.584-4.68,5.904-15.192,12.168-21.384c8.28-8.28,23.184-12.888,23.184-12.888
		s-1.728,21.888-14.832,32.832c-9.792,8.208-17.424,11.592-20.52,12.816v10.944h-4.176v-10.944
		c-3.168-1.152-10.8-4.536-20.664-12.816C3.458,99.442,1.73,77.554,1.73,77.554s14.976,4.608,23.184,12.888
		c6.336,6.264,10.656,16.848,12.312,21.456V59.554z"/>
	<path fill-rule="evenodd" clip-rule="evenodd" fill="none" stroke="#000000" stroke-width="1.4173" stroke-linecap="round" d="
		M46.37,114.634c0,0,12.6-18.864,19.656-23.256"/>
	<path fill-rule="evenodd" clip-rule="evenodd" fill="none" stroke="#000000" stroke-width="1.4173" stroke-linecap="round" d="
		M13.826,91.378c0,0,16.272,16.056,18,22.896"/>
</g>
</svg>
