<?xml version="1.0" encoding="utf-8"?>
<!-- Generator: Adobe Illustrator 13.0.0, SVG Export Plug-In . SVG Version: 6.00 Build 14948)  -->
<!DOCTYPE svg PUBLIC "-//W3C//DTD SVG 1.1//EN" "http://www.w3.org/Graphics/SVG/1.1/DTD/svg11.dtd">
<svg version="1.1" id="Layer_1" xmlns="http://www.w3.org/2000/svg" xmlns:xlink="http://www.w3.org/1999/xlink" x="0px" y="0px"
	 width="336.606px" height="321.257px" viewBox="0 0 336.606 321.257" enable-background="new 0 0 336.606 321.257"
	 xml:space="preserve">
<path fill-rule="evenodd" clip-rule="evenodd" fill="none" stroke="#000000" stroke-width="1.4173" stroke-linecap="round" d="
	M139.1,118.896c9.576,0,17.424-7.776,17.424-17.424c0-9.576-7.848-17.352-17.424-17.352c-9.576,0-17.424,7.776-17.424,17.352
	C121.676,111.121,129.524,118.896,139.1,118.896z"/>
<path id="Flower_21" fill-rule="evenodd" clip-rule="evenodd" fill="none" stroke="#000000" stroke-width="1.4173" stroke-linecap="round" d="
	M139.388,83.761c0,0-18-16.2-18.864-39.312c-0.864-23.112,19.224-43.56,19.224-43.56s21.888,12.672,20.52,42.336
	C158.828,72.889,139.388,83.761,139.388,83.761z"/>
<path id="Flower_20" fill-rule="evenodd" clip-rule="evenodd" fill="none" stroke="#000000" stroke-width="1.4173" stroke-linecap="round" d="
	M138.092,119.473c0,0-21.096,17.424-20.232,41.184c0.792,23.832,20.52,40.968,20.52,40.968s17.496-14.688,19.656-39.672
	C160.124,137.041,138.092,119.473,138.092,119.473z"/>
<path id="Flower_19" fill-rule="evenodd" clip-rule="evenodd" fill="none" stroke="#000000" stroke-width="1.4173" stroke-linecap="round" d="
	M151.7,89.089c0,0-1.296-24.192,14.328-41.184c15.696-16.92,44.352-17.208,44.352-17.208s6.624,24.48-15.336,44.496
	C173.084,95.137,151.7,89.089,151.7,89.089z"/>
<path id="Flower_18" fill-rule="evenodd" clip-rule="evenodd" fill="none" stroke="#000000" stroke-width="1.4173" stroke-linecap="round" d="
	M125.564,113.425c0,0-27.216-2.52-43.488,14.976c-16.272,17.424-14.4,43.488-14.4,43.488s22.752,1.872,41.904-14.256
	C128.732,141.505,125.564,113.425,125.564,113.425z"/>
<path id="Flower_17" fill-rule="evenodd" clip-rule="evenodd" fill="none" stroke="#000000" stroke-width="1.4173" stroke-linecap="round" d="
	M156.596,101.545c0,0,16.128-18,39.24-18.864c23.112-0.864,43.632,19.224,43.632,19.224s-12.744,21.96-42.408,20.52
	C167.468,121.057,156.596,101.545,156.596,101.545z"/>
<path id="Flower_16" fill-rule="evenodd" clip-rule="evenodd" fill="none" stroke="#000000" stroke-width="1.4173" stroke-linecap="round" d="
	M120.956,100.321c0,0-17.496-21.024-41.328-20.232c-23.832,0.864-40.968,20.592-40.968,20.592s14.688,17.496,39.672,19.584
	C103.316,122.353,120.956,100.321,120.956,100.321z"/>
<path id="Flower_15" fill-rule="evenodd" clip-rule="evenodd" fill="none" stroke="#000000" stroke-width="1.4173" stroke-linecap="round" d="
	M151.412,113.785c0,0,24.048-1.44,41.112,14.184s17.568,44.208,17.568,44.208s-24.48,6.768-44.568-15.12
	C145.508,135.313,151.412,113.785,151.412,113.785z"/>
<path id="Flower_14" fill-rule="evenodd" clip-rule="evenodd" fill="none" stroke="#000000" stroke-width="1.4173" stroke-linecap="round" d="
	M126.86,87.865c0,0,2.304-27.288-15.192-43.416C94.1,28.321,68.036,30.337,68.036,30.337s-1.8,22.752,14.472,41.832
	C98.852,91.177,126.86,87.865,126.86,87.865z"/>
<path id="Flower_13" fill-rule="evenodd" clip-rule="evenodd" fill="none" stroke="#000000" stroke-width="1.4173" stroke-linecap="round" d="
	M157.46,150.792c1.08,6.48,1.008,12.888-0.576,19.152c0,0,14.112,39.24,7.92,69.624c-6.048,30.456-32.184,60.84-32.184,60.84
	c5.256,1.008,13.176,4.32,13.968,10.512c0,0,23.544-17.928,29.952-74.592C180.212,203.569,168.188,171.745,157.46,150.792z"/>
<path id="Flower_12" fill-rule="evenodd" clip-rule="evenodd" fill="none" stroke="#000000" stroke-width="1.4173" stroke-linecap="round" d="
	M135.14,267.289c0,0-13.752-48.96-63.072-57.888c-49.32-8.928-70.128,23.112-70.128,23.112s18.072-8.424,48.888,10.224
	C81.572,261.457,104.54,271.321,135.14,267.289z"/>
<path fill-rule="evenodd" clip-rule="evenodd" fill="none" stroke="#000000" stroke-width="1.4173" stroke-linecap="round" d="
	M145.94,282.121c0,0-15.984-32.76-61.056-49.896c-45.144-17.064-82.8-0.288-82.8-0.288"/>
<path id="Flower_11" fill-rule="evenodd" clip-rule="evenodd" fill="none" stroke="#000000" stroke-width="1.4173" stroke-linecap="round" d="
	M275.972,187.801c-4.68-4.248-12.168-4.104-16.56,0.36c-4.464,4.464-4.32,11.664,0.36,15.912c4.752,4.32,12.168,4.176,16.632-0.288
	S280.652,192.121,275.972,187.801z"/>
<path id="Flower_10" fill-rule="evenodd" clip-rule="evenodd" fill="none" stroke="#000000" stroke-width="1.4173" stroke-linecap="round" d="
	M275.972,187.584c0,0,16.344,0.504,27.504-9.936c11.16-10.44,10.872-28.944,10.872-28.944s-16.704-3.888-29.736,10.512
	C271.58,173.761,275.972,187.584,275.972,187.584z"/>
<path id="Flower_9" fill-rule="evenodd" clip-rule="evenodd" fill="none" stroke="#000000" stroke-width="1.4173" stroke-linecap="round" d="
	M260.06,204.792c0,0,2.16,17.64-9.288,28.44c-11.448,10.729-29.088,9.936-29.088,9.936s-1.728-14.76,8.856-27.36
	S260.06,204.792,260.06,204.792z"/>
<path id="Flower_8" fill-rule="evenodd" clip-rule="evenodd" fill="none" stroke="#000000" stroke-width="1.4173" stroke-linecap="round" d="
	M267.548,184.561c0,0,11.88-10.728,12.024-25.704c0.216-14.904-13.68-27.936-13.68-27.936s-14.616,8.496-13.104,27.648
	C254.228,177.721,267.548,184.561,267.548,184.561z"/>
<path id="Flower_7" fill-rule="evenodd" clip-rule="evenodd" fill="none" stroke="#000000" stroke-width="1.4173" stroke-linecap="round" d="
	M268.988,207.601c0,0,14.472,11.088,14.328,26.496c-0.216,15.48-13.248,26.784-13.248,26.784s-12.024-9.288-13.824-25.416
	C254.372,219.337,268.988,207.601,268.988,207.601z"/>
<path id="Flower_6" fill-rule="evenodd" clip-rule="evenodd" fill="none" stroke="#000000" stroke-width="1.4173" stroke-linecap="round" d="
	M259.34,188.161c0,0,0.432-15.696-10.512-26.424c-10.872-10.728-30.168-10.512-30.168-10.512s-4.032,15.912,11.16,28.512
	C244.94,192.337,259.34,188.161,259.34,188.161z"/>
<path id="Flower_5" fill-rule="evenodd" clip-rule="evenodd" fill="none" stroke="#000000" stroke-width="1.4173" stroke-linecap="round" d="
	M277.34,203.569c0,0,18.288-2.016,29.592,9.072c11.232,11.088,10.44,28.008,10.44,28.008s-15.336,1.512-28.512-8.64
	C275.684,221.785,277.34,203.569,277.34,203.569z"/>
<path id="Flower_4" fill-rule="evenodd" clip-rule="evenodd" fill="none" stroke="#000000" stroke-width="1.4173" stroke-linecap="round" d="
	M256.172,196.225c0,0-11.16-11.52-26.712-11.88c-15.624-0.36-29.16,12.816-29.16,12.816s8.856,14.184,28.8,12.96
	C249.044,208.896,256.172,196.225,256.172,196.225z"/>
<path id="Flower_3" fill-rule="evenodd" clip-rule="evenodd" fill="none" stroke="#000000" stroke-width="1.4173" stroke-linecap="round" d="
	M280.22,195.073c0,0,11.52-13.752,27.576-13.464c16.128,0.36,27.864,12.96,27.864,12.96s-9.648,11.448-26.496,13.032
	C292.388,209.185,280.22,195.073,280.22,195.073z"/>
<path id="Flower_2" fill-rule="evenodd" clip-rule="evenodd" fill="none" stroke="#000000" stroke-width="1.4173" stroke-linecap="round" d="
	M236.012,210.769c-3.528,2.592-6.48,5.616-8.64,9.288c0,0-25.128,11.952-36.216,28.944c-11.16,16.992-12.528,42.912-12.528,42.912
	c-3.024-1.872-8.424-3.888-11.664-1.368c0,0-3.24-18.936,19.944-48.313C200.372,225.241,220.964,215.809,236.012,210.769z"/>
<path id="Flower_1" fill-rule="evenodd" clip-rule="evenodd" fill="none" stroke="#000000" stroke-width="1.4173" stroke-linecap="round" d="
	M192.812,275.281c0,0,29.448-16.704,57.672,1.224c28.224,17.928,23.544,42.264,23.544,42.264s-4.896-12.096-28.584-17.136
	C221.684,296.593,205.844,290.905,192.812,275.281z"/>
<path fill-rule="evenodd" clip-rule="evenodd" fill="none" stroke="#000000" stroke-width="1.4173" stroke-linecap="round" d="
	M180.644,277.369c0,0,22.968-8.136,52.992,4.104s40.608,36.936,40.608,36.936"/>
</svg>
