<?xml version="1.0" encoding="utf-8"?>
<!-- Generator: Adobe Illustrator 13.0.0, SVG Export Plug-In . SVG Version: 6.00 Build 14948)  -->
<!DOCTYPE svg PUBLIC "-//W3C//DTD SVG 1.1//EN" "http://www.w3.org/Graphics/SVG/1.1/DTD/svg11.dtd">
<svg version="1.1" id="Layer_1" xmlns="http://www.w3.org/2000/svg" xmlns:xlink="http://www.w3.org/1999/xlink" x="0px" y="0px"
	 width="83.727px" height="203.021px" viewBox="0 0 83.727 203.021" enable-background="new 0 0 83.727 203.021"
	 xml:space="preserve">
<g>
	
		<polygon fill-rule="evenodd" clip-rule="evenodd" fill="none" stroke="#000000" stroke-width="1.4173" stroke-linecap="round" points="
		11.533,173.729 71.869,127.721 75.685,127.721 73.093,148.241 13.189,189.497 	"/>
	<path fill-rule="evenodd" clip-rule="evenodd" fill="none" stroke="#000000" stroke-width="1.4173" stroke-linecap="round" d="
		M6.493,127.721h65.376l-60.336,46.08L6.493,127.721L6.493,127.721z M73.021,148.313l-7.056,54H14.629l-1.368-12.888L73.021,148.313
		z"/>
	<path fill-rule="evenodd" clip-rule="evenodd" fill="none" stroke="#000000" stroke-width="1.4173" stroke-linecap="round" d="
		M42.925,48.737c4.32,0,7.92-3.528,7.92-7.848c0-4.32-3.6-7.848-7.92-7.848c-4.248,0-7.776,3.528-7.776,7.848
		C35.149,45.209,38.677,48.737,42.925,48.737z"/>
	<path fill-rule="evenodd" clip-rule="evenodd" fill="none" stroke="#000000" stroke-width="1.4173" stroke-linecap="round" d="
		M32.269,27.929c-0.864-2.88-3.096-11.232-2.592-16.416c0.576-6.336,1.584-10.224,1.584-10.224s6.264,5.472,9.36,11.592
		c2.376,4.752,3.816,10.224,4.32,12.384c0.288,1.224,0.144,1.152,0.576-0.072c0.936-2.664,3.744-9.72,7.776-12.888
		c5.04-4.032,9.936-7.56,9.936-7.56s0,12.456-2.664,18.792c-1.728,4.176-3.528,6.624-4.536,7.848
		c-0.792,1.008-1.296,1.152,0.288,0.36c2.304-1.152,8.064-3.456,14.328-3.024c8.136,0.576,11.88,2.52,11.88,2.52
		s-4.032,3.888-10.872,7.848c-6.768,4.032-9.936,4.608-9.936,4.608s7.272,3.384,11.016,8.28c3.672,4.896,6.048,10.08,6.048,10.08
		s-13.032-1.584-18.936-3.96c-3.888-1.584-5.832-3.24-6.696-4.248c-0.72-0.864-0.648-1.152-0.36,0.288
		c0.576,2.88,2.088,10.8,2.016,15.624c-0.144,6.12-1.944,10.872-1.944,10.872s-6.408-6.12-9.36-11.448
		c-2.88-5.328-3.456-10.08-3.456-10.08s-5.04,9.216-9.216,12.312c-4.176,3.096-7.56,4.608-7.56,4.608s-0.432-9.936,1.944-17.208
		c1.512-4.752,3.384-7.416,4.392-8.712c1.008-1.152,1.296-1.008-0.288-0.36c-2.736,1.08-9.36,3.456-15.552,2.88
		c-7.992-0.792-12.456-2.088-12.456-2.088s6.84-7.272,11.88-9.504s9.072-3.384,9.072-3.384s-8.208-5.544-10.872-8.928
		c-2.664-3.384-5.616-8.424-5.616-8.424s14.832-1.296,25.848,7.848C32.557,28.937,32.773,29.585,32.269,27.929L32.269,27.929z
		 M42.925,33.041c4.32,0,7.92,3.528,7.92,7.848c0,4.32-3.6,7.848-7.92,7.848c-4.248,0-7.776-3.528-7.776-7.848
		C35.149,36.569,38.677,33.041,42.925,33.041z"/>
	<path fill-rule="evenodd" clip-rule="evenodd" fill="none" stroke="#000000" stroke-width="1.4173" stroke-linecap="round" d="
		M40.693,62.921l-0.72-3.6l-2.448,4.176c-1.08,9.072-2.952,23.76-2.808,37.44c0.216,13.536,2.304,26.784,2.304,26.784h19.728
		c0,0,15.912-23.04,17.568-31.032c1.656-7.992-3.456-13.032-14.832-8.568c-11.304,4.392-20.088,31.824-20.088,31.824
		C38.317,100.793,38.029,82.001,40.693,62.921z"/>
	<path fill-rule="evenodd" clip-rule="evenodd" fill="none" stroke="#000000" stroke-width="1.4173" stroke-linecap="round" d="
		M44.797,127.505c0,0,13.752-26.208,23.472-33.768"/>
	<path fill-rule="evenodd" clip-rule="evenodd" fill="none" stroke="#000000" stroke-width="1.4173" stroke-linecap="round" d="
		M52.069,99.425c0,1.08,1.08,9.144,2.592,10.728"/>
	<path fill-rule="evenodd" clip-rule="evenodd" fill="none" stroke="#000000" stroke-width="1.4173" stroke-linecap="round" d="
		M45.589,109.505c0.144,0.72,1.8,8.64,3.168,9.576"/>
	<path fill-rule="evenodd" clip-rule="evenodd" fill="none" stroke="#000000" stroke-width="1.4173" stroke-linecap="round" d="
		M46.741,123.905c0.72,0.072,8.28-1.872,10.8-3.744"/>
	<path fill-rule="evenodd" clip-rule="evenodd" fill="none" stroke="#000000" stroke-width="1.4173" stroke-linecap="round" d="
		M61.861,112.529c-0.936,0.648-7.776,2.736-9.504,2.736"/>
	<path fill-rule="evenodd" clip-rule="evenodd" fill="none" stroke="#000000" stroke-width="1.4173" stroke-linecap="round" d="
		M65.029,107.993c-0.576,0-5.616,0-6.768-0.864"/>
	<path fill-rule="evenodd" clip-rule="evenodd" fill="none" stroke="#000000" stroke-width="1.4173" stroke-linecap="round" d="
		M69.133,100.073c-1.08,0.432-6.84,1.008-7.92,0.864"/>
	<path fill-rule="evenodd" clip-rule="evenodd" fill="none" stroke="#000000" stroke-width="1.4173" stroke-linecap="round" d="
		M57.253,93.089c-0.144,1.368,1.008,7.272,2.592,9.288"/>
	<path fill-rule="evenodd" clip-rule="evenodd" fill="none" stroke="#000000" stroke-width="1.4173" stroke-linecap="round" d="
		M65.461,91.145c-0.072,0.288-0.504,3.888-0.288,5.112"/>
</g>
</svg>
