<?xml version="1.0" encoding="utf-8"?>
<!-- Generator: Adobe Illustrator 13.0.0, SVG Export Plug-In . SVG Version: 6.00 Build 14948)  -->
<!DOCTYPE svg PUBLIC "-//W3C//DTD SVG 1.1//EN" "http://www.w3.org/Graphics/SVG/1.1/DTD/svg11.dtd">
<svg version="1.1" id="Layer_1" xmlns="http://www.w3.org/2000/svg" xmlns:xlink="http://www.w3.org/1999/xlink" x="0px" y="0px"
	 width="177.452px" height="176.875px" viewBox="0 0 177.452 176.875" enable-background="new 0 0 177.452 176.875"
	 xml:space="preserve">
<g>
	<path fill-rule="evenodd" clip-rule="evenodd" fill="none" stroke="#000000" stroke-width="1.4173" stroke-linecap="round" d="
		M84.607,104.431c10.872,0,19.872-9.72,19.872-21.528c0-11.88-9-21.6-19.872-21.6c-11.016,0-19.944,9.72-19.944,21.6
		C64.664,94.711,73.591,104.431,84.607,104.431z"/>
	<path fill-rule="evenodd" clip-rule="evenodd" fill="none" stroke="#000000" stroke-width="1.4173" stroke-linecap="round" d="
		M83.744,52.087c0,0-3.384-40.392,25.344-49.104c28.8-8.712,41.4,9.288,40.68,25.416c-0.72,16.2-6.408,28.656-15.264,34.488
		c-8.928,5.904-18.864,7.488-18.864,7.488s31.68-3.384,46.584,3.168c14.904,6.624,16.56,20.376,12.816,35.352
		c-3.744,14.904-18.504,21.312-22.248,22.176c-3.744,0.864-11.52,0.576-19.512-2.808c-8.064-3.384-27.072-20.808-27.072-20.808
		s0,0.144,0.144,0.36c2.304,3.384,21.096,30.312,19.584,40.176c-1.584,10.44-5.688,19.512-11.016,22.752
		c-5.328,3.168-17.568,6.696-26.568,4.968c-9.072-1.8-14.184-4.32-18.648-12.096c-4.464-7.848,1.224-43.056,1.224-46.224
		c0-2.376,0.504-5.184,0.72-6.48c0.072-0.432,0-0.792,0-0.792s-0.216,0.144-0.36,0.576c-1.8,3.816-12.312,24.768-33.768,29.088
		c-23.616,4.824-31.824-5.184-33.408-10.152c-1.584-4.968-6.048-18.072-1.224-27.36c4.752-9.216,9.72-21.24,21.312-24.408
		c10.368-2.88,27.072-0.144,30.312,0.432c0.432,0.072,0.576,0.072,0.576,0.072s-0.072-0.216-0.432-0.36
		c-4.32-1.728-31.968-13.176-37.224-32.328c-5.688-20.808,4.248-29.664,7.848-32.904c3.528-3.168,22.392-10.656,34.992-1.8
		C72.872,19.903,81.224,50.647,83.744,52.087L83.744,52.087z M86.551,52.591c16.92,0,30.672,13.608,30.672,30.312
		c0,16.632-13.752,30.24-30.672,30.24s-30.744-13.608-30.744-30.24C55.808,66.199,69.631,52.591,86.551,52.591z"/>
	<path fill-rule="evenodd" clip-rule="evenodd" fill="none" stroke="#000000" stroke-width="1.4173" stroke-linecap="round" d="
		M86.551,52.591c16.92,0,30.672,13.608,30.672,30.312c0,16.632-13.752,30.24-30.672,30.24s-30.744-13.608-30.744-30.24
		C55.808,66.199,69.631,52.591,86.551,52.591L86.551,52.591z M84.607,61.303c10.872,0,19.872,9.72,19.872,21.6
		c0,11.808-9,21.528-19.872,21.528c-11.016,0-19.944-9.72-19.944-21.528C64.664,71.023,73.591,61.303,84.607,61.303z"/>
</g>
</svg>
