<?xml version="1.0" encoding="utf-8"?>
<!-- Generator: Adobe Illustrator 13.0.0, SVG Export Plug-In . SVG Version: 6.00 Build 14948)  -->
<!DOCTYPE svg PUBLIC "-//W3C//DTD SVG 1.1//EN" "http://www.w3.org/Graphics/SVG/1.1/DTD/svg11.dtd">
<svg version="1.1" id="Layer_1" xmlns="http://www.w3.org/2000/svg" xmlns:xlink="http://www.w3.org/1999/xlink" x="0px" y="0px"
	 width="195.581px" height="97.828px" viewBox="0 0 195.581 97.828" enable-background="new 0 0 195.581 97.828"
	 xml:space="preserve">
<g>
	<path fill-rule="evenodd" clip-rule="evenodd" fill="none" stroke="#000000" stroke-width="1.4173" stroke-linecap="round" d="
		M171.158,29.403l-5.832,0.288c1.872,0.144,3.888,0.936,4.968,1.368C170.438,30.483,170.797,29.907,171.158,29.403L171.158,29.403z
		 M100.886,45.603l0.072,0.072c4.968-3.456,27.648-10.656,27.648-10.656l-27.648,1.224C100.958,36.243,101.03,40.347,100.886,45.603
		L100.886,45.603z M55.021,37.899l-1.728,36.144l-24.192,0.432c-0.864,0-1.512-0.648-1.512-1.584
		c-0.648-9.792,4.464-21.816,12.096-27.936C44.078,41.355,49.622,38.763,55.021,37.899L55.021,37.899z M59.99,39.051
		c0.144,0.36-1.224,29.16-1.224,34.416c0.072,0.504,0.072,0.792,0.072,0.792c0.36,0.072,21.888-0.648,25.344-0.792
		c1.368,0,1.656-0.936,2.088-2.376c0.648-2.376,1.08-26.64,1.008-30.456c-0.072-1.08-0.288-2.304-1.44-2.592
		C84.47,37.755,59.99,39.051,59.99,39.051L59.99,39.051z M163.381,29.763L58.045,34.587c-19.584,0.792-39.024,20.808-32.832,45.288
		c0.144,0.432,0.864,0.864,2.16,1.224c4.752,1.368,16.848,1.656,30.456,0.792c17.208-1.152,24.552-2.448,28.368-3.6
		c3.744-1.224,9.144-5.76,12.096-12.96c1.224-2.88,1.872-8.136,2.304-13.464c15.768-7.128,40.176-13.68,59.76-15.984
		C158.341,33.795,158.773,30.555,163.381,29.763z"/>
	<path fill-rule="evenodd" clip-rule="evenodd" fill="none" stroke="#000000" stroke-width="1.4173" stroke-linecap="round" d="
		M100.886,45.603c-0.072,2.016-0.144,4.104-0.288,6.264"/>
	<path fill-rule="evenodd" clip-rule="evenodd" fill="none" stroke="#000000" stroke-width="1.4173" stroke-linecap="round" d="
		M38.534,41.859c3.888-3.024,8.424-4.968,13.248-6.408l-22.68,1.368C29.102,36.819,39.614,36.963,38.534,41.859z"/>
	<path fill-rule="evenodd" clip-rule="evenodd" fill="none" stroke="#000000" stroke-width="1.4173" stroke-linecap="round" d="
		M69.854,24.579l-11.448,0.432l-0.72-20.448c-0.144-4.68,10.728-5.472,11.232-0.288L69.854,24.579z"/>
	<path fill-rule="evenodd" clip-rule="evenodd" fill="none" stroke="#000000" stroke-width="1.4173" stroke-linecap="round" d="
		M27.806,67.419c0,0,6.048,1.584,6.768,6.912"/>
	
		<polygon fill-rule="evenodd" clip-rule="evenodd" fill="none" stroke="#000000" stroke-width="1.4173" stroke-linecap="round" points="
		28.31,73.971 28.886,74.403 30.397,74.403 36.806,61.803 35.438,54.963 32.917,56.043 34.069,62.091 	"/>
	<path fill-rule="evenodd" clip-rule="evenodd" fill="none" stroke="#000000" stroke-width="1.4173" stroke-linecap="round" d="
		M40.981,82.467c-6.552-0.144-13.176-0.576-15.696-2.376l-0.648-2.736c0,0-2.808,5.616-2.736,5.832
		C22.045,83.403,38.678,83.259,40.981,82.467z"/>
	<path fill-rule="evenodd" clip-rule="evenodd" fill="none" stroke="#000000" stroke-width="1.4173" stroke-linecap="round" d="
		M57.901,11.331l0.144,4.968c-7.416,0.936-49.104,6.192-52.272,6.552c-8.064,1.008-5.4-7.704,0.36-8.496
		C12.47,13.419,49.118,11.475,57.901,11.331L57.901,11.331z M69.494,15.435l-0.144-4.68c7.776-0.576,47.016-3.312,53.208-2.88
		c10.584,0.72,8.496,6.48-0.576,6.696C119.605,14.643,79.861,14.715,69.494,15.435z"/>
	
		<polygon fill-rule="evenodd" clip-rule="evenodd" fill="none" stroke="#000000" stroke-width="1.4173" stroke-linecap="round" points="
		66.974,24.723 62.078,24.867 62.582,34.299 67.045,34.011 	"/>
	<path fill-rule="evenodd" clip-rule="evenodd" fill="none" stroke="#000000" stroke-width="1.4173" stroke-linecap="round" d="
		M179.293,27.171c1.656,0.648,3.024,1.8,3.744,3.24c1.08-0.864,3.744-2.664,7.344-2.592c6.696,0.072,5.688,8.784-1.584,8.28
		c-2.304-0.144-4.176-0.936-5.4-1.656c-0.504,1.656-1.728,3.024-3.312,3.816c0.72,1.296,1.728,3.456,1.944,5.04
		c0.936,7.632-8.496,8.352-8.136,0.936c0.072-2.016,0.72-4.104,1.224-5.472c-1.872-0.36-3.456-1.512-4.32-2.952
		c-9.648,6.408-16.704-5.04-6.84-6.12c2.16-0.216,4.968,0.792,6.336,1.368c0.648-1.872,2.232-3.384,4.32-3.96
		c-0.504-1.368-1.296-3.96-1.44-5.904c-0.36-7.2,10.224-8.784,7.992,1.512C180.733,24.723,179.941,26.235,179.293,27.171
		L179.293,27.171z M176.414,30.267c1.44,0,2.664,1.008,2.664,2.376c0,1.296-1.224,2.304-2.664,2.304s-2.664-1.008-2.664-2.304
		C173.75,31.275,174.974,30.267,176.414,30.267z"/>
	<path fill-rule="evenodd" clip-rule="evenodd" fill="none" stroke="#000000" stroke-width="1.4173" stroke-linecap="round" d="
		M41.054,82.395h3.816c-0.072,2.664-0.216,8.784-0.288,11.016c8.856-0.36,19.368-0.864,28.944-1.44l0.144-11.376
		c0.144,0,3.96-0.504,3.96-0.504l-0.216,11.592c11.664-0.792,21.312-1.656,24.048-2.448c6.264-1.872,6.912-7.848,7.2-9.72
		c0.216-1.728,2.808-1.008,2.88,0.648c-1.152,8.352-6.336,11.88-13.968,12.528c-15.12,1.224-60.624,4.824-70.344,4.392
		c-9.144-0.36-11.736-5.688-12.456-7.992c-0.576-1.728,2.016-3.168,2.664-1.656c0.72,1.656,2.736,5.328,7.344,6.12
		c1.728,0.216,7.848,0.216,15.984-0.072L41.054,82.395z"/>
	<path fill-rule="evenodd" clip-rule="evenodd" fill="none" stroke="#000000" stroke-width="1.4173" stroke-linecap="round" d="
		M54.302,51.651v-0.864c-1.008-0.864-4.464-0.792-5.544,2.448c-0.936,2.736-0.144,9.936,0.144,12.168
		c0.216,1.656-3.024,2.376-4.32,2.592c-1.944,0.36-3.528-0.072-5.256-0.216c-2.016-0.216-2.952,1.872-2.808,3.816
		c0.144,1.944,1.8,2.664,1.8,2.664l14.976-0.216L54.302,51.651z"/>
	<path fill-rule="evenodd" clip-rule="evenodd" fill="none" stroke="#000000" stroke-width="1.4173" stroke-linecap="round" d="
		M75.109,58.275l-2.448,0.216c-0.216,1.224-0.648,12.888-0.864,15.408l2.592-0.072C74.534,71.307,74.965,61.443,75.109,58.275z"/>
	<path fill-rule="evenodd" clip-rule="evenodd" fill="none" stroke="#000000" stroke-width="1.4173" stroke-linecap="round" d="
		M59.27,59.139l0.144-3.168c2.376-0.072,21.528-0.432,27.648-1.008c0,0.072-0.072,2.592-0.072,2.592
		C82.238,57.915,59.27,59.139,59.27,59.139z"/>
</g>
</svg>
