<?xml version="1.0" encoding="utf-8"?>
<!-- Generator: Adobe Illustrator 13.0.0, SVG Export Plug-In . SVG Version: 6.00 Build 14948)  -->
<!DOCTYPE svg PUBLIC "-//W3C//DTD SVG 1.1//EN" "http://www.w3.org/Graphics/SVG/1.1/DTD/svg11.dtd">
<svg version="1.1" id="Layer_1" xmlns="http://www.w3.org/2000/svg" xmlns:xlink="http://www.w3.org/1999/xlink" x="0px" y="0px"
	 width="200.227px" height="155.504px" viewBox="0 0 200.227 155.504" enable-background="new 0 0 200.227 155.504"
	 xml:space="preserve">
<g>
	<path fill="none" stroke="#000000" stroke-width="1.4173" stroke-linecap="round" d="M46.114,69.764
		c-0.288,0.432-7.416,5.76-7.344,10.008c0.072,4.32,3.456,5.04,3.744,5.04"/>
	<path fill-rule="evenodd" clip-rule="evenodd" fill="none" stroke="#000000" stroke-width="1.4173" stroke-linecap="round" d="
		M41.002,74.588l0.144-0.144c-6.192-2.448,0-9.576,5.4-13.248c5.472-3.672,15.48-9.216,27.144-8.856s15.984,11.376,10.584,20.808
		C78.802,82.58,70.306,90.5,62.458,92.66c-7.776,2.088-11.232-2.304-11.232-2.304s-3.6,0.864-6.552-0.432
		c-2.952-1.296-2.232-5.184-2.232-5.184s-2.16,0.36-3.456-2.736C37.618,78.836,41.002,74.588,41.002,74.588z"/>
	<path fill-rule="evenodd" clip-rule="evenodd" fill="none" stroke="#000000" stroke-width="1.4173" stroke-linecap="round" d="
		M49.282,77.972c-0.36,0.432-7.488,4.608-6.84,8.64c0.504,3.312,4.392,4.464,8.784,3.528 M51.226,90.14
		c0.864-0.216,1.8-0.504,2.736-0.864c5.328-2.232,7.992-3.744,7.992-3.744"/>
	<path fill-rule="evenodd" clip-rule="evenodd" fill="none" stroke="#000000" stroke-width="1.4173" stroke-linecap="round" d="
		M44.53,42.188c0,0,5.04,9.936,16.92,8.136c11.952-1.8,19.512-9.288,19.512-9.288s5.832-16.416,12.096-22.608
		c6.264-6.264,13.608-6.048,18.648-3.096c5.112,2.952,7.2,7.56,7.2,7.992c0,0.36-1.944,4.104-2.448,5.4
		c-0.504,1.368-0.72,3.456-0.72,3.456s-6.624,4.608-6.84,10.728c-0.216,6.12,0.288,16.776-0.864,24.696
		c-1.152,7.992-5.4,21.024-11.232,26.064c-5.904,5.04-11.592,10.656-23.616,13.752c-12.096,3.024-18.072,0.864-18.072,0.864
		s-5.4-1.224-7.992-2.52c-2.592-1.368-14.76-7.056-19.728-15.624c-5.04-8.496-10.584-19.08-11.664-24.408
		c-1.008-5.328-2.016-11.16-2.016-11.16S3.85,44.42,3.13,42.764C2.338,41.108-0.758,32.18,1.546,27.356
		c2.376-4.824,6.336-4.464,6.336-4.464s-0.864-7.56,4.752-8.712c5.688-1.224,8.496,2.592,9,3.168
		c0.576,0.576,1.224,1.512,1.224,1.512s0.864-7.992,6.984-7.776c6.048,0.216,7.776,7.272,7.992,7.848
		c0.216,0.504,0.504,1.872,0.504,1.872s2.808-4.536,7.704-3.24c4.968,1.368,3.528,9.216,2.52,13.32
		C47.626,34.988,44.602,41.468,44.53,42.188z"/>
	<path fill-rule="evenodd" clip-rule="evenodd" fill="none" stroke="#000000" stroke-width="1.4173" stroke-linecap="round" d="
		M7.954,23.036c0,0,4.032,2.664,7.704,7.992c3.744,5.328,5.472,10.512,5.472,10.512"/>
	<path fill-rule="evenodd" clip-rule="evenodd" fill="none" stroke="#000000" stroke-width="1.4173" stroke-linecap="round" d="
		M22.786,18.788c0,0,2.736,5.832,4.032,11.232c1.296,5.4,2.16,10.512,3.024,11.52"/>
	<path fill-rule="evenodd" clip-rule="evenodd" fill="none" stroke="#000000" stroke-width="1.4173" stroke-linecap="round" d="
		M38.194,20.876c0,0,2.16,11.808,1.656,16.2"/>
	<path fill-rule="evenodd" clip-rule="evenodd" fill="none" stroke="#000000" stroke-width="1.4173" stroke-linecap="round" d="
		M118.906,23.612c0,0,2.304,2.016,3.168,5.112c0.936,3.024,0.72,5.184,0.72,5.184s-3.168-0.288-4.536-0.576
		c-1.368-0.36-3.096-0.648-2.736-1.008C115.954,31.964,116.026,28.508,118.906,23.612z"/>
	<path fill-rule="evenodd" clip-rule="evenodd" fill="none" stroke="#000000" stroke-width="1.4173" stroke-linecap="round" d="
		M115.522,32.468c-0.144,0.36-0.288,4.536,0.288,7.992c0.576,3.384,0.648,7.704-1.008,9.864c-1.656,2.088-3.528,1.224-4.392,1.08
		c-0.792-0.216-1.44-0.648-1.44-0.648s-1.152-6.264,0.216-10.08C110.554,36.86,114.73,32.9,115.522,32.468z"/>
	<path fill-rule="evenodd" clip-rule="evenodd" fill="none" stroke="#000000" stroke-width="1.4173" stroke-linecap="round" d="
		M118.186,21.092c-6.048-7.776-13.392-9.36-21.816-5.76c0,0-4.536-7.488-1.656-9.504c2.808-1.944,5.04-0.72,5.04-0.72
		s1.872-4.608,2.808-4.392s2.232,1.872,2.232,1.872s2.376-1.872,3.096-1.8c0.792,0.144,2.232,3.024,2.232,3.024
		s4.824-2.376,5.76-1.872c0.864,0.576,0.648,6.12,0.648,6.12s6.768,0.288,7.128,1.44C124.09,10.652,123.226,17.78,118.186,21.092z"
		/>
	<path fill-rule="evenodd" clip-rule="evenodd" fill="none" stroke="#000000" stroke-width="1.4173" stroke-linecap="round" d="
		M108.61,26.564c1.368,0,2.592-1.224,2.592-2.664s-1.224-2.592-2.592-2.592c-1.44,0-2.592,1.152-2.592,2.592
		S107.17,26.564,108.61,26.564z"/>
	<path fill-rule="evenodd" clip-rule="evenodd" fill="none" stroke="#000000" stroke-width="1.4173" stroke-linecap="round" d="
		M109.186,26.276c0.792,0,1.44-0.72,1.44-1.512s-0.648-1.512-1.44-1.512c-0.864,0-1.512,0.72-1.512,1.512
		S108.322,26.276,109.186,26.276z"/>
	<path fill-rule="evenodd" clip-rule="evenodd" fill="none" stroke="#000000" stroke-width="1.4173" stroke-linecap="round" d="
		M57.562,103.316c-1.224,0.072-3.024-0.288-5.544-1.296c0,0-4.32,12.816-6.048,14.112c-1.8,1.296-11.16,5.04-10.368,7.416
		c0.72,2.448,5.184-0.648,6.912-1.368c1.728-0.648,3.96-0.36,4.32,0.144c0.432,0.504,3.816,4.608,6.408,5.904
		c2.592,1.368,4.824,1.152,5.112-0.504c1.944-0.288,2.448-2.52,0.648-3.312c-1.8-0.72-6.984-4.752-7.416-6.84
		S57.562,103.316,57.562,103.316z"/>
	<path fill-rule="evenodd" clip-rule="evenodd" fill="none" stroke="#000000" stroke-width="1.4173" stroke-linecap="round" d="
		M51.874,121.1c0,0,2.376,2.592,3.816,3.744c1.44,1.152,2.664,2.016,2.592,2.88"/>
	<path fill-rule="evenodd" clip-rule="evenodd" fill="none" stroke="#000000" stroke-width="1.4173" stroke-linecap="round" d="
		M50.002,100.868c0,0,5.472,3.6,10.656,2.088"/>
	<path fill-rule="evenodd" clip-rule="evenodd" fill="none" stroke="#000000" stroke-width="1.4173" stroke-linecap="round" d="
		M69.586,102.38c0,0-5.688,2.376-9.72,0.648"/>
	<path fill-rule="evenodd" clip-rule="evenodd" fill="none" stroke="#000000" stroke-width="1.4173" stroke-linecap="round" d="
		M52.738,102.236c0,0-4.896-0.504-7.416-2.376"/>
	<path fill-rule="evenodd" clip-rule="evenodd" fill="none" stroke="#000000" stroke-width="1.4173" stroke-linecap="round" d="
		M84.418,120.02c-1.008-0.144-4.536,0.36-6.696-0.864"/>
	<path fill-rule="evenodd" clip-rule="evenodd" fill="none" stroke="#000000" stroke-width="1.4173" stroke-linecap="round" d="
		M72.682,107.78l-5.112,0.792c0,0,0.144,4.896-0.792,6.48s-5.04,3.312-6.048,3.744s-2.52,0.576-2.088,2.664
		c0.432,2.088,4.968,0.36,6.192-0.216c1.152-0.576,5.328-0.936,7.2-0.216c1.8,0.792,3.456,2.448,6.84,2.808
		c3.312,0.36,5.616-0.432,6.192-1.296c0.576-0.864,0.36-2.376-0.648-2.52c0.792-2.952-2.232-2.088-5.112-2.376
		c-2.952-0.216-5.616-1.224-6.408-2.952C72.178,113.036,72.682,107.78,72.682,107.78z"/>
	<path fill-rule="evenodd" clip-rule="evenodd" fill="none" stroke="#000000" stroke-width="1.4173" stroke-linecap="round" d="
		M136.762,126.5c5.976,0,10.8,4.896,10.8,10.944c0,5.976-4.824,10.872-10.8,10.872c-4.32,0-8.064-2.592-9.792-6.336
		c-3.672,2.016-11.16,4.752-18.576,0.144c-10.296-6.48-8.928-31.176-8.928-31.176s1.08,1.152,3.024,1.944
		c2.016,0.864,9.648,0.432,17.424,2.448c5.688,1.512,9.864,8.64,11.736,12.456C133.162,126.932,134.89,126.5,136.762,126.5z"/>
	<path fill-rule="evenodd" clip-rule="evenodd" fill="none" stroke="#000000" stroke-width="1.4173" stroke-linecap="round" d="
		M120.85,138.236c-7.344,0.792-11.808-4.536-12.888-8.928c-1.152-4.464-0.648-8.352,0.576-8.928
		c1.224-0.504,3.384,1.008,5.616,0.864c1.944-0.072,8.064,0.288,10.368,3.888C126.97,128.948,126.898,137.588,120.85,138.236z"/>
	<path fill-rule="evenodd" clip-rule="evenodd" fill="none" stroke="#000000" stroke-width="1.4173" stroke-linecap="round" d="
		M137.482,140.972c1.368,0,2.52-1.152,2.52-2.52c0-1.368-1.152-2.52-2.52-2.52c-1.44,0-2.52,1.152-2.52,2.52
		C134.962,139.82,136.042,140.972,137.482,140.972z"/>
	<path fill-rule="evenodd" clip-rule="evenodd" stroke="#000000" stroke-width="1.4173" stroke-linecap="round" d="M137.338,140.612
		c0.792,0,1.44-0.648,1.44-1.44c0-0.72-0.648-1.368-1.44-1.368c-0.72,0-1.368,0.648-1.368,1.368
		C135.97,139.964,136.618,140.612,137.338,140.612z"/>
	
		<line fill-rule="evenodd" clip-rule="evenodd" fill="none" stroke="#000000" stroke-width="1.4173" stroke-linecap="round" x1="104.362" y1="138.308" x2="103.858" y2="150.548"/>
	<path fill-rule="evenodd" clip-rule="evenodd" fill="none" stroke="#000000" stroke-width="1.4173" stroke-linecap="round" d="
		M99.898,150.836c0,0,3.528-0.36,3.96-0.072c0.504,0.288,3.6,4.032,3.6,4.032"/>
	<path fill-rule="evenodd" clip-rule="evenodd" fill="none" stroke="#000000" stroke-width="1.4173" stroke-linecap="round" d="
		M108.826,152.924c-0.216-0.216-4.464-2.592-4.968-2.52"/>
	<path fill-rule="evenodd" clip-rule="evenodd" fill="none" stroke="#000000" stroke-width="1.4173" stroke-linecap="round" d="
		M113.074,144.356c0,0.648-0.072,6.696-0.072,6.696"/>
	<path fill-rule="evenodd" clip-rule="evenodd" fill="none" stroke="#000000" stroke-width="1.4173" stroke-linecap="round" d="
		M109.186,151.052c0.288,0,3.528,0.144,3.744,0.216c0.216,0.072,4.32,2.52,4.464,2.736"/>
	<path fill-rule="evenodd" clip-rule="evenodd" fill="none" stroke="#000000" stroke-width="1.4173" stroke-linecap="round" d="
		M118.33,152.276c-0.36-0.072-4.536-1.512-5.328-1.224"/>
	<path fill-rule="evenodd" clip-rule="evenodd" fill="none" stroke="#000000" stroke-width="1.4173" stroke-linecap="round" d="
		M133.954,147.956c1.512,0.576,3.096,0.576,4.68,0.216c-0.288,0.504-2.88,5.616-3.456,5.976
		C134.674,154.436,134.746,148.46,133.954,147.956z"/>
	<path fill-rule="evenodd" clip-rule="evenodd" fill="none" stroke="#000000" stroke-width="1.4173" stroke-linecap="round" d="
		M153.898,95.324c6.192,0,11.16,5.328,11.16,11.808c0,0.432,0,0.792,0,1.152c3.528-0.216,8.64-0.36,14.4,3.312
		c5.688,3.672,8.64,11.952,12.96,14.688c4.248,2.736,6.696,3.384,6.696,3.384s-9.144,14.544-25.992,10.944
		c-15.048-3.312-19.296-14.544-18.072-21.672c-0.36,0.072-0.72,0.072-1.152,0.072c-6.12,0-11.088-5.328-11.088-11.88
		C142.81,100.652,147.778,95.324,153.898,95.324z"/>
	<path fill-rule="evenodd" clip-rule="evenodd" fill="none" stroke="#000000" stroke-width="1.4173" stroke-linecap="round" d="
		M151.954,109.868c1.512,0,2.736-1.224,2.736-2.736c0-1.44-1.224-2.664-2.736-2.664c-1.44,0-2.664,1.224-2.664,2.664
		C149.29,108.644,150.514,109.868,151.954,109.868z"/>
	<path fill-rule="evenodd" clip-rule="evenodd" fill="none" stroke="#000000" stroke-width="1.4173" stroke-linecap="round" d="
		M144.25,113.54c-0.72-1.728-1.368-3.384-1.656-5.04c-0.072,0.144-5.472,5.04-5.112,5.328
		C137.842,114.116,144.25,113.54,144.25,113.54z"/>
	<path fill-rule="evenodd" clip-rule="evenodd" fill="none" stroke="#000000" stroke-width="1.4173" stroke-linecap="round" d="
		M175.066,136.292c0,0.36,1.296,10.872,1.296,10.872"/>
	<path fill-rule="evenodd" clip-rule="evenodd" fill="none" stroke="#000000" stroke-width="1.4173" stroke-linecap="round" d="
		M169.306,151.844c0,0,5.832-4.392,7.128-4.608c1.368-0.216,6.12,1.08,6.12,1.08"/>
	<path fill-rule="evenodd" clip-rule="evenodd" fill="none" stroke="#000000" stroke-width="1.4173" stroke-linecap="round" d="
		M169.162,148.604c0,0,6.264-1.656,7.056-1.584"/>
	<path fill-rule="evenodd" clip-rule="evenodd" fill="none" stroke="#000000" stroke-width="1.4173" stroke-linecap="round" d="
		M165.994,138.308c0,0.576,0.216,7.416,0.216,7.416"/>
	<path fill-rule="evenodd" clip-rule="evenodd" fill="none" stroke="#000000" stroke-width="1.4173" stroke-linecap="round" d="
		M160.738,149.396c0.216-0.288,4.248-3.528,5.472-3.528s3.888,0.288,3.888,0.288"/>
	<path fill-rule="evenodd" clip-rule="evenodd" fill="none" stroke="#000000" stroke-width="1.4173" stroke-linecap="round" d="
		M159.73,146.588c0.288,0,4.608-1.512,6.192-0.936"/>
	<path fill-rule="evenodd" clip-rule="evenodd" stroke="#000000" stroke-width="1.4173" stroke-linecap="round" d="M151.594,109.58
		c0.792,0,1.44-0.648,1.44-1.368c0-0.792-0.648-1.44-1.44-1.44s-1.368,0.648-1.368,1.44
		C150.226,108.932,150.802,109.58,151.594,109.58z"/>
	<path fill-rule="evenodd" clip-rule="evenodd" fill="none" stroke="#000000" stroke-width="1.4173" stroke-linecap="round" d="
		M162.682,117.644c0,0,3.312-3.816,9-2.664c5.76,1.08,7.128,5.328,8.496,7.776c1.368,2.376,3.816,7.56,4.248,7.56
		c0.432,0-8.784,3.744-15.552-0.504C162.106,125.636,161.458,118.292,162.682,117.644z"/>
</g>
</svg>
