<?xml version="1.0" encoding="utf-8"?>
<!-- Generator: Adobe Illustrator 13.0.0, SVG Export Plug-In . SVG Version: 6.00 Build 14948)  -->
<!DOCTYPE svg PUBLIC "-//W3C//DTD SVG 1.1//EN" "http://www.w3.org/Graphics/SVG/1.1/DTD/svg11.dtd">
<svg version="1.1" id="Layer_1" xmlns="http://www.w3.org/2000/svg" xmlns:xlink="http://www.w3.org/1999/xlink" x="0px" y="0px"
	 width="348.616px" height="292.618px" viewBox="0 0 348.616 292.618" enable-background="new 0 0 348.616 292.618"
	 xml:space="preserve">
<rect id="House_13" x="56.358" y="173.037" fill-rule="evenodd" clip-rule="evenodd" fill="none" stroke="#231F20" stroke-width="1.4173" stroke-linecap="round" width="57.384" height="51.264"/>
<line id="House_12" fill-rule="evenodd" clip-rule="evenodd" fill="none" stroke="#231F20" stroke-width="1.4173" stroke-linecap="round" x1="85.014" y1="173.037" x2="85.014" y2="224.373"/>
<line id="House_11" fill-rule="evenodd" clip-rule="evenodd" fill="none" stroke="#231F20" stroke-width="1.4173" stroke-linecap="round" x1="56.502" y1="198.669" x2="113.526" y2="198.669"/>
<rect id="House_10" x="233.55" y="173.037" fill-rule="evenodd" clip-rule="evenodd" fill="none" stroke="#231F20" stroke-width="1.4173" stroke-linecap="round" width="57.384" height="51.264"/>
<line id="House_9" fill-rule="evenodd" clip-rule="evenodd" fill="none" stroke="#231F20" stroke-width="1.4173" stroke-linecap="round" x1="262.206" y1="173.037" x2="262.206" y2="224.373"/>
<line id="House_8" fill-rule="evenodd" clip-rule="evenodd" fill="none" stroke="#231F20" stroke-width="1.4173" stroke-linecap="round" x1="233.694" y1="198.669" x2="290.718" y2="198.669"/>
<path id="House_7" fill-rule="evenodd" clip-rule="evenodd" fill="none" stroke="#231F20" stroke-width="1.4173" stroke-linecap="round" d="
	M175.014,145.677c18.432,0,33.48-14.976,33.48-33.48c0-18.432-15.048-33.48-33.48-33.48s-33.48,15.048-33.48,33.48
	C141.534,130.701,156.582,145.677,175.014,145.677z"/>
<polygon id="House_6" fill-rule="evenodd" clip-rule="evenodd" fill="none" stroke="#231F20" stroke-width="1.4173" stroke-linecap="round" points="
	347.526,130.341 334.278,143.157 174.366,26.733 15.246,145.677 1.062,130.701 174.798,0.885 "/>
<polygon id="House_5" fill-rule="evenodd" clip-rule="evenodd" fill="none" stroke="#231F20" stroke-width="1.4173" stroke-linecap="round" points="
	319.446,132.429 319.446,291.837 27.27,291.837 27.27,136.749 174.366,26.733 "/>
<polygon id="House_4" fill-rule="evenodd" clip-rule="evenodd" fill="none" stroke="#231F20" stroke-width="1.4173" stroke-linecap="round" points="
	247.734,22.773 287.334,22.773 287.334,85.197 247.734,55.533 "/>
<path id="House_3" fill-rule="evenodd" clip-rule="evenodd" fill="none" stroke="#231F20" stroke-width="1.4173" stroke-linecap="round" d="
	M246.726,8.733h41.616c1.872,0,3.384,1.512,3.384,3.384v7.128c0,1.944-1.512,3.456-3.384,3.456h-41.616
	c-1.872,0-3.384-1.512-3.384-3.456v-7.128C243.342,10.245,244.854,8.733,246.726,8.733z"/>
<rect id="House_2" x="141.534" y="182.829" fill-rule="evenodd" clip-rule="evenodd" fill="none" stroke="#231F20" stroke-width="1.4173" stroke-linecap="round" width="63.648" height="109.08"/>
<path id="House_1" fill-rule="evenodd" clip-rule="evenodd" fill="none" stroke="#231F20" stroke-width="1.4173" stroke-linecap="round" d="
	M152.262,244.749c3.312,0,6.048-2.736,6.048-6.12c0-3.312-2.736-6.048-6.048-6.048c-3.384,0-6.12,2.736-6.12,6.048
	C146.142,242.013,148.878,244.749,152.262,244.749z"/>
</svg>
