<?xml version="1.0" encoding="utf-8"?>
<!-- Generator: Adobe Illustrator 13.0.0, SVG Export Plug-In . SVG Version: 6.00 Build 14948)  -->
<!DOCTYPE svg PUBLIC "-//W3C//DTD SVG 1.1//EN" "http://www.w3.org/Graphics/SVG/1.1/DTD/svg11.dtd">
<svg version="1.1" id="Layer_1" xmlns="http://www.w3.org/2000/svg" xmlns:xlink="http://www.w3.org/1999/xlink" x="0px" y="0px"
	 width="187.913px" height="186.442px" viewBox="0 0 187.913 186.442" enable-background="new 0 0 187.913 186.442"
	 xml:space="preserve">
<g>
	
		<rect x="29.27" y="83.743" fill-rule="evenodd" clip-rule="evenodd" fill="none" stroke="#000000" stroke-width="5.6693" stroke-linecap="round" width="131.76" height="99.864"/>
	<path fill-rule="evenodd" clip-rule="evenodd" fill="none" stroke="#000000" stroke-width="5.6693" stroke-linecap="round" d="
		M67.574,183.535h55.152v-70.056c0-2.16-0.936-3.888-2.016-3.888H69.518c-1.08,0-1.944,1.728-1.944,3.888V183.535z"/>
	<path fill-rule="evenodd" clip-rule="evenodd" fill="none" stroke="#000000" stroke-width="2.8346" stroke-linecap="round" d="
		M95.582,68.695c10.224,0,18.504-8.496,18.504-18.864c0-10.44-8.28-18.936-18.504-18.936c-10.152,0-18.504,8.496-18.504,18.936
		C77.078,60.199,85.43,68.695,95.582,68.695z"/>
	<path fill-rule="evenodd" clip-rule="evenodd" fill="none" stroke="#000000" stroke-width="5.6693" stroke-linecap="round" d="
		M95.078,3.751l89.784,77.76l-0.36,2.232H3.638l-0.216-0.504L95.078,3.751L95.078,3.751z M95.582,30.895
		c10.224,0,18.504,8.496,18.504,18.936c0,10.368-8.28,18.864-18.504,18.864c-10.152,0-18.504-8.496-18.504-18.864
		C77.078,39.391,85.43,30.895,95.582,30.895z"/>
</g>
</svg>
