<?xml version="1.0" encoding="utf-8"?>
<!-- Generator: Adobe Illustrator 13.0.0, SVG Export Plug-In . SVG Version: 6.00 Build 14948)  -->
<!DOCTYPE svg PUBLIC "-//W3C//DTD SVG 1.1//EN" "http://www.w3.org/Graphics/SVG/1.1/DTD/svg11.dtd">
<svg version="1.1" id="Layer_1" xmlns="http://www.w3.org/2000/svg" xmlns:xlink="http://www.w3.org/1999/xlink" x="0px" y="0px"
	 width="144.916px" height="191.023px" viewBox="0 0 144.916 191.023" enable-background="new 0 0 144.916 191.023"
	 xml:space="preserve">
<g>
	<path fill-rule="evenodd" clip-rule="evenodd" fill="none" stroke="#000000" stroke-width="1.4173" stroke-linecap="round" d="
		M8.367,75.661c0,0,14.472,17.352,68.976,14.472c54.648-2.808,59.04-17.928,59.04-17.928s10.872,6.192,6.984,20.232
		c-3.96,14.04-24.408,8.496-24.408,8.496s-4.464,9.936-15.624,9.792c-11.232-0.216-12.6-7.848-12.6-7.848s-5.04,3.96-9.648,2.88
		s-5.472-2.16-5.472-2.16s-6.552,9.288-15.264,7.632c-8.712-1.584-9.792-5.832-9.792-5.832s-7.056,3.168-13.104,1.08
		c-6.048-2.16-7.848-6.264-7.848-6.264s-17.784,8.712-26.136-4.248C-4.881,83.077,8.367,75.661,8.367,75.661z"/>
	<path fill-rule="evenodd" clip-rule="evenodd" fill="none" stroke="#000000" stroke-width="1.4173" stroke-linecap="round" d="
		M72.015,0.708c35.784,0,65.016,27.432,65.016,60.984c0,3.96-0.432,7.848-1.152,11.592c-2.304,3.528-12.816,14.472-58.536,16.848
		c-49.392,2.592-65.88-11.376-68.544-14.04c-1.224-4.608-1.872-9.432-1.872-14.4C6.927,28.141,36.159,0.708,72.015,0.708z"/>
	
		<polygon fill-rule="evenodd" clip-rule="evenodd" fill="none" stroke="#000000" stroke-width="1.4173" stroke-linecap="round" points="
		29.679,130.741 107.079,147.805 96.063,167.821 41.055,152.341 	"/>
	<path fill-rule="evenodd" clip-rule="evenodd" fill="none" stroke="#000000" stroke-width="1.4173" stroke-linecap="round" d="
		M15.855,103.021c1.728,3.6,7.272,14.832,13.968,27.792l77.328,16.92c10.08-19.296,19.656-39.888,22.32-45.792
		c-5.544,0.36-10.512-1.008-10.512-1.008s-4.464,9.936-15.624,9.792c-11.232-0.216-12.6-7.848-12.6-7.848s-5.04,3.96-9.648,2.88
		s-5.472-2.16-5.472-2.16s-6.552,9.288-15.264,7.632c-8.712-1.584-9.792-5.832-9.792-5.832s-7.056,3.168-13.104,1.08
		c-6.048-2.16-7.848-6.264-7.848-6.264S22.911,103.525,15.855,103.021L15.855,103.021z M41.055,152.197
		c6.768,12.672,13.32,24.12,17.208,29.088c7.848,10.008,14.04,12.096,24.84,4.248c3.168-2.304,7.848-9,12.96-17.712L41.055,152.197z
		"/>
</g>
</svg>
