<?xml version="1.0" encoding="utf-8"?>
<!-- Generator: Adobe Illustrator 13.0.0, SVG Export Plug-In . SVG Version: 6.00 Build 14948)  -->
<!DOCTYPE svg PUBLIC "-//W3C//DTD SVG 1.1//EN" "http://www.w3.org/Graphics/SVG/1.1/DTD/svg11.dtd">
<svg version="1.1" id="Layer_1" xmlns="http://www.w3.org/2000/svg" xmlns:xlink="http://www.w3.org/1999/xlink" x="0px" y="0px"
	 width="84.073px" height="191.039px" viewBox="0 0 84.073 191.039" enable-background="new 0 0 84.073 191.039"
	 xml:space="preserve">
<g>
	<path fill-rule="evenodd" clip-rule="evenodd" fill="none" stroke="#000000" stroke-width="1.4173" stroke-linecap="round" d="
		M56.004,142.477H28.069v34.488c0,17.568,27.936,18.072,27.936,0V142.477z"/>
	<path fill-rule="evenodd" clip-rule="evenodd" fill="none" stroke="#000000" stroke-width="1.4173" stroke-linecap="round" d="
		M27.781,25.621h2.232c2.664,0,4.824,2.376,4.824,5.328v83.52c0,3.024-2.16,5.4-4.824,5.4h-2.232c-2.664,0-4.896-2.376-4.896-5.4
		v-83.52C22.885,27.997,25.117,25.621,27.781,25.621L27.781,25.621z M54.061,25.621h2.232c2.664,0,4.896,2.376,4.896,5.328v83.52
		c0,3.024-2.232,5.4-4.896,5.4h-2.232c-2.664,0-4.824-2.376-4.824-5.4v-83.52C49.237,27.997,51.396,25.621,54.061,25.621z"/>
	<path fill-rule="evenodd" clip-rule="evenodd" fill="none" stroke="#000000" stroke-width="1.4173" stroke-linecap="round" d="
		M83.365,142.477H0.708V32.965c0-17.712,14.544-32.256,32.328-32.256h18c17.784,0,32.328,14.544,32.328,32.256V142.477
		L83.365,142.477z M27.781,25.621h2.232c2.664,0,4.824,2.376,4.824,5.328v83.52c0,3.024-2.16,5.4-4.824,5.4h-2.232
		c-2.664,0-4.896-2.376-4.896-5.4v-83.52C22.885,27.997,25.117,25.621,27.781,25.621L27.781,25.621z M54.061,25.621h2.232
		c2.664,0,4.896,2.376,4.896,5.328v83.52c0,3.024-2.232,5.4-4.896,5.4h-2.232c-2.664,0-4.824-2.376-4.824-5.4v-83.52
		C49.237,27.997,51.396,25.621,54.061,25.621z"/>
</g>
</svg>
