<?xml version="1.0" encoding="utf-8"?>
<!-- Generator: Adobe Illustrator 13.0.0, SVG Export Plug-In . SVG Version: 6.00 Build 14948)  -->
<!DOCTYPE svg PUBLIC "-//W3C//DTD SVG 1.1//EN" "http://www.w3.org/Graphics/SVG/1.1/DTD/svg11.dtd">
<svg version="1.1" id="Layer_1" xmlns="http://www.w3.org/2000/svg" xmlns:xlink="http://www.w3.org/1999/xlink" x="0px" y="0px"
	 width="125.689px" height="185.332px" viewBox="0 0 125.689 185.332" enable-background="new 0 0 125.689 185.332"
	 xml:space="preserve">
<g>
	<path fill-rule="evenodd" clip-rule="evenodd" fill="none" stroke="#000000" stroke-width="1.4173" stroke-linecap="round" d="
		M33.109,22.236c14.4,0,26.712,9.216,30.816,21.96c-2.304,4.392-3.672,9.36-3.672,14.688c0,3.312,0.504,6.552,1.512,9.576
		c-5.472,10.008-16.272,16.848-28.656,16.848c-17.856,0-32.4-14.184-32.4-31.536C0.708,36.348,15.253,22.236,33.109,22.236z"/>
	<path fill-rule="evenodd" clip-rule="evenodd" fill="none" stroke="#000000" stroke-width="1.4173" stroke-linecap="round" d="
		M97.549,121.165l-9.432,19.872c-10.08,0.504-34.776,1.44-47.88-1.224l-9.288-20.016c7.776,1.44,26.352,4.392,40.68,3.888
		C81.205,123.396,90.637,122.244,97.549,121.165z"/>
	<path fill-rule="evenodd" clip-rule="evenodd" fill="none" stroke="#000000" stroke-width="1.4173" stroke-linecap="round" d="
		M92.581,90.42c17.856,0,32.4-14.112,32.4-31.536c0-17.352-14.544-31.536-32.4-31.536S60.253,41.532,60.253,58.884
		C60.253,76.309,74.725,90.42,92.581,90.42z"/>
	<path fill-rule="evenodd" clip-rule="evenodd" fill="none" stroke="#000000" stroke-width="1.4173" stroke-linecap="round" d="
		M117.133,79.692c-20.664,22.104-84.888,18.72-106.488-3.24l20.232,43.344c7.776,1.368,26.352,4.392,40.752,3.888
		c9.576-0.288,19.008-1.44,25.92-2.52L117.133,79.692L117.133,79.692z M40.237,139.813l19.8,42.48c1.512,3.168,7.2,3.024,8.64,0.072
		l19.512-41.328C78.037,141.541,53.341,142.477,40.237,139.813z"/>
	<path fill-rule="evenodd" clip-rule="evenodd" fill="none" stroke="#000000" stroke-width="1.4173" stroke-linecap="round" d="
		M65.005,18.204c3.096,0,5.616-3.96,5.616-8.784c0-4.824-2.52-8.712-5.616-8.712c-3.096,0-5.616,3.888-5.616,8.712
		C59.389,14.244,61.909,18.204,65.005,18.204z"/>
	<path fill-rule="evenodd" clip-rule="evenodd" fill="none" stroke="#000000" stroke-width="1.4173" stroke-linecap="round" d="
		M69.829,13.957c10.368,1.296,18.936,6.48,22.752,13.392c-12.528,0-23.4,6.984-28.8,17.064c0.072-0.072,0.072-0.144,0.144-0.216
		c-3.456-10.656-12.6-18.936-23.976-21.312c4.608-4.752,11.88-8.136,20.232-9.072c0.936,2.664,2.736,4.392,4.824,4.392
		C67.021,18.204,68.821,16.477,69.829,13.957L69.829,13.957z M116.989,79.62l0.144,0.072c-1.368,1.512-3.024,2.952-4.896,4.248
		C113.965,82.645,115.549,81.204,116.989,79.62L116.989,79.62z M105.469,87.828c-27,12.528-76.392,7.344-94.824-11.376l0,0
		c5.832,5.472,13.752,8.856,22.464,8.856c12.384,0,23.184-6.84,28.656-16.848v-0.072C65.797,81.132,78.109,90.42,92.581,90.42
		C97.188,90.42,101.509,89.484,105.469,87.828L105.469,87.828z M63.637,44.7"/>
</g>
</svg>
