<?xml version="1.0" encoding="utf-8"?>
<!-- Generator: Adobe Illustrator 13.0.0, SVG Export Plug-In . SVG Version: 6.00 Build 14948)  -->
<!DOCTYPE svg PUBLIC "-//W3C//DTD SVG 1.1//EN" "http://www.w3.org/Graphics/SVG/1.1/DTD/svg11.dtd">
<svg version="1.1" id="Layer_1" xmlns="http://www.w3.org/2000/svg" xmlns:xlink="http://www.w3.org/1999/xlink" x="0px" y="0px"
	 width="424.743px" height="308.917px" viewBox="0 0 424.743 308.917" enable-background="new 0 0 424.743 308.917"
	 xml:space="preserve">
<path id="Lion_32" fill-rule="evenodd" clip-rule="evenodd" fill="none" stroke="#000000" stroke-width="1.4173" stroke-linecap="round" d="
	M308.253,56.704c0,0,18.504-6.408,24.624-5.184c6.192,1.224,28.008,22.176,35.424,43.704s-6.768,29.232-6.768,29.232
	s23.4,24.912,11.376,42.768s-40.032,16.992-50.472,17.28s-31.392-2.808-31.392-2.808s-4.968,8.64-20.664,4.032
	c-15.696-4.608-12.6-15.408-12.6-15.408s-35.064-15.696-47.664-28.008s-16.272-25.56-10.44-31.68
	c5.832-6.192,19.656-11.088,19.656-11.088s12.744-38.16,32.04-50.904s35.352-12.816,43.344-10.08
	C302.708,41.368,308.253,56.704,308.253,56.704z"/>
<path id="Lion_31" fill-rule="evenodd" clip-rule="evenodd" fill="none" stroke="#000000" stroke-width="1.4173" stroke-linecap="round" d="
	M308.253,56.704c0,0,18.504-6.408,24.624-5.184c6.192,1.224,28.008,22.176,35.424,43.704s-6.768,29.232-6.768,29.232
	s23.4,24.912,11.376,42.768s-40.032,16.992-50.472,17.28s-31.392-2.808-31.392-2.808s-4.968,8.64-20.664,4.032
	c-15.696-4.608-12.6-15.408-12.6-15.408s-35.064-15.696-47.664-28.008s-16.272-25.56-10.44-31.68
	c5.832-6.192,19.656-11.088,19.656-11.088s12.744-38.16,32.04-50.904s35.352-12.816,43.344-10.08
	C302.708,41.368,308.253,56.704,308.253,56.704z"/>
<path id="Lion_30" fill-rule="evenodd" clip-rule="evenodd" fill="none" stroke="#000000" stroke-width="1.4173" stroke-linecap="round" d="
	M173.325,133.744c0-3.888,0.288-7.92,1.296-10.872c2.52-7.272,7.272-17.136,7.272-17.136s-5.256,1.368-6.912,2.664
	c-1.656,1.296-3.6,4.896-2.592,1.296c0.936-3.6,2.592-13.608,10.008-21.96c7.344-8.424,12.96-12.816,14.112-13.968
	s-6.624-0.36-9.864,0.792c-3.312,1.152-6.264,2.16-6.264,2.16s11.808-14.256,18.432-19.368c6.552-5.112,16.848-9.504,16.056-9.648
	c-0.792-0.216-7.56-0.72-8.856-0.504c-1.296,0.144,6.408-7.92,13.032-10.656c6.768-2.808,15.768-3.96,15.768-3.96
	s-4.752-5.76-11.16-8.352c-6.336-2.664-8.784-4.464-8.784-4.464s9.288-0.648,19.296,0.648c10.008,1.296,14.256,3.6,14.256,3.6
	s5.904-12.312,11.16-16.416c5.256-4.104,9.864-6.192,9.864-6.192s-4.104,9.36-5.112,11.952c-0.936,2.664-4.104,6.768-4.104,6.768
	s9.864-2.664,16.272-1.512c6.408,1.152,14.112,4.104,14.112,4.104s-3.096-5.76-5.904-8.352c-2.808-2.664-10.008-8.064-7.2-6.912
	c2.736,1.152,9.144,0.792,16.56,6.408c7.416,5.544,12.456,11.448,12.456,11.448s-1.656-6.336-3.24-9.792
	c-1.656-3.456-5.904-14.616-4.464-13.176c1.512,1.512,13.968,10.512,17.424,14.832c3.456,4.248,9.504,12.456,9.504,12.456
	l0.288-15.768c0,0,9.36,15.12,9.72,22.68c0,0,13.968-7.776,28.224-5.976c14.256,1.872,18.36,6.264,18.36,6.264
	s-21.168,6.048-25.056,12.816c-3.96,6.696-4.32,9.864-4.32,9.864s23.832-0.864,33.984,2.736c10.152,3.672,15.12,11.016,15.12,11.016
	s-12.672-3.6-18.576-3.6s-9.36,1.8-9.36,1.8s22.536,9.504,35.496,25.92c12.96,16.416,14.112,22.824,14.112,22.824
	s-17.712-12.456-23.184-15.768c-5.4-3.24-11.304-5.256-11.304-5.256s14.472,14.616,17.712,24.12
	c3.312,9.576,6.12,25.272,6.12,25.272s-9.864-14.76-15.12-19.152c-5.256-4.464-9.216-7.272-9.216-7.272s10.512,23.184,13.968,39.888
	c3.456,16.776,3.6,29.736,2.808,28.728c-0.864-0.936-8.856-18.864-11.16-23.472c-2.304-4.608-5.76-8.856-5.76-7.992
	c0,0.792,1.296,13.896-0.36,25.56c-1.584,11.664-6.408,22.176-6.408,22.176s-6.048-13.464-6.84-15.12
	c-0.864-1.656-2.448-4.248-2.448-4.248s-4.824,19.008-9.72,26.568s-8.208,10.872-8.208,10.872s-4.608-25.488-5.256-27.288
	c-0.648-1.8-9.36,8.064-16.416,12.528c-7.056,4.392-10.512,5.184-10.512,5.184s3.816-5.904,4.104-8.352
	c0.36-2.448,1.368-6.912,1.368-6.912s-9.072,6.264-17.568,8.928c-8.568,2.592-14.616,3.888-13.68,2.592
	c1.008-1.296,9.36-15.12,8.712-13.32c-0.648,1.8-10.656,12.528-11.952,14.328c-1.296,1.8-5.256,5.904-5.256,5.904
	s-1.296-6.912-1.296-9.072c0-2.088,0.648-6.048,0.648-6.048s-4.104,5.4-6.12,9.504c-1.944,4.104-3.6,10.656-3.6,9.864
	s-3.24-10.008-4.896-12.96c-1.656-2.952-4.248-9.216-4.248-9.216s-3.168,6.912-2.952,10.512c0.144,3.6-0.504,10.224-0.504,10.224
	s-12.312-25.992-12.528-24.48c-0.144,1.44-3.6,15.552-3.6,15.552s-3.096-10.008-6.696-16.56c-3.6-6.552-6.408-11.952-6.912-11.16
	c-0.504,0.864-3.096,4.752-3.24,7.416c-0.216,2.592,0.432,5.76-0.504,3.888c-1.008-1.8-3.6-12.6-6.408-17.352
	s-4.248-11.52-4.608-9.864c-0.36,1.656-1.008,6.768-1.008,10.368c0,3.6,0.36,7.704,0.36,7.704s-8.496-10.008-12.744-17.064
	c-4.248-7.056-7.704-19.872-8.064-18.576c-0.288,1.296-0.936,8.208-0.936,12.024c0,3.744,0.504,6.552,0.504,6.552
	s-6.912-13.824-9.216-23.472c-2.304-9.72-1.296-17.064-2.808-15.912c-1.44,1.152-5.112,4.896-7.344,8.64
	c-2.304,3.816-5.616,11.16-5.616,7.56C173.829,144.688,173.253,139.288,173.325,133.744z"/>
<path id="Lion_29" fill-rule="evenodd" clip-rule="evenodd" fill="none" stroke="#000000" stroke-width="1.4173" stroke-linecap="round" d="
	M272.325,100.696c8.208,0,14.976-7.128,14.976-15.912c0-8.784-6.768-15.984-14.976-15.984c-8.28,0-14.976,7.2-14.976,15.984
	C257.349,93.568,264.045,100.696,272.325,100.696z"/>
<path id="Lion_28" fill-rule="evenodd" clip-rule="evenodd" fill="none" stroke="#000000" stroke-width="1.4173" stroke-linecap="round" d="
	M274.701,92.272c3.24,0,5.904-2.88,5.904-6.336s-2.664-6.264-5.904-6.264s-5.904,2.808-5.904,6.264S271.46,92.272,274.701,92.272z"
	/>
<path id="Lion_27" fill-rule="evenodd" clip-rule="evenodd" fill="none" stroke="#000000" stroke-width="1.4173" stroke-linecap="round" d="
	M319.701,108.832c3.24,0,5.904-2.808,5.904-6.264c0-3.528-2.664-6.336-5.904-6.336s-5.904,2.808-5.904,6.336
	C313.797,106.024,316.46,108.832,319.701,108.832z"/>
<path id="Lion_26" fill-rule="evenodd" clip-rule="evenodd" fill="none" stroke="#000000" stroke-width="1.4173" stroke-linecap="round" d="
	M320.637,119.488c7.92,0,14.4-6.912,14.4-15.336c0-8.496-6.48-15.336-14.4-15.336s-14.4,6.84-14.4,15.336
	C306.237,112.576,312.717,119.488,320.637,119.488z"/>
<path id="Lion_25" fill-rule="evenodd" clip-rule="evenodd" stroke="#000000" stroke-width="1.4173" stroke-linecap="round" d="
	M296.373,73.48c0,0-7.704,7.92-10.44,7.128c-2.664-0.792-11.016-15.624-16.2-17.712c-5.256-2.016-7.416-0.288-7.128-2.376
	c0.288-2.016,3.456-10.224,8.712-7.704c5.184,2.52,9,10.08,12.096,16.128c3.168,5.976,2.88,7.992,4.896,7.992
	C290.396,76.936,295.581,72.04,296.373,73.48z"/>
<path id="Lion_24" fill-rule="evenodd" clip-rule="evenodd" stroke="#000000" stroke-width="1.4173" stroke-linecap="round" d="
	M305.157,79.672c-0.072,0.72,2.736,11.304,7.992,10.584c5.256-0.72,15.912-11.376,19.584-9.576c3.6,1.728,5.832,3.096,6.048,2.16
	c0.144-1.008-6.84-14.544-9.36-12.384c-2.448,2.16-14.616,16.488-17.784,15.624S306.813,78.376,305.157,79.672z"/>
<path id="Lion_23" fill-rule="evenodd" clip-rule="evenodd" fill="none" stroke="#000000" stroke-width="1.4173" stroke-linecap="round" d="
	M283.125,106.168c0.144,0.792,3.96,14.544,5.4,15.192c1.512,0.648,13.536-5.544,13.68-6.912
	C302.349,113.08,295.365,106.168,283.125,106.168z"/>
<path id="Lion_22" fill-rule="evenodd" clip-rule="evenodd" fill="none" stroke="#000000" stroke-width="1.4173" stroke-linecap="round" d="
	M250.797,138.712c1.08-6.84,4.536-16.776,12.6-16.416c11.664,0.504,19.224,7.632,21.6,7.776c2.376,0.216,2.52-0.576,2.88,0.216
	c0.432,0.72,3.816,2.52,5.76,2.52c2.016,0,15.336-2.16,21.6,2.448c6.192,4.608,0.864,25.776-5.112,26.64
	c-6.048,0.792-18.144-12.744-30.96-14.328c-6.984-0.864-13.392,0-18.504,0.072C253.029,147.784,249.573,146.344,250.797,138.712z"/>
<path id="Lion_21" fill-rule="evenodd" clip-rule="evenodd" fill="none" stroke="#000000" stroke-width="1.4173" stroke-linecap="round" d="
	M288.525,121.36c0,0.216-1.152,6.408-0.864,8.496"/>
<path id="Lion_20" fill-rule="evenodd" clip-rule="evenodd" fill="none" stroke="#000000" stroke-width="1.4173" stroke-linecap="round" d="
	M255.909,126.112c0,1.008,5.688,12.744,6.624,13.176c1.008,0.504,9-7.2,9.72-6.192c0.792,0.936,4.68,10.08,6.264,9.864
	c1.584-0.288,7.416-7.128,8.28-5.76c0.936,1.296,5.04,9.144,6.624,8.784c1.584-0.288,10.368-7.416,10.944-5.904
	c0.576,1.44,4.824,8.64,5.832,8.496c1.008-0.216,6.912-6.768,7.632-6.768"/>
<path id="Lion_19" fill-rule="evenodd" clip-rule="evenodd" fill="none" stroke="#000000" stroke-width="1.4173" stroke-linecap="round" d="
	M298.749,121.216c-0.216,0.792-1.8,1.584-0.432,1.944c1.44,0.432,3.24-0.864,3.24-0.864S299.396,120.928,298.749,121.216z"/>
<path id="Lion_18" fill-rule="evenodd" clip-rule="evenodd" fill="none" stroke="#000000" stroke-width="1.4173" stroke-linecap="round" d="
	M303.069,125.752c-0.288,0.936-1.728,2.88-0.576,3.096c1.152,0.288,1.8-1.08,1.8-1.44
	C304.292,126.976,303.933,125.824,303.069,125.752z"/>
<path id="Lion_17" fill-rule="evenodd" clip-rule="evenodd" fill="none" stroke="#000000" stroke-width="1.4173" stroke-linecap="round" d="
	M307.533,122.512c0,1.296-0.144,3.24,0.36,3.24s2.376,0,2.016-0.936C309.621,123.952,308.613,122.224,307.533,122.512z"/>
<path id="Lion_16" fill-rule="evenodd" clip-rule="evenodd" fill="none" stroke="#000000" stroke-width="1.4173" stroke-linecap="round" d="
	M264.981,115.384c0,1.296-0.216,3.168,0.288,3.168c0.504,0,2.376,0,2.088-0.864C266.997,116.752,265.989,115.024,264.981,115.384z"
	/>
<path id="Lion_15" fill-rule="evenodd" clip-rule="evenodd" fill="none" stroke="#000000" stroke-width="1.4173" stroke-linecap="round" d="
	M326.253,136.84c0,0,22.104,12.6,29.304,21.744"/>
<path id="Lion_14" fill-rule="evenodd" clip-rule="evenodd" fill="none" stroke="#000000" stroke-width="1.4173" stroke-linecap="round" d="
	M327.981,132.016c0,0,17.064,3.888,25.056,11.664"/>
<path id="Lion_13" fill-rule="evenodd" clip-rule="evenodd" fill="none" stroke="#000000" stroke-width="1.4173" stroke-linecap="round" d="
	M249.285,115.744c0,0-19.224-5.04-27.72-1.152"/>
<path id="Lion_12" fill-rule="evenodd" clip-rule="evenodd" fill="none" stroke="#000000" stroke-width="1.4173" stroke-linecap="round" d="
	M224.876,102.352c0,0,20.376,3.312,29.808,12.024"/>
<path id="Lion_11" fill-rule="evenodd" clip-rule="evenodd" fill="none" stroke="#000000" stroke-width="1.4173" stroke-linecap="round" d="
	M272.973,111.28c-0.288,0.936-1.728,2.88-0.576,3.096c1.152,0.216,1.8-1.08,1.8-1.512
	C274.197,112.504,273.837,111.352,272.973,111.28z"/>
<path id="Lion_10" fill-rule="evenodd" clip-rule="evenodd" fill="none" stroke="#000000" stroke-width="1.4173" stroke-linecap="round" d="
	M261.741,108.472c0,1.368-0.144,3.24,0.36,3.24c0.432,0,2.376,0,2.016-0.936C263.829,109.912,262.821,108.184,261.741,108.472z"/>
<path id="Lion_9" fill-rule="evenodd" clip-rule="evenodd" fill="none" stroke="#000000" stroke-width="1.4173" stroke-linecap="round" d="
	M285.285,282.352c0,0,11.592,7.992,14.832,14.688"/>
<path id="Lion_8" fill-rule="evenodd" clip-rule="evenodd" fill="none" stroke="#000000" stroke-width="1.4173" stroke-linecap="round" d="
	M239.493,297.616l-0.072,0.288c-2.016,4.824-4.824,2.808-4.824,2.808s0.36,4.032-3.672,6.84c-4.032,2.808-24.48-4.032-47.016-8.496
	c-22.536-4.392-56.304,0-62.784-4.392c-6.408-4.392-12.888-43.416-6.408-90.504c6.408-47.088,58.608-70.416,58.608-70.416
	c-0.072,5.544,0.504,10.944,0.504,13.032c0,3.6,3.312-3.744,5.616-7.56c2.232-3.744,5.904-7.488,7.344-8.64
	c1.512-1.152,0.504,6.192,2.808,15.912c2.304,9.648,9.216,23.472,9.216,23.472s-0.504-2.808-0.504-6.552
	c0-3.816,0.648-10.728,0.936-12.024c0.36-1.296,3.816,11.52,8.064,18.576c4.248,7.056,12.744,17.064,12.744,17.064
	s-0.36-4.104-0.36-7.704c0-3.6,0.648-8.712,1.008-10.368c0.36-1.656,1.8,5.112,4.608,9.864s5.4,15.552,6.408,17.352
	c0.936,1.872,0.288-1.296,0.504-3.888c0.144-2.664,2.736-6.552,3.24-7.416c0.504-0.792,3.313,4.608,6.912,11.16
	c3.6,6.552,6.696,16.56,6.696,16.56s3.456-14.112,3.6-15.552c0.216-1.512,12.528,24.48,12.528,24.48s0.648-6.624,0.504-10.224
	c-0.216-3.6,2.952-10.512,2.952-10.512s2.592,6.264,4.248,9.216c1.656,2.952,4.896,12.168,4.896,12.96s1.656-5.76,3.6-9.864
	c2.016-4.104,6.12-9.504,6.12-9.504s-0.648,3.96-0.648,6.048c0,2.16,1.44,9.144,1.44,9.144c0,1.44-2.736,11.808-3.456,23.112
	c-0.72,11.232,0.576,16.344,0.576,16.344s15.48,2.376,21.096,9.288c5.616,6.84,4.176,11.376,4.176,11.376
	s-0.792,11.304-8.496,11.808c-0.288,3.096-2.088,6.192-2.088,6.192s2.592,5.76-2.16,9.288c-4.752,3.456-12.6-0.576-29.088-5.4
	C252.381,295.96,239.493,297.616,239.493,297.616z"/>
<path id="Lion_7" fill-rule="evenodd" clip-rule="evenodd" fill="none" stroke="#000000" stroke-width="1.4173" stroke-linecap="round" d="
	M192.045,236.632c0,0,17.568,9.36,21.384,21.6c3.888,12.168,3.168,21.744,3.168,21.744s11.088,2.592,17.064,7.128
	s5.832,10.368,5.832,10.368"/>
<path id="Lion_6" fill-rule="evenodd" clip-rule="evenodd" fill="none" stroke="#000000" stroke-width="1.4173" stroke-linecap="round" d="
	M222.717,290.632c0,0,9.576,4.464,11.664,10.224"/>
<path id="Lion_5" fill-rule="evenodd" clip-rule="evenodd" fill="none" stroke="#000000" stroke-width="1.4173" stroke-linecap="round" d="
	M232.365,221.872c0,1.512-6.624,51.624-2.664,62.136"/>
<path id="Lion_4" fill-rule="evenodd" clip-rule="evenodd" fill="none" stroke="#000000" stroke-width="1.4173" stroke-linecap="round" d="
	M272.685,222.304c-1.44,4.248-7.416,45.72-5.544,46.44c1.872,0.648,13.32-2.304,23.544,6.552c10.224,9,11.376,13.752,11.52,15.264"
	/>
<path id="Lion_3" fill-rule="evenodd" clip-rule="evenodd" fill="none" stroke="#000000" stroke-width="1.4173" stroke-linecap="round" d="
	M299.685,272.992c0.216,0.36,8.712,1.584,10.44,8.064"/>
<path id="Lion_2" fill-rule="evenodd" clip-rule="evenodd" fill="none" stroke="#000000" stroke-width="1.4173" stroke-linecap="round" d="
	M113.061,263.848c0.432,6.696,1.656,13.248,2.88,19.584c0,0-36.216,9.36-53.928-12.24c-17.784-21.6-9.36-47.088,2.376-62.496
	c11.664-15.336,18.144-31.968,9.504-44.712c-8.64-12.816-29.664-13.464-29.664-13.464s0.648-5.832,3.024-6.048
	c2.376-0.216,33.768,3.672,39.816,20.808c6.048,17.064-8.64,39.744-12.312,47.52c-3.672,7.848-15.12,30.96-3.456,45
	C82.965,271.84,105.213,267.304,113.061,263.848z"/>
<path id="Lion_1" fill-rule="evenodd" clip-rule="evenodd" fill="none" stroke="#000000" stroke-width="1.4173" stroke-linecap="round" d="
	M47.109,143.896c0,0-8.928-14.832-19.152-11.16c-10.224,3.744-18.144,17.712-20.664,19.008c-2.592,1.296-5.976,2.376-5.976,2.376
	s6.768,6.84,22.176,5.904c15.336-0.864,20.592-9.144,20.592-9.144S43.941,146.704,47.109,143.896z"/>
</svg>
