<?xml version="1.0" encoding="utf-8"?>
<!-- Generator: Adobe Illustrator 13.0.0, SVG Export Plug-In . SVG Version: 6.00 Build 14948)  -->
<!DOCTYPE svg PUBLIC "-//W3C//DTD SVG 1.1//EN" "http://www.w3.org/Graphics/SVG/1.1/DTD/svg11.dtd">
<svg version="1.1" id="Layer_1" xmlns="http://www.w3.org/2000/svg" xmlns:xlink="http://www.w3.org/1999/xlink" x="0px" y="0px"
	 width="136.194px" height="198.526px" viewBox="0 0 136.194 198.526" enable-background="new 0 0 136.194 198.526"
	 xml:space="preserve">
<g>
	
		<path id="duck_17" fill-rule="evenodd" clip-rule="evenodd" fill="none" stroke="#000000" stroke-width="1.4173" stroke-linecap="round" d="
		M105.249,172.626l-0.288,0.432c7.848,0.72,23.04,12.456,24.12,15.624c1.008,3.096,0.216,4.752-7.272,6.408
		c-7.488,1.656-31.68,3.6-38.88,2.304c-7.272-1.296-12.672-10.8-12.672-10.8C83.649,186.09,95.889,180.834,105.249,172.626z"/>
	
		<path id="duck_16" fill-rule="evenodd" clip-rule="evenodd" fill="none" stroke="#000000" stroke-width="1.4173" stroke-linecap="round" d="
		M54.921,48.282l-0.216,0.432c0,0-3.816,5.256-3.816,7.488s1.728,8.28,0.072,14.544c-1.584,6.264-2.52,9.72-1.872,11.52
		c0.576,1.872,8.28,4.968,24.048,3.96c15.84-1.008,14.904-4.752,15.12-8.928c0.216-4.104-3.816-13.32-3.528-16.056
		c0.288-2.736,1.656-4.464,0.432-6.768c-1.224-2.304-3.384-5.112-3.384-6.336c-0.72,0.144-1.512,0.216-2.304,0.216
		c-4.824,0-9.144-2.664-11.736-6.768c-2.592,4.104-6.912,6.768-11.808,6.768C55.569,48.354,55.281,48.354,54.921,48.282z"/>
	
		<path id="duck_15" display="none" fill-rule="evenodd" clip-rule="evenodd" fill="none" stroke="#000000" stroke-width="1.4173" stroke-linecap="round" d="
		M55.929,15.594c4.896,0,9.216,2.736,11.808,6.84c2.592-4.104,6.912-6.84,11.736-6.84c8.064,0,14.616,7.416,14.616,16.416
		s-6.552,16.344-14.616,16.344c-4.824,0-9.144-2.664-11.736-6.768c-2.592,4.104-6.912,6.768-11.808,6.768
		c-7.992,0-14.544-7.344-14.544-16.344S47.937,15.594,55.929,15.594z"/>
	
		<path id="duck_14" fill-rule="evenodd" clip-rule="evenodd" fill="none" stroke="#000000" stroke-width="1.4173" stroke-linecap="round" d="
		M54.921,48.282l-0.216,0.432c0,0-3.816,5.256-3.816,7.488s1.728,8.28,0.072,14.544c-0.864,3.528-1.584,6.12-1.872,8.064
		c-13.32-6.912-22.752-21.096-22.752-37.224c0-54.504,82.224-54.504,82.224,0c0,15.12-8.28,28.44-20.304,35.712
		c0.216-4.104-3.816-13.32-3.528-16.056c0.288-2.736,1.656-4.464,0.432-6.768c-1.224-2.304-3.384-5.112-3.384-6.336
		c6.984-1.224,12.312-7.992,12.312-16.128c0-9-6.552-16.416-14.616-16.416c-4.824,0-9.144,2.736-11.736,6.84
		c-2.592-4.104-6.912-6.84-11.808-6.84c-7.992,0-14.544,7.416-14.544,16.416C41.385,40.578,47.361,47.707,54.921,48.282z"/>
	
		<path id="duck_13" fill-rule="evenodd" clip-rule="evenodd" fill="none" stroke="#000000" stroke-width="1.4173" stroke-linecap="round" d="
		M100.137,103.578c0,0,18.288,41.328-9.792,68.04"/>
	
		<path id="duck_12" fill-rule="evenodd" clip-rule="evenodd" fill="none" stroke="#000000" stroke-width="1.4173" stroke-linecap="round" d="
		M105.177,183.066c0,0,10.584,10.152,14.4,11.88"/>
	
		<path id="duck_11" fill-rule="evenodd" clip-rule="evenodd" fill="none" stroke="#000000" stroke-width="1.4173" stroke-linecap="round" d="
		M87.969,189.402c0,0,4.464,6.84,6.768,7.992"/>
	
		<path id="duck_10" fill-rule="evenodd" clip-rule="evenodd" fill="none" stroke="#000000" stroke-width="1.4173" stroke-linecap="round" d="
		M105.249,172.626l0.864-0.288c16.488-4.536,33.048-38.088,28.656-60.984c-4.32-22.752-25.2-17.712-25.2-17.712
		c9.144,9.792,14.688,22.968,14.688,37.368C124.257,147.499,116.913,162.402,105.249,172.626z"/>
	
		<path id="duck_9" fill-rule="evenodd" clip-rule="evenodd" fill="none" stroke="#000000" stroke-width="1.4173" stroke-linecap="round" d="
		M30.945,172.626c9.36,8.208,21.6,13.464,34.992,13.968"/>
	
		<path id="duck_8" fill-rule="evenodd" clip-rule="evenodd" fill="none" stroke="#000000" stroke-width="1.4173" stroke-linecap="round" d="
		M26.625,93.642c-9.144,9.792-14.688,22.968-14.688,37.368c0,16.488,7.344,31.392,19.008,41.616"/>
	
		<path id="duck_7" fill-rule="evenodd" clip-rule="evenodd" fill="none" stroke="#000000" stroke-width="1.4173" stroke-linecap="round" d="
		M36.057,103.578c0,0-18.288,41.328,9.792,68.04"/>
	
		<path id="duck_6" fill-rule="evenodd" clip-rule="evenodd" fill="none" stroke="#000000" stroke-width="1.4173" stroke-linecap="round" d="
		M31.017,183.066c0,0-10.584,10.152-14.4,11.88"/>
	
		<path id="duck_5" fill-rule="evenodd" clip-rule="evenodd" fill="none" stroke="#000000" stroke-width="1.4173" stroke-linecap="round" d="
		M48.225,189.402c0,0-4.464,6.84-6.768,7.992"/>
	
		<path id="duck_4" fill-rule="evenodd" clip-rule="evenodd" fill="none" stroke="#000000" stroke-width="1.4173" stroke-linecap="round" d="
		M30.945,172.626l-0.864-0.288c-16.488-4.536-33.048-38.088-28.656-60.984c4.32-22.752,25.2-17.712,25.2-17.712
		c-9.144,9.792-14.688,22.968-14.688,37.368C11.937,147.499,19.281,162.402,30.945,172.626z"/>
	
		<path id="duck_3" fill-rule="evenodd" clip-rule="evenodd" fill="none" stroke="#000000" stroke-width="1.4173" stroke-linecap="round" d="
		M30.945,172.626l0.288,0.432c-7.848,0.72-23.04,12.456-24.12,15.624c-1.008,3.096-0.216,4.752,7.272,6.408
		c7.488,1.656,31.68,3.6,38.88,2.304c7.272-1.296,12.672-10.8,12.672-10.8C52.545,186.09,40.305,180.834,30.945,172.626z"/>
	
		<path id="duck_2" fill-rule="evenodd" clip-rule="evenodd" fill="none" stroke="#000000" stroke-width="1.4173" stroke-linecap="round" d="
		M70.257,186.594c13.392-0.504,25.632-5.76,34.992-13.968c11.664-10.224,19.008-25.128,19.008-41.616
		c0-14.4-5.544-27.576-14.688-37.368c-5.832-6.336-13.104-11.304-21.312-14.472v-1.872c-0.216,4.176,0.72,7.92-15.12,8.928
		c-15.768,1.008-23.472-2.088-24.048-3.96c-0.288-0.792-0.288-1.872,0-3.456c-20.304,8.712-37.44,24.84-37.44,52.2
		s25.344,55.656,56.376,55.656C68.673,186.667,69.465,186.667,70.257,186.594z"/>
	
		<path id="duck_1" fill-rule="evenodd" clip-rule="evenodd" fill="none" stroke="#000000" stroke-width="1.4173" stroke-linecap="round" d="
		M73.641,28.482c2.52,0,4.68,2.304,4.68,5.04c0,2.808-2.16,5.04-4.68,5.04c-2.592,0-4.68-2.232-4.68-5.04
		C68.961,30.786,71.049,28.482,73.641,28.482L73.641,28.482z M62.337,28.482c2.52,0,4.68,2.304,4.68,5.04
		c0,2.808-2.16,5.04-4.68,5.04c-2.592,0-4.68-2.232-4.68-5.04C57.657,30.786,59.745,28.482,62.337,28.482L62.337,28.482z
		 M61.329,30.642c0.792,0,1.512,0.792,1.512,1.656c0,0.936-0.72,1.656-1.512,1.656c-0.864,0-1.512-0.72-1.512-1.656
		C59.817,31.434,60.465,30.642,61.329,30.642L61.329,30.642z M72.633,30.642c0.792,0,1.512,0.792,1.512,1.656
		c0,0.936-0.72,1.656-1.512,1.656c-0.864,0-1.512-0.72-1.512-1.656C71.121,31.434,71.769,30.642,72.633,30.642z"/>
</g>
</svg>
