<?xml version="1.0" encoding="utf-8"?>
<!-- Generator: Adobe Illustrator 13.0.0, SVG Export Plug-In . SVG Version: 6.00 Build 14948)  -->
<!DOCTYPE svg PUBLIC "-//W3C//DTD SVG 1.1//EN" "http://www.w3.org/Graphics/SVG/1.1/DTD/svg11.dtd">
<svg version="1.1" id="Layer_1" xmlns="http://www.w3.org/2000/svg" xmlns:xlink="http://www.w3.org/1999/xlink" x="0px" y="0px"
	 width="45.635px" height="200.971px" viewBox="0 0 45.635 200.971" enable-background="new 0 0 45.635 200.971"
	 xml:space="preserve">
<g>
	<g>
		<path fill-rule="evenodd" clip-rule="evenodd" fill="none" stroke="#000000" stroke-width="1.4173" stroke-linecap="round" d="
			M30.837,22.514l-0.216,0.072c0,0-1.152-0.072-1.8-0.144c-1.584-0.216-2.448-14.184,1.152-15.408
			c0.36-0.144,7.272-0.792,10.296,1.584c2.304,1.224-3.168,5.76-3.168,5.76c-0.216-2.808-1.512-4.824-1.512-4.824l-0.216-0.288
			c-2.16,1.008-4.32,2.736-5.112,4.464C28.677,16.97,30.837,22.514,30.837,22.514z"/>
		<path fill-rule="evenodd" clip-rule="evenodd" fill="none" stroke="#000000" stroke-width="1.4173" stroke-linecap="round" d="
			M29.181,43.322l-0.216,0.072c0,0-1.224-0.072-1.8-0.144c-1.584-0.216-2.448-14.184,1.152-15.408
			c0.36-0.144,7.272-0.792,10.296,1.584c2.232,1.224-3.168,5.76-3.168,5.76c-0.216-2.736-1.584-4.824-1.584-4.824l-0.144-0.216
			c-2.16,1.008-4.32,2.664-5.184,4.392C27.021,37.778,29.181,43.322,29.181,43.322z"/>
		<path fill-rule="evenodd" clip-rule="evenodd" fill="none" stroke="#000000" stroke-width="1.4173" stroke-linecap="round" d="
			M28.245,62.834l-0.144,0.072c0,0-1.224-0.072-1.8-0.144c-1.656-0.216-2.448-14.184,1.152-15.408
			c0.36-0.144,7.272-0.792,10.296,1.584c2.232,1.224-3.168,5.76-3.168,5.76c-0.216-2.808-1.584-4.824-1.584-4.824l-0.216-0.288
			c-2.16,1.008-4.248,2.736-5.112,4.464C26.157,57.29,28.245,62.834,28.245,62.834z"/>
		<path fill-rule="evenodd" clip-rule="evenodd" fill="none" stroke="#000000" stroke-width="1.4173" stroke-linecap="round" d="
			M34.725,54.482l-0.504,9c-0.432,6.552-11.664,4.176-12.168-2.376c-0.432-5.616,3.096-53.28,3.96-55.656
			c2.808-7.632,10.584-3.888,11.376,1.872c-3.24-0.792-7.128-0.36-7.416-0.288c-3.6,1.224-2.736,15.192-1.152,15.408
			c0.648,0.072,1.8,0.144,1.8,0.144l0.216-0.072c0,0-2.16-5.544-0.576-8.784c0.792-1.728,2.952-3.456,5.112-4.464l0.216,0.288
			c0,0,1.152,1.872,1.44,4.392l-0.648,14.112v0.288c-3.312-1.008-7.776-0.576-8.064-0.504c-3.6,1.224-2.736,15.192-1.152,15.408
			c0.576,0.072,1.8,0.144,1.8,0.144l0.216-0.072c0,0-2.16-5.544-0.648-8.784c0.864-1.728,3.024-3.384,5.184-4.392l0.144,0.216
			c0,0,1.368,2.088,1.584,4.824c0,0,0.216-0.216,0.576-0.504l-0.864,13.032c-3.24-0.864-7.416-0.432-7.704-0.36
			c-3.6,1.224-2.808,15.192-1.152,15.408c0.576,0.072,1.8,0.144,1.8,0.144l0.144-0.072c0,0-2.088-5.544-0.576-8.784
			c0.864-1.728,2.952-3.456,5.112-4.464l0.216,0.288c0,0,1.368,2.016,1.584,4.824C34.581,54.698,34.653,54.626,34.725,54.482z"/>
		<path fill-rule="evenodd" clip-rule="evenodd" fill="none" stroke="#000000" stroke-width="1.4173" stroke-linecap="round" d="
			M35.373,9.266l0.216,0.288c0,0,1.296,2.016,1.512,4.824c0.072,1.08,0,2.232-0.432,3.456c-1.44,4.392-5.832,4.68-5.832,4.68
			s-2.16-5.544-0.576-8.784C31.053,12.002,33.213,10.274,35.373,9.266z"/>
		<path fill-rule="evenodd" clip-rule="evenodd" fill="none" stroke="#000000" stroke-width="1.4173" stroke-linecap="round" d="
			M26.085,187.754c-3.024-15.192-0.288-108.864,0-118.728c0.072-2.736-5.184-2.304-5.256,0.072
			c-0.288,8.64-3.384,104.688,0.072,119.376C21.045,189.266,26.445,189.626,26.085,187.754z"/>
		<path fill-rule="evenodd" clip-rule="evenodd" fill="none" stroke="#000000" stroke-width="1.4173" stroke-linecap="round" d="
			M10.821,191.282c0,0,2.376,4.32,12.96,4.032c10.584-0.36,11.016-4.032,11.016-4.032"/>
		<path fill-rule="evenodd" clip-rule="evenodd" fill="none" stroke="#000000" stroke-width="1.4173" stroke-linecap="round" d="
			M35.373,9.266c1.944-0.864,3.888-1.224,4.896-0.648"/>
		<path fill-rule="evenodd" clip-rule="evenodd" fill="none" stroke="#000000" stroke-width="1.4173" stroke-linecap="round" d="
			M33.717,30.146l0.144,0.216c0,0,1.368,2.088,1.584,4.824c0.072,1.08,0,2.232-0.432,3.528c-1.44,4.32-5.832,4.608-5.832,4.608
			s-2.16-5.544-0.648-8.784C29.397,32.81,31.557,31.154,33.717,30.146z"/>
		<path fill-rule="evenodd" clip-rule="evenodd" fill="none" stroke="#000000" stroke-width="1.4173" stroke-linecap="round" d="
			M33.717,30.146c1.872-0.936,3.888-1.296,4.896-0.72"/>
		<path fill-rule="evenodd" clip-rule="evenodd" fill="none" stroke="#000000" stroke-width="1.4173" stroke-linecap="round" d="
			M32.781,49.586l0.216,0.288c0,0,1.368,2.016,1.584,4.824c0.072,1.08-0.072,2.232-0.432,3.456c-1.44,4.392-5.904,4.68-5.904,4.68
			s-2.088-5.544-0.576-8.784C28.533,52.322,30.621,50.594,32.781,49.586z"/>
		<path fill-rule="evenodd" clip-rule="evenodd" fill="none" stroke="#000000" stroke-width="1.4173" stroke-linecap="round" d="
			M32.781,49.586c1.944-0.864,3.888-1.224,4.968-0.648"/>
		<path fill-rule="evenodd" clip-rule="evenodd" fill="none" stroke="#000000" stroke-width="1.4173" stroke-linecap="round" d="
			M32.277,66.722L32.277,66.722c-3.384,1.944-9.864-0.648-10.224-5.616c-0.432-5.616,3.096-53.28,3.96-55.656
			c1.368-3.816,4.032-4.752,6.408-4.104l0,0c0,0-8.352-2.088-12.6,1.296c-4.248,3.312-4.536,26.784-5.184,35.208
			c-0.576,7.272-1.224,20.52-0.72,25.56c0.36,3.456,3.24,5.256,6.696,5.904h0.216c0-0.072,0-0.144,0-0.216
			c0.072-2.376,5.328-2.808,5.256-0.072c0,0.144,0,0.288,0,0.432h0.144C29.037,69.098,31.413,68.09,32.277,66.722z"/>
	</g>
	<path fill-rule="evenodd" clip-rule="evenodd" fill="none" stroke="#000000" stroke-width="1.4173" stroke-linecap="round" d="
		M20.757,187.898L20.757,187.898c0.072,0.144,0.072,0.36,0.144,0.576c0.144,0.792,5.544,1.152,5.184-0.72v-0.072h0.072
		c5.544,0.36,8.64,3.6,8.64,3.6c6.408-0.36,9.936,3.456,9.936,3.456c-4.968,7.344-35.064,6.624-43.992,2.16
		c-0.144-0.216,0.072-2.16,3.168-3.888s6.912-1.728,6.912-1.728C13.413,188.978,17.445,188.402,20.757,187.898z"/>
</g>
</svg>
