<?xml version="1.0" encoding="utf-8"?>
<!-- Generator: Adobe Illustrator 13.0.0, SVG Export Plug-In . SVG Version: 6.00 Build 14948)  -->
<!DOCTYPE svg PUBLIC "-//W3C//DTD SVG 1.1//EN" "http://www.w3.org/Graphics/SVG/1.1/DTD/svg11.dtd">
<svg version="1.1" id="Layer_1" xmlns="http://www.w3.org/2000/svg" xmlns:xlink="http://www.w3.org/1999/xlink" x="0px" y="0px"
	 width="211.053px" height="177.499px" viewBox="0 0 211.053 177.499" enable-background="new 0 0 211.053 177.499"
	 xml:space="preserve">
<g>
	<path fill-rule="evenodd" clip-rule="evenodd" fill="none" stroke="#000000" stroke-width="1.4173" stroke-linecap="round" d="
		M18.148,119.86c3.384,4.68,20.376,23.688,48.096,23.328c31.392-0.432,45.576-18.288,49.536-24.984
		c3.96-6.768,3.456-14.112,0.288-14.76c-3.168-0.576-4.896,1.944-6.984,6.552c-2.088,4.608-17.28,26.064-45.576,24.768
		c-28.368-1.296-39.384-22.32-39.384-22.32C19.876,111.508,15.052,115.612,18.148,119.86z"/>
	<path fill-rule="evenodd" clip-rule="evenodd" fill="none" stroke="#000000" stroke-width="1.4173" stroke-linecap="round" d="
		M55.229,101.284c-0.648,0.576-4.608,4.464-5.112,6.984c-0.504,2.448-1.584,9.432-0.792,11.304s6.984,6.336,16.056,5.112
		c9-1.224,11.448-2.808,12.528-5.256c1.08-2.448,1.656-8.856,0.504-13.536c-1.224-4.608-3.816-6.336-6.192-6.336
		S56.308,100.205,55.229,101.284z"/>
	<path fill-rule="evenodd" clip-rule="evenodd" fill="none" stroke="#000000" stroke-width="1.4173" stroke-linecap="round" d="
		M110.813,106.18c-14.112,33.192-65.52,40.176-86.544,6.12c0,0,4.536-13.536,7.272-19.08c15.12-29.88,54-37.368,69.84-3.744
		C104.476,95.957,108.94,105.388,110.813,106.18z"/>
	<path fill-rule="evenodd" clip-rule="evenodd" fill="none" stroke="#000000" stroke-width="1.4173" stroke-linecap="round" d="
		M56.813,83.14c-1.368,3.24-2.016,8.784-1.296,10.368c0.648,1.512,1.944,2.232,6.48,2.448c4.464,0.288,13.248-0.432,14.616-1.8
		c1.368-1.368,2.88-5.184,2.736-6.84c-0.144-1.656-0.216-8.856-2.88-9.576C71.716,76.444,59.404,77.38,56.813,83.14z"/>
	<path fill-rule="evenodd" clip-rule="evenodd" fill="none" stroke="#000000" stroke-width="1.4173" stroke-linecap="round" d="
		M34.78,88.036c3.96-6.192,8.64-10.44,13.68-13.824c0,0,3.888,2.52,4.104,3.384c0.288,0.864,0.864,3.888-0.936,7.488
		c-1.872,3.6-5.256,7.56-9.36,7.56C38.092,92.572,34.78,88.036,34.78,88.036z"/>
	<path fill-rule="evenodd" clip-rule="evenodd" fill="none" stroke="#000000" stroke-width="1.4173" stroke-linecap="round" d="
		M25.061,110.5l5.544-14.904c0,0,8.784,1.224,11.304,4.968c2.52,3.672,2.448,13.68-0.72,15.912
		c-3.168,2.232-7.416,0.288-11.16-1.944S25.061,110.5,25.061,110.5z"/>
	<path fill-rule="evenodd" clip-rule="evenodd" fill="none" stroke="#000000" stroke-width="1.4173" stroke-linecap="round" d="
		M81.364,69.676c-7.416-3.024-15.336-3.096-23.76-0.072c0,0,2.16,2.952,6.408,3.888c4.248,0.864,11.232,0.936,13.752-0.216
		C80.284,72.196,81.364,69.676,81.364,69.676z"/>
	<path fill-rule="evenodd" clip-rule="evenodd" fill="none" stroke="#000000" stroke-width="1.4173" stroke-linecap="round" d="
		M99.22,85.588c-2.52-4.464-5.904-8.712-11.304-12.384c0,0.216-5.688,1.944-5.616,6.048c0.144,4.104,0.792,9.648,4.68,10.584
		C90.868,90.7,97.924,87.101,99.22,85.588z"/>
	<path fill-rule="evenodd" clip-rule="evenodd" fill="none" stroke="#000000" stroke-width="1.4173" stroke-linecap="round" d="
		M101.452,90.052l7.2,13.752c0,0-1.512,4.464-4.896,6.912c-3.528,2.448-8.424,4.896-11.232,5.4
		c-2.808,0.432-4.248,0.792-5.976-1.368c-1.656-2.16-3.816-11.016-3.312-12.456c0.504-1.368,1.872-4.32,4.608-6.048
		C90.581,94.516,100.012,91.348,101.452,90.052z"/>
	<path fill-rule="evenodd" clip-rule="evenodd" fill="none" stroke="#000000" stroke-width="1.4173" stroke-linecap="round" d="
		M27.796,166.804c0,0,1.8-7.344,5.256-6.696c3.456,0.72,2.016,7.128,2.016,7.128"/>
	<path fill-rule="evenodd" clip-rule="evenodd" fill="none" stroke="#000000" stroke-width="1.4173" stroke-linecap="round" d="
		M20.813,164.14c0,0,1.944-7.128,5.04-6.192c3.096,0.936,3.096,4.896,2.736,6.048"/>
	<path fill-rule="evenodd" clip-rule="evenodd" fill="none" stroke="#000000" stroke-width="1.4173" stroke-linecap="round" d="
		M14.333,160.468c0,0,1.224-6.336,4.896-5.544c3.6,0.792,2.952,4.968,2.592,6.408"/>
	<path fill-rule="evenodd" clip-rule="evenodd" fill="none" stroke="#000000" stroke-width="1.4173" stroke-linecap="round" d="
		M14.26,160.468c0,0,1.296-5.832,4.896-5.472c3.528,0.432,2.88,5.328,2.88,5.328s1.368-3.096,4.032-2.16
		c2.664,0.864,2.736,5.04,2.736,5.04s1.368-3.528,4.248-2.88c2.808,0.576,2.304,5.4,2.232,5.688c0,0.288-0.216,1.296-0.216,1.296
		s-3.528,1.224-9.864-1.152C18.796,163.78,14.26,160.468,14.26,160.468z"/>
	<path fill-rule="evenodd" clip-rule="evenodd" fill="none" stroke="#000000" stroke-width="1.4173" stroke-linecap="round" d="
		M19.732,127.348c-0.072,0.576-2.088,13.68-4.392,19.152c-2.376,5.472-5.112,9.288-3.816,11.52
		c1.296,2.304,8.208,6.048,13.464,8.064s10.8,2.88,12.456-0.936c1.728-3.816,0.576-16.992,4.896-22.032"/>
	<path fill-rule="evenodd" clip-rule="evenodd" fill="none" stroke="#000000" stroke-width="1.4173" stroke-linecap="round" d="
		M73.444,152.044c0,0-20.16,2.448-33.336-4.104"/>
	<path fill-rule="evenodd" clip-rule="evenodd" fill="none" stroke="#000000" stroke-width="1.4173" stroke-linecap="round" d="
		M73.804,148.012c0,0-0.144,5.544-1.728,10.296c-1.512,4.68-3.816,10.656-2.52,13.248c1.224,2.52,5.04,5.544,14.04,5.184
		c9-0.432,12.024-3.6,12.24-5.4c0.288-1.8,0.648-5.04-1.8-4.968c-2.448,0.072-4.536,3.456-4.32,9.144"/>
	<path fill-rule="evenodd" clip-rule="evenodd" fill="none" stroke="#000000" stroke-width="1.4173" stroke-linecap="round" d="
		M81.868,176.596c0,0,0.288-9.864,3.888-9.936c3.528-0.144,4.032,2.376,4.392,3.672"/>
	<path fill-rule="evenodd" clip-rule="evenodd" fill="none" stroke="#000000" stroke-width="1.4173" stroke-linecap="round" d="
		M73.876,175.012c0,0-0.144-8.064,4.032-8.208c4.176-0.216,4.392,3.96,4.392,4.608"/>
	<path fill-rule="evenodd" clip-rule="evenodd" fill="none" stroke="#000000" stroke-width="1.4173" stroke-linecap="round" d="
		M115.204,166.373c0,0-6.336-6.984-2.952-10.44c3.312-3.528,9.36,3.528,9.36,3.528"/>
	<path fill-rule="evenodd" clip-rule="evenodd" fill="none" stroke="#000000" stroke-width="1.4173" stroke-linecap="round" d="
		M118.444,150.388c0,0.288-2.664,2.664-0.72,5.544"/>
	<path fill-rule="evenodd" clip-rule="evenodd" fill="none" stroke="#000000" stroke-width="1.4173" stroke-linecap="round" d="
		M73.804,175.156c0,0,0.288-8.424,4.248-8.28c3.888,0.144,4.464,4.32,4.464,4.32s0.792-5.184,3.888-4.536
		c3.168,0.648,3.816,3.6,3.816,3.6s1.44-4.248,3.96-3.816c2.448,0.432,1.944,4.392,1.584,5.184
		c-0.288,0.792-3.672,4.392-10.944,5.04C77.62,177.316,73.804,175.156,73.804,175.156z"/>
	<path fill-rule="evenodd" clip-rule="evenodd" fill="none" stroke="#000000" stroke-width="1.4173" stroke-linecap="round" d="
		M145.732,100.997c-1.584,6.84-3.456,18-15.984,27.864c-12.528,9.864-33.264,19.656-34.56,37.728"/>
	<path fill-rule="evenodd" clip-rule="evenodd" fill="none" stroke="#000000" stroke-width="1.4173" stroke-linecap="round" d="
		M18.796,120.868c15.84,17.208,37.008,25.704,56.736,21.672c16.056-3.24,42.048-12.672,42.984-35.28
		c7.416-9.648,3.312-18.504-2.232-27c-5.616-8.64-9.576-14.4-10.728-25.128c-2.232-19.944,3.888-49.968,41.688-54
		c50.904-5.328,55.584,41.256,55.584,45.576c0,4.32,2.664,11.448,4.824,14.184c2.16,2.664,6.264,15.552-3.744,28.8
		c-10.08,13.248-23.688,16.632-37.512,15.048c-2.376-0.288-4.392-0.864-6.048-1.584c-5.76,0.072-10.728-1.008-14.544-2.232
		c0,0-1.872,8.064-3.024,10.944c-1.08,2.952-4.68,10.44-10.656,15.336c-5.976,4.824-19.008,13.608-19.008,13.608
		s2.16,5.4,3.744,7.416c1.512,2.016,6.264,5.256,6.624,6.048c0.432,0.72-0.792,6.48-6.48,11.088
		c-5.688,4.536-11.88,3.528-13.608,2.448c-1.8-1.152-5.184-10.944-5.184-10.944s-1.08,1.512-1.656,3.096
		c-0.576,1.512-1.224,6.264-1.224,6.264s0.432,0.504,0.648,1.728c0.216,1.152-0.216,2.952-0.36,3.888
		c-0.216,1.008-1.728,2.016-4.32,3.24c-2.592,1.296-6.552,1.944-12.528,1.296c-5.904-0.648-8.136-2.736-9.144-5.616
		c-1.08-2.808,0.72-7.128,1.656-10.008c0.936-2.952,2.088-8.712,2.088-8.712s-3.672,0.432-8.424,0.432
		c-4.824,0-15.696-1.152-15.696-1.152s-0.72,3.168-0.792,5.688c-0.072,2.52,0.072,7.056,0,7.776
		c-0.072,0.72-1.224,2.304-4.968,3.168c-3.744,0.936-6.336-1.584-6.336-1.584s-0.648,0.576-1.584,0.864
		c-0.864,0.216-2.88,0.36-6.768,0.072c-3.888-0.216-12.384-5.4-12.384-5.4s-4.68-3.024-5.112-4.608
		c-0.504-1.584,2.016-6.768,3.816-10.584c1.8-3.816,3.6-14.04,3.6-14.04s-4.248,0-8.64-1.44c-4.32-1.368-8.136-7.704-8.136-7.704
		s3.456,1.872,8.064,1.368C14.692,124.324,18.796,120.868,18.796,120.868z"/>
	<path fill-rule="evenodd" clip-rule="evenodd" fill="none" stroke="#000000" stroke-width="1.4173" stroke-linecap="round" d="
		M152.284,92.716c0,0,0.216,7.056,8.064,10.44"/>
	<path fill-rule="evenodd" clip-rule="evenodd" fill="none" stroke="#000000" stroke-width="1.4173" stroke-linecap="round" d="
		M145.732,100.997c-5.4-1.656-8.568-3.672-8.568-3.672"/>
	<path fill-rule="evenodd" clip-rule="evenodd" fill="none" stroke="#000000" stroke-width="1.4173" stroke-linecap="round" d="
		M135.364,75.148c0,0,15.336-1.584,26.136,2.808"/>
	<path fill-rule="evenodd" clip-rule="evenodd" fill="none" stroke="#000000" stroke-width="1.4173" stroke-linecap="round" d="
		M161.86,24.82c5.256,0.216,10.368,1.872,14.832,4.608"/>
	<path fill-rule="evenodd" clip-rule="evenodd" fill="none" stroke="#000000" stroke-width="1.4173" stroke-linecap="round" d="
		M173.092,49.876c-4.032,17.64-12.528,23.832-22.896,25.344c0,0-11.952-5.184-8.784-20.232
		C144.652,39.868,166.252,33.101,173.092,49.876z"/>
	<path fill-rule="evenodd" clip-rule="evenodd" fill="none" stroke="#000000" stroke-width="1.4173" stroke-linecap="round" d="
		M168.988,61.756c-2.808,4.896-6.48,8.496-10.656,11.016c-4.32,0.792-8.64-0.72-10.368-4.392c-3.096-6.84,2.52-19.512,11.16-18.792
		C169.276,50.452,168.988,61.756,168.988,61.756z"/>
	<path fill-rule="evenodd" clip-rule="evenodd" fill="none" stroke="#000000" stroke-width="1.4173" stroke-linecap="round" d="
		M155.452,66.94c4.248,3.168,8.208-6.12,4.032-7.416C155.38,58.229,151.996,64.42,155.452,66.94z"/>
	<path fill-rule="evenodd" clip-rule="evenodd" fill="none" stroke="#000000" stroke-width="1.4173" stroke-linecap="round" d="
		M154.012,63.34c0,0-1.512,1.368-2.88,0.36c-1.44-1.008-0.288-5.256,1.944-4.968c2.16,0.216,1.656,2.736,1.368,3.384"/>
	<path fill-rule="evenodd" clip-rule="evenodd" fill="none" stroke="#000000" stroke-width="1.4173" stroke-linecap="round" d="
		M152.212,75.508c-3.888-0.216-6.912-0.792-11.736-0.576c0,0-14.112-9.648-6.264-30.672c5.256-14.256,16.632-19.944,27.648-19.44
		C182.236,37.205,173.165,69.532,152.212,75.508z"/>
	<path fill-rule="evenodd" clip-rule="evenodd" fill="none" stroke="#000000" stroke-width="1.4173" stroke-linecap="round" d="
		M42.412,167.957c0,0,0-7.632,5.904-6.84"/>
	<path fill-rule="evenodd" clip-rule="evenodd" fill="none" stroke="#000000" stroke-width="1.4173" stroke-linecap="round" d="
		M42.34,168.028c0,0,0.216-4.608,2.448-5.904c2.304-1.368,3.528-1.08,3.528-1.08s0.36,2.88-0.144,4.104
		C47.74,166.373,44.5,168.676,42.34,168.028z"/>
</g>
</svg>
