<?xml version="1.0" encoding="utf-8"?>
<!-- Generator: Adobe Illustrator 13.0.0, SVG Export Plug-In . SVG Version: 6.00 Build 14948)  -->
<!DOCTYPE svg PUBLIC "-//W3C//DTD SVG 1.1//EN" "http://www.w3.org/Graphics/SVG/1.1/DTD/svg11.dtd">
<svg version="1.1" id="Layer_1" xmlns="http://www.w3.org/2000/svg" xmlns:xlink="http://www.w3.org/1999/xlink" x="0px" y="0px"
	 width="184.755px" height="191.366px" viewBox="0 0 184.755 191.366" enable-background="new 0 0 184.755 191.366"
	 xml:space="preserve">
<g>
	<path fill-rule="evenodd" clip-rule="evenodd" fill="none" stroke="#000000" stroke-width="1.4173" stroke-linecap="round" d="
		M134.196,181.226c0,0-20.952-5.616-26.784-15.696c-5.76-10.152-6.48-19.8-5.904-22.032s1.152-4.176,1.152-6.048
		c0-1.944,0.288-17.568,3.6-22.032c3.24-4.464,6.984-8.424,15.12-12.6c8.208-4.176,16.92-6.84,16.92-6.84s-21.816-2.88-30.6,1.368
		c-8.712,4.248-10.8,6.84-11.88,7.992c-1.008,1.224-6.552,7.128-6.552,7.128s-11.016-8.928-19.8-8.496
		c-8.784,0.504-11.88,2.592-12.6,3.168c-0.792,0.576-6.12,3.816-6.12,4.752c0,0.864,6.12-2.376,13.68,1.44
		c7.56,3.888,10.512,9.216,9.36,20.376c-1.224,11.16-5.04,21.24-4.752,22.896c0.288,1.584,1.512,5.04,0.288,6.984
		c-1.152,1.944-9.216,13.176-11.448,14.688c-2.232,1.512-5.616,4.032-5.616,4.032l-4.32,1.728c0,0,25.848,0.792,29.736-0.144
		c3.816-0.864,5.472-2.088,10.656-1.296c5.112,0.72,10.224,2.232,15.264,1.44c5.04-0.72,14.112-2.808,16.92-2.952
		S134.196,181.226,134.196,181.226z"/>
	<path fill-rule="evenodd" clip-rule="evenodd" fill="none" stroke="#000000" stroke-width="1.4173" stroke-linecap="round" d="
		M114.396,107.066c1.944-1.44,4.176-2.808,6.984-4.248c8.208-4.176,16.92-6.84,16.92-6.84s-21.816-2.88-30.6,1.368
		c-8.712,4.248-10.8,6.84-11.88,7.992c-1.008,1.224-6.552,7.128-6.552,7.128s-11.016-8.928-19.8-8.496
		c-8.784,0.504-11.88,2.592-12.6,3.168c-0.792,0.576-6.12,3.816-6.12,4.752c0,0.648,3.744-1.152,9-0.144
		c-2.88,2.736-9.144,18.432-24.912,12.96c-15.768-5.4-8.496-20.808-8.496-20.808S0.708,99.65,0.708,79.994
		c0-19.8,17.424-21.744,17.424-21.744S1.356,50.618,6.972,30.242c5.544-20.448,30.96-27.72,45.072-24.048
		c14.184,3.6,16.488,12.816,16.488,12.816c8.352-28.008,61.272-21.6,56.52,3.888c-0.288,1.368-0.36,1.08,0.288,0
		c9.288-16.056,36.864-11.088,32.04,8.64c0,0,32.616,9.576,25.704,41.184c-6.912,31.536-27,20.088-27,20.088
		s1.008,15.048-17.136,19.368C120.804,116.426,114.396,107.066,114.396,107.066z"/>
	<path fill-rule="evenodd" clip-rule="evenodd" fill="none" stroke="#000000" stroke-width="1.4173" stroke-linecap="round" d="
		M174.66,183.17c-0.936,0-15.624-0.144-18.432-0.216c-2.808-0.144-9.72-1.512-10.8-1.512c-1.152,0-10.728,0.144-12.744-0.216"/>
	<path fill-rule="evenodd" clip-rule="evenodd" fill="none" stroke="#000000" stroke-width="1.4173" stroke-linecap="round" d="
		M49.164,183.89c-0.792,0-16.848,1.872-22.104,3.312c-5.328,1.512-14.976,3.456-14.976,3.456"/>
</g>
</svg>
