<?xml version="1.0" encoding="utf-8"?>
<!-- Generator: Adobe Illustrator 13.0.0, SVG Export Plug-In . SVG Version: 6.00 Build 14948)  -->
<!DOCTYPE svg PUBLIC "-//W3C//DTD SVG 1.1//EN" "http://www.w3.org/Graphics/SVG/1.1/DTD/svg11.dtd">
<svg version="1.1" id="Layer_1" xmlns="http://www.w3.org/2000/svg" xmlns:xlink="http://www.w3.org/1999/xlink" x="0px" y="0px"
	 width="158.505px" height="199.467px" viewBox="0 0 158.505 199.467" enable-background="new 0 0 158.505 199.467"
	 xml:space="preserve">
<g>
	<path fill-rule="evenodd" clip-rule="evenodd" fill="none" stroke="#000000" stroke-width="1.4173" stroke-linecap="round" d="
		M37.939,16.981l-0.864,0.504c1.296-0.864,2.664-1.584,4.104-2.304c44.28-22.032,89.136-0.576,115.56,28.224
		c1.152,1.224,1.728,1.368-0.216,0.432c-2.808-1.44-9.288-4.176-14.76-1.224c-5.76,3.096-5.472,10.584-5.112,13.464
		c0.144,1.512,0.144,1.152-0.36,0.072c-2.952-6.192-10.512-19.224-38.376-31.68C68.539,11.222,37.939,16.981,37.939,16.981z"/>
	<path fill-rule="evenodd" clip-rule="evenodd" fill="none" stroke="#000000" stroke-width="1.4173" stroke-linecap="round" d="
		M111.523,72.206l-0.504-1.296c0,0-2.088-12.456,7.56-16.704c8.856-3.816,16.56,1.368,17.784,2.232
		c0.216,0.144,0.144,0.144,0.072-0.072c-2.952-6.192-10.296-19.296-38.52-31.896c-28.296-12.744-57.816-7.848-59.832-7.488
		c-0.072,0-0.936,0.576-0.936,0.576s26.424,2.448,46.872,20.016C104.611,55.142,109.507,67.166,111.523,72.206z"/>
	<path fill-rule="evenodd" clip-rule="evenodd" fill="none" stroke="#000000" stroke-width="1.4173" stroke-linecap="round" d="
		M37.147,17.558l-0.072,0.216c0,0,31.968,31.896,49.752,67.824c0.216,0.504,0.216,0.576,0.144,0
		c-0.144-3.744-0.576-13.536,7.056-17.208c7.92-3.888,17.064,2.664,17.064,2.664c-2.304-5.616-7.92-17.136-27.072-33.48
		C63.571,20.005,37.147,17.558,37.147,17.558z"/>
	<path fill-rule="evenodd" clip-rule="evenodd" fill="none" stroke="#000000" stroke-width="1.4173" stroke-linecap="round" d="
		M37.075,17.773v-0.288c-0.72,0.36-1.368,0.792-2.016,1.224c1.728,28.296,6.192,60.408,22.68,84.312
		c0.288,0.432,0.288,0.504,0.144-0.072c-0.432-2.808-1.008-14.688,8.208-19.44c8.712-4.464,18.144,0.792,20.448,2.232
		c0.648,0.36,0.504,0.36,0.216-0.216C69.043,49.669,37.075,17.773,37.075,17.773z"/>
	<path fill-rule="evenodd" clip-rule="evenodd" fill="none" stroke="#000000" stroke-width="1.4173" stroke-linecap="round" d="
		M57.883,103.31l0.864,1.152c-17.352-24.048-21.888-56.88-23.688-85.752c-0.864,0.576-1.584,1.152-2.448,1.8
		c-14.832,30.312-18.72,70.632,0.36,99.936c0.576,0.864,0.432,0.792,0.216-0.144C29.083,105.974,42.691,91.79,57.883,103.31z"/>
	<path fill-rule="evenodd" clip-rule="evenodd" fill="none" stroke="#000000" stroke-width="1.4173" stroke-linecap="round" d="
		M32.611,20.509l-0.072,0.072c-17.064,12.744-29.592,36-31.608,59.112c-2.304,26.784,14.04,57.6,14.04,57.6
		c-6.912-14.472,6.48-27.144,18-16.632c0.432,0.432,0.432,0.432,0.072-0.144C13.891,91.213,17.779,50.821,32.611,20.509z"/>
	<path fill-rule="evenodd" clip-rule="evenodd" fill="none" stroke="#000000" stroke-width="1.4173" stroke-linecap="round" d="
		M32.611,20.509c-14.904,30.456-18.792,71.064,0.648,100.44"/>
	<path fill-rule="evenodd" clip-rule="evenodd" fill="none" stroke="#000000" stroke-width="1.4173" stroke-linecap="round" d="
		M33.907,19.357l5.688-3.6c0,0-13.536-15.192-14.184-15.048c-0.072,0,0.216,0.792,0.72,2.088
		C28.003,7.333,33.043,17.629,33.907,19.357z"/>
	<path fill="none" stroke="#000000" stroke-width="1.4173" d="M125.419,158.102l3.888-2.52l13.032,20.16
		c4.536,6.984,3.6,16.92-3.816,21.384c-6.768,4.032-14.112,0.144-17.424-6.696c-1.08-2.304,2.664-4.32,3.744-2.088
		c2.232,4.68,6.552,7.416,11.304,4.608c5.472-3.312,5.472-9.792,2.232-14.76L125.419,158.102z"/>
	
		<line fill="none" stroke="#000000" stroke-width="1.4173" stroke-linecap="round" x1="124.771" y1="158.461" x2="130.027" y2="155.078"/>
	<path fill="none" stroke="#000000" stroke-width="1.4173" d="M76.819,82.142c1.8,0.288,3.528,0.72,5.544,1.512l46.584,72.072
		l-3.312,2.16L76.819,82.142z"/>
</g>
</svg>
