<?xml version="1.0" encoding="UTF-8" standalone="no"?>
<svg
   xmlns:dc="http://purl.org/dc/elements/1.1/"
   xmlns:cc="http://creativecommons.org/ns#"
   xmlns:rdf="http://www.w3.org/1999/02/22-rdf-syntax-ns#"
   xmlns:svg="http://www.w3.org/2000/svg"
   xmlns="http://www.w3.org/2000/svg"
   xml:space="preserve"
   enable-background="new 0 0 595 842"
   viewBox="0 0 500 500"
   height="500"
   width="500"
   y="0px"
   x="0px"
   id="svgSquare"
   version="1.1"><metadata
   id="metadata16"><rdf:RDF><cc:Work
       rdf:about=""><dc:format>image/svg+xml</dc:format><dc:type
         rdf:resource="http://purl.org/dc/dcmitype/StillImage" /><dc:title></dc:title></cc:Work></rdf:RDF></metadata><defs
   id="defs14" />
<rect
   style="fill:#ed1c24;stroke:#000000;stroke-width:0.21599999;stroke-miterlimit:22.92560005"
   height="499.47815"
   width="499.47852"
   stroke-miterlimit="22.9256"
   y="0.26098633"
   x="0.26072872"
   id="Full_Square" />
<polygon
   style="clip-rule:evenodd;fill:#ed1c24;fill-rule:evenodd;stroke:#000000;stroke-width:0.06129211;stroke-miterlimit:22.92560005"
   transform="matrix(3.5241056,0,0,3.524103,-845.81,-1105.0069)"
   points="310.947,313.631 240.081,313.631 310.947,384.497 "
   stroke-miterlimit="22.9256"
   class="svgSection8" />
<polygon
   style="clip-rule:evenodd;fill:#ed1c24;fill-rule:evenodd;stroke:#000000;stroke-width:0.06129211;stroke-miterlimit:22.92560005"
   transform="matrix(3.5241056,0,0,3.524103,-845.81,-1105.0069)"
   points="310.947,455.363 240.081,455.363 310.947,384.497 "
   stroke-miterlimit="22.9256"
   class="svgSection5" />
<polygon
   style="clip-rule:evenodd;fill:#ed1c24;fill-rule:evenodd;stroke:#000000;stroke-width:0.06129211;stroke-miterlimit:22.92560005"
   transform="matrix(3.5241056,0,0,3.524103,-845.81,-1105.0069)"
   points="310.947,455.363 381.813,455.363 310.947,384.497 "
   stroke-miterlimit="22.9256"
   class="svgSection4" />
<polygon
   style="clip-rule:evenodd;fill:#ed1c24;fill-rule:evenodd;stroke:#000000;stroke-width:0.06129211;stroke-miterlimit:22.92560005"
   transform="matrix(3.5241056,0,0,3.524103,-845.81,-1105.0069)"
   points="240.081,384.497 240.081,455.363 310.947,384.497 "
   stroke-miterlimit="22.9256"
   class="svgSection6" />
<polygon
   style="clip-rule:evenodd;fill:#ed1c24;fill-rule:evenodd;stroke:#000000;stroke-width:0.06129211;stroke-miterlimit:22.92560005"
   transform="matrix(3.5241056,0,0,3.524103,-845.81,-1105.0069)"
   points="240.081,384.497 240.081,313.631 310.947,384.497 "
   stroke-miterlimit="22.9256"
   class="svgSection7" />
<polygon
   style="clip-rule:evenodd;fill:#ed1c24;fill-rule:evenodd;stroke:#000000;stroke-width:0.06129211;stroke-miterlimit:22.92560005"
   transform="matrix(3.5241056,0,0,3.524103,-845.81,-1105.0069)"
   points="381.813,384.497 381.813,455.363 310.947,384.497 "
   stroke-miterlimit="22.9256"
   class="svgSection3" />
<polygon
   style="clip-rule:evenodd;fill:#ed1c24;fill-rule:evenodd;stroke:#000000;stroke-width:0.06129211;stroke-miterlimit:22.92560005"
   transform="matrix(3.5241056,0,0,3.524103,-845.81,-1105.0069)"
   points="381.813,384.497 381.813,313.631 310.947,384.497 "
   stroke-miterlimit="22.9256"
   class="svgSection2" />
<polygon
   style="clip-rule:evenodd;fill:#ed1c24;fill-rule:evenodd;stroke:#000000;stroke-width:0.06129211;stroke-miterlimit:22.92560005"
   transform="matrix(3.5241056,0,0,3.524103,-845.81,-1105.0069)"
   points="310.947,313.631 381.813,313.631 310.947,384.497 "
   stroke-miterlimit="22.9256"
   class="svgSection1" />
</svg>